<?xml version="1.0" encoding="UTF-8"?><svg id="bf2b12fd-98ef-4df9-abe4-52340225686d" xmlns="http://www.w3.org/2000/svg" xmlns:xlink="http://www.w3.org/1999/xlink" viewBox="0 0 1143 583.4"><defs><style>.cls-1{fill:#2f2e41;}.cls-2{fill:#d6d6d8;}.cls-3{fill:#3f3d56;}.cls-4{fill:#fbbebe;}.cls-5{fill:#e8e8f0;}.cls-6{fill:#f86d70;}.cls-7{opacity:.15;}.cls-7,.cls-8{isolation:isolate;}.cls-9{fill:#f9a826;}.cls-8{opacity:.1;}.cls-10{fill:url(#linear-gradient);}.cls-11{fill:none;stroke:#3f3d56;stroke-miterlimit:10;stroke-width:4px;}</style><linearGradient id="linear-gradient" x1="596" y1="1093.55" x2="596" y2="933.91" gradientTransform="translate(-28.5 -534.25)" gradientUnits="userSpaceOnUse"><stop offset="0" stop-color="gray" stop-opacity=".25"/><stop offset=".54" stop-color="gray" stop-opacity=".12"/><stop offset="1" stop-color="gray" stop-opacity=".1"/></linearGradient></defs><path class="cls-3" d="M1143,555.8c0,6.9-50.2,13.2-133.2,18-15.1,.9-31.3,1.7-48.4,2.5-14.8,.7-30.4,1.3-46.6,1.9-15.7,.6-32.1,1.1-49,1.6-53.5,1.5-112.7,2.6-175.6,3.2-15.3,.1-30.7,.2-46.4,.3-16.3,.1-32.8,.1-49.5,.1-303.1,0-548.9-12.3-548.9-27.5s245.7-27.5,548.9-27.5c130.5,0,250.4,2.3,344.6,6.1l10.3,.4h.1c118.4,5,193.7,12.6,193.7,20.9Z"/><path class="cls-7" d="M1143,555.8c0,6.9-50.2,13.2-133.2,18-15.1,.9-31.3,1.7-48.4,2.5-14.8,.7-30.4,1.3-46.6,1.9-15.7,.6-32.1,1.1-49,1.6-53.5,1.5-112.7,2.6-175.6,3.2-15.3,.1-30.7,.2-46.4,.3-16.3,.1-32.8,.1-49.5,.1-303.1,0-548.9-12.3-548.9-27.5s245.7-27.5,548.9-27.5c130.5,0,250.4,2.3,344.6,6.1l10.3,.4h.1c118.4,5,193.7,12.6,193.7,20.9Z"/><path class="cls-3" d="M1097.8,551c0,5.7-50.2,11-133.2,15-15.1,.7-31.3,1.4-48.4,2.1-14.8,.6-30.4,1.1-46.6,1.6-15.7,.5-32.1,.9-49,1.3-53.5,1.3-112.7,2.2-175.6,2.7-15.2,.1-30.7,.2-46.4,.3-16.3,.1-32.8,.1-49.5,.1-303.4-.1-549.1-10.4-549.1-23.1s245.7-23,548.9-23c130.5,0,250.3,1.9,344.5,5.1l10.3,.3h.1c118.7,4.3,194,10.5,194,17.6Z"/><path class="cls-2" d="M141.8,342.1l-13.8-42.2,330-3.6,13.5,41.8-329.7,4Z"/><path class="cls-3" d="M683.1,277.2c-34.1,0-61-13.5-80.7-40.6s-29.5-59.9-29.5-98.4,9.5-71.5,28.5-98.2S647.2,0,681.9,0c36.7,0,64.4,14.1,83,42.2,18.6,28.1,27.9,60.7,27.9,97.7s-9.6,68.8-28.9,96.3c-19.2,27.3-46.2,41-80.8,41Zm1-30.4c22.4,0,39.2-9.8,50.3-29.4s16.7-44.2,16.7-74c0-33.1-5.7-60.3-17-81.4-11.4-21.1-28.8-31.7-52.3-31.7-44.7,0-67,35.5-67,106.4s23.1,110.1,69.3,110.1h0Zm11.2,291.7h-49.3L969.1,5.3h48.4l-322.2,533.2Zm285.9,5.5c-34.6,0-61.6-13.7-81-41s-29.1-60.2-29.2-98.4c0-38.5,9.4-71.2,28.3-97.9s45.8-40,80.7-40,63.9,14.1,82.4,42.2,27.7,60.7,27.7,97.6-9.6,68.5-28.7,96.1c-19.1,27.6-45.9,41.4-80.2,41.4h0Zm.6-31.2c22.3,0,39-9.6,50.1-28.8,11-19.2,16.6-43.8,16.6-73.7,0-32-5.6-58.8-16.8-80.5s-28.6-32.5-52.2-32.6c-45-.1-67.5,35.4-67.5,106.4s23.2,109.2,69.8,109.2h0Z"/><path class="cls-2" d="M683.1,277.2c-34.1,0-61-13.5-80.7-40.6s-29.5-59.9-29.5-98.4,9.5-71.5,28.5-98.2S647.2,0,681.9,0c36.7,0,64.4,14.1,83,42.2,18.6,28.1,27.9,60.7,27.9,97.7s-9.6,68.8-28.9,96.3c-19.2,27.3-46.2,41-80.8,41Zm1-30.4c22.4,0,39.2-9.8,50.3-29.4s16.7-44.2,16.7-74c0-33.1-5.7-60.3-17-81.4-11.4-21.1-28.8-31.7-52.3-31.7-44.7,0-67,35.5-67,106.4s23.1,110.1,69.3,110.1h0Zm11.2,291.7h-49.3L969.1,5.3h48.4l-322.2,533.2Zm285.9,5.5c-34.6,0-61.6-13.7-81-41s-29.1-60.2-29.2-98.4c0-38.5,9.4-71.2,28.3-97.9s45.8-40,80.7-40,63.9,14.1,82.4,42.2,27.7,60.7,27.7,97.6-9.6,68.5-28.7,96.1c-19.1,27.6-45.9,41.4-80.2,41.4h0Zm.6-31.2c22.3,0,39-9.6,50.1-28.8,11-19.2,16.6-43.8,16.6-73.7,0-32-5.6-58.8-16.8-80.5s-28.6-32.5-52.2-32.6c-45-.1-67.5,35.4-67.5,106.4s23.2,109.2,69.8,109.2h0Z"/><path class="cls-2" d="M652.1,277.2c-34.1,0-61-13.5-80.7-40.6s-29.5-59.9-29.5-98.4,9.5-71.5,28.5-98.2S616.2,0,650.9,0c36.7,0,64.4,14.1,83,42.2,18.6,28.1,27.9,60.7,27.9,97.7s-9.6,68.8-28.9,96.3c-19.2,27.3-46.2,41-80.8,41Zm1-30.4c22.4,0,39.2-9.8,50.3-29.4s16.7-44.2,16.7-74c0-33.1-5.7-60.3-17-81.4-11.4-21.1-28.8-31.7-52.3-31.7-44.7,0-67,35.5-67,106.4s23.1,110.1,69.3,110.1h0Zm11.2,291.7h-49.3L938.1,5.3h48.4l-322.2,533.2Zm285.9,5.5c-34.6,0-61.6-13.7-81-41s-29.1-60.2-29.2-98.4c0-38.5,9.4-71.2,28.3-97.9s45.8-40,80.7-40,63.9,14.1,82.4,42.2,27.7,60.7,27.7,97.6-9.6,68.5-28.7,96.1c-19.1,27.6-45.9,41.4-80.2,41.4h0Zm.6-31.2c22.3,0,39-9.6,50.1-28.8,11-19.2,16.6-43.8,16.6-73.7,0-32-5.6-58.8-16.8-80.5s-28.6-32.5-52.2-32.6c-45-.1-67.5,35.4-67.5,106.4s23.2,109.2,69.8,109.2h0Z"/><path class="cls-11" d="M760.1,551.9c4.1-7.6-.6-17-5.9-23.8s-11.9-13.9-11.8-22.6c.2-12.5,13.4-19.8,24-26.5,7.9-4.9,15.1-10.7,21.6-17.3,2.7-2.5,5-5.6,6.6-8.9,2.2-4.9,2.1-10.4,2-15.8-.5-17.8-1.3-35.6-2.6-53.4"/><path class="cls-9" d="M814,382.7c-.3-6.6-4-12.6-9.7-15.9l-4.4,8.6,.1-10.4c-2.1-.6-4.2-.9-6.4-.8-10.7,.5-19,9.6-18.5,20.3s9.6,19,20.3,18.5c10.8-.4,19.1-9.5,18.6-20.3Z"/><path class="cls-9" d="M779.3,514.5c-4.9,9.6-16.6,13.3-26.2,8.4s-13.3-16.6-8.4-26.2,16.6-13.3,26.2-8.4c4.3,2.2,7.6,6,9.3,10.5l-12.2,9.9,13.4-3.1c.1,3.1-.7,6.1-2.1,8.9Z"/><path class="cls-9" d="M769.7,476.6c-10.7,.5-19.8-7.8-20.3-18.5h0c-.2-3,.4-6.1,1.7-8.9,2.4-5.3,6.9-9.2,12.5-10.8l-.1,8,4.4-8.7h0c10.7-.5,19.8,7.8,20.4,18.5,.4,10.8-7.9,19.9-18.6,20.4h0Z"/><path class="cls-9" d="M817,445.2c-10.7,.7-20-7.4-20.7-18.1-.7-10.7,7.4-20,18.1-20.7h.8c3.6-.2,7.2,.7,10.4,2.5l-3.4,9.4,7.1-6.8c3.8,3.5,6.1,8.3,6.3,13.4,.1,1.8-.1,3.6-.5,5.4-2.1,8.4-9.5,14.5-18.1,14.9Z"/><path class="cls-8" d="M811.4,387.9c-4.5,.5-8.8,1.9-13.4,2.2s-9.5-.8-12.3-4.3c-1.5-1.9-2.3-4.3-3.6-6.3-1.2-1.9-2.9-3.5-4.9-4.6-4.9,9.6-1,21.3,8.6,26.2s21.3,1,26.2-8.6c.7-1.5,1.3-3.1,1.7-4.7-.8,0-1.6,0-2.3,.1Z"/><path class="cls-8" d="M817,445.2c-10.7,.5-19.9-7.8-20.3-18.6-.1-3.2,.5-6.3,1.8-9.2,1.5,1,2.9,2.4,3.9,3.9,1.4,2.1,2.2,4.5,3.9,6.4,3,3.6,8.2,4.7,12.9,4.5s9.2-1.5,13.9-2c.7-.1,1.3-.1,2-.1-2.1,8.6-9.4,14.7-18.1,15.1Z"/><path class="cls-8" d="M769.7,476.6c-10.7,.5-19.8-7.8-20.3-18.5h0c-.2-3,.4-6.1,1.7-8.9,1.6,1.1,3,2.4,4.1,4,1.5,2.1,2.5,4.6,4.2,6.6,3.3,3.7,8.8,4.9,13.8,4.8s9.5-1.3,14.2-1.7c-2.4,7.9-9.5,13.4-17.7,13.7Z"/><path class="cls-8" d="M779.3,514.5c-4.9,9.6-16.6,13.4-26.2,8.5-8.9-4.5-12.9-15.1-9.3-24.4,1.6,1.1,3,2.3,4.3,3.8,1.8,2.3,3.1,4.8,5.2,6.9,4,3.9,10.4,5.5,16.1,5.7,3.3,0,6.6-.2,9.9-.5Z"/><path class="cls-11" d="M1061.1,550.9c4.1-7.6-.6-17-5.9-23.8s-11.9-13.9-11.8-22.6c.2-12.5,13.4-19.8,24-26.5,7.9-4.9,15.1-10.7,21.6-17.3,2.7-2.5,5-5.6,6.6-8.9,2.2-4.9,2.1-10.4,2-15.8-.5-17.8-1.3-35.6-2.6-53.4"/><path class="cls-9" d="M1115,381.7c-.3-6.6-4-12.6-9.7-15.9l-4.4,8.6,.1-10.4c-2.1-.6-4.2-.9-6.4-.8-10.7,.5-19,9.6-18.5,20.3,.5,10.7,9.6,19,20.3,18.5,10.8-.4,19.1-9.5,18.6-20.3Z"/><path class="cls-9" d="M1080.3,513.5c-4.9,9.6-16.6,13.3-26.2,8.4-9.6-4.9-13.3-16.6-8.4-26.2s16.6-13.3,26.2-8.4c4.3,2.2,7.6,6,9.3,10.5l-12.2,9.9,13.4-3.1c.1,3.1-.7,6.1-2.1,8.9Z"/><path class="cls-9" d="M1070.7,475.6c-10.7,.5-19.8-7.8-20.3-18.5h0c-.2-3,.4-6.1,1.7-8.9,2.4-5.3,6.9-9.2,12.5-10.8l-.1,8,4.4-8.7h.1c10.7-.5,19.8,7.8,20.3,18.5s-7.9,19.9-18.6,20.4h0Z"/><path class="cls-9" d="M1117.9,444.2c-10.7,.7-20-7.4-20.7-18.1-.7-10.7,7.4-20,18.1-20.7h.8c3.6-.2,7.2,.7,10.4,2.5l-3.4,9.4,7.1-6.8c3.8,3.5,6.1,8.3,6.3,13.4,.1,1.8-.1,3.6-.5,5.4-2,8.4-9.4,14.5-18.1,14.9Z"/><path class="cls-8" d="M1112.4,386.9c-4.5,.5-8.8,1.9-13.4,2.2s-9.5-.8-12.3-4.3c-1.5-1.9-2.3-4.3-3.6-6.3-1.2-1.9-2.9-3.5-4.9-4.6-4.9,9.6-1,21.3,8.6,26.2,9.6,4.9,21.3,1,26.2-8.6,.8-1.5,1.3-3.1,1.7-4.7-.8,0-1.6,0-2.3,.1Z"/><path class="cls-8" d="M1117.9,444.2c-10.7,.5-19.9-7.8-20.3-18.6-.1-3.2,.5-6.3,1.8-9.2,1.5,1,2.9,2.4,3.9,3.9,1.4,2.1,2.2,4.5,3.9,6.4,3,3.6,8.2,4.7,12.9,4.5s9.2-1.5,13.9-2c.7-.1,1.3-.1,2-.1-2,8.6-9.3,14.7-18.1,15.1Z"/><path class="cls-8" d="M1070.7,475.6c-10.7,.5-19.8-7.8-20.3-18.5h0c-.2-3,.4-6.1,1.7-8.9,1.6,1.1,3,2.4,4.1,4,1.5,2.1,2.5,4.6,4.2,6.6,3.3,3.7,8.8,4.9,13.8,4.8,4.8-.1,9.5-1.3,14.2-1.7-2.4,7.9-9.5,13.4-17.7,13.7Z"/><path class="cls-8" d="M1080.3,513.5c-4.9,9.6-16.6,13.4-26.2,8.5-8.9-4.5-12.9-15.1-9.3-24.4,1.6,1.1,3,2.3,4.3,3.8,1.8,2.3,3.1,4.8,5.2,6.9,4,3.9,10.4,5.5,16.1,5.7,3.3,0,6.6-.2,9.9-.5Z"/><path class="cls-11" d="M109.9,537.9c-4.1-7.6,.6-17,5.9-23.8s11.9-13.9,11.8-22.6c-.2-12.5-13.4-19.8-24-26.5-7.9-4.9-15.1-10.7-21.6-17.3-2.7-2.5-5-5.6-6.6-8.9-2.2-4.9-2.1-10.4-2-15.8,.5-17.8,1.3-35.6,2.6-53.4"/><path class="cls-9" d="M56,368.7c.3-6.6,4-12.6,9.7-15.9l4.4,8.6-.1-10.4c2.1-.6,4.2-.9,6.4-.8,10.7,.5,19,9.6,18.5,20.3-.5,10.7-9.6,19-20.3,18.5-10.8-.4-19.1-9.5-18.6-20.3Z"/><path class="cls-9" d="M90.7,500.5c4.9,9.6,16.6,13.3,26.2,8.4,9.6-4.9,13.3-16.6,8.4-26.2s-16.6-13.3-26.2-8.4c-4.3,2.2-7.6,6-9.3,10.5l12.2,9.9-13.5-3.1c0,3.1,.8,6.1,2.2,8.9Z"/><path class="cls-9" d="M100.3,462.6c10.7,.5,19.8-7.8,20.3-18.5h0c.2-3-.4-6.1-1.7-8.9-2.4-5.3-6.9-9.2-12.5-10.8l.1,8-4.4-8.7h0c-10.7-.5-19.8,7.8-20.4,18.5-.4,10.8,7.9,19.9,18.6,20.4h0Z"/><path class="cls-9" d="M53.1,431.2c10.7,.7,20-7.4,20.7-18.1,.7-10.7-7.4-20-18.1-20.7h-.8c-3.6-.2-7.2,.7-10.4,2.5l3.4,9.4-7.1-6.8c-3.8,3.5-6.1,8.3-6.3,13.4-.1,1.8,.1,3.6,.5,5.4,2,8.4,9.4,14.5,18.1,14.9Z"/><path class="cls-8" d="M58.6,373.9c4.5,.5,8.8,1.9,13.4,2.2s9.5-.8,12.3-4.3c1.5-1.9,2.3-4.3,3.6-6.3,1.2-1.9,2.9-3.5,4.9-4.6,4.9,9.6,1,21.3-8.6,26.2s-21.3,1-26.2-8.6c-.7-1.5-1.3-3.1-1.7-4.7,.8,0,1.6,0,2.3,.1Z"/><path class="cls-8" d="M53.1,431.2c10.7,.5,19.9-7.8,20.3-18.6,.1-3.2-.5-6.3-1.8-9.2-1.5,1-2.9,2.4-3.9,3.9-1.4,2.1-2.2,4.5-3.9,6.4-3,3.6-8.2,4.7-12.9,4.5s-9.2-1.5-13.9-2c-.7-.1-1.3-.1-2-.1,2,8.6,9.3,14.7,18.1,15.1Z"/><path class="cls-8" d="M100.3,462.6c10.7,.5,19.8-7.8,20.3-18.5h0c.2-3-.4-6.1-1.7-8.9-1.6,1.1-3,2.4-4.1,4-1.5,2.1-2.5,4.6-4.2,6.6-3.3,3.7-8.8,4.9-13.8,4.8-4.8-.1-9.5-1.3-14.2-1.7,2.4,7.9,9.5,13.4,17.7,13.7Z"/><path class="cls-8" d="M90.7,500.5c4.9,9.6,16.6,13.4,26.2,8.5,8.9-4.5,12.9-15.1,9.3-24.4-1.6,1.1-3,2.3-4.3,3.8-1.9,2.3-3.1,4.8-5.2,6.9-4,3.9-10.4,5.5-16.1,5.7-3.3,0-6.6-.2-9.9-.5Z"/><path class="cls-10" d="M673.5,444.2c0-4.9-2.3-9.6-6.2-12.5-.2-9.2-6.8-16.7-15.2-17.8-1.3-6.3-5.9-11.5-12.1-13.5h0c-.7-.2-1.5-.4-2.2-.5h-2.6c-8.6,0-15.7,6.6-17.2,15.2-5.5-1.3-10.6,.4-11.5,3.9-.2,.9-.2,1.9,.2,2.8,.9,2.7,4,5.3,8.2,6.6l.5,.2c.3,.1,.5,.1,.8,.2h.2c-3.2,6.8-.5,14.8,6.1,18.3-.1,.1-.2,.1-.4,.2-.5,.5-.9,1-1.2,1.7-1,1.8-1.8,3.6-2.3,5.6-.4,1.7-.5,3.4-1,5.1-.9,3-3.2,5.6-3.5,8.8-.1,1.4,.1,3.1-.9,4.1-.3,.2-.5,.4-.8,.6-.7,.5-1.3,1.1-1.8,1.8-.3,.6-.7,1.2-1.2,1.6-.9,.7-2.4,.6-2.9,1.7s.7,2.3,.4,3.5c-.2,.9-1.2,1.4-2,2-.8,.9-1.4,2-1.7,3.2-3,.6-6.2-.2-8.5-2.2,.4,1,.7,2.1,.9,3.2-1.2-1.3-3.2-1.6-4.6-2.3-1.9-.9-3.5-2.1-4.9-3.6l2.6-.4-11.7-17.7-3.4-.7,3.1,5.9c-.5,.2-.9,.7-1,1.3-.2,.7-.2,1.3-.1,2,.2,1.6,.4,3.1,.8,4.7l.9,4.1c.1,.4,.2,.8,.3,1.2-1.2,0-2.3,.1-3.4,.4-2.3-.9-4.7-1.4-7.1-1.7-.5-.1-1.1-.1-1.6,.1-.6,.3-1.1,.7-1.5,1.2-2,2.3-3.8,4.8-5.3,7.5-6.2,10.8-14.5,20.3-22.3,30.1-5.4,2.2-10.8,4.3-16.2,6.3l-11.7,4.5c-2.3,.9-4.8,1.8-7.2,1.6-1.1-.1-2.5-.2-3.1,.7-.3,.5-.5,1-.7,1.5-.4,0-.8,.1-1.2,.1h-.3c-.7-1.8-1.4-3.8-2.8-5.2-.6,.1-1.1,.5-1.3,1-.3,.5-.5,1.1-.8,1.6-.6,.9-1.7,1.4-2.5,2.2s-1.3,2-2.1,2.8c-1.2,.9-2.6,1.4-4,1.5-2.2,.5-4.3,1.3-6.2,2.4-.7,.4-1.5,.8-2.3,1.1-.9,.2-1.8,.2-2.7,.1l-6.2-.5c-.5-.1-1.1,0-1.6,.1-1.3,.5-2.1,1.8-2,3.2,.2,1.4,.9,2.6,2,3.4,1.1,.8,2.3,1.4,3.5,1.8,5.4,2.1,10.9,3.7,16.5,4.8v1.2c3.9,2,8.2,3,12.6,3,.3,0,.6,0,.9-.2,.4-.3,.7-.7,.8-1.2,1.3-3.9,2.1-8,2.5-12.1h0c.8,0,1.5-.2,2.2-.6,2.1-.6,4.2,.9,6.4,1.1,2.7,.3,5.2-1.3,7.8-2.2,.4-.1,.7-.3,1.1-.4-.7,.9-1.6,1.8-2.5,2.5-1.1,.8-2.2,1.3-3.3,2.1-.9,.8-1.8,1.5-2.8,2.2-.7,.3-1.4,.6-2.1,.8-1.1,.4-2.1,.9-3,1.5-.8,.5-1.6,1.2-2.1,2-.9,1.2-.6,2.9,.7,3.8,.4,.2,.8,.4,1.2,.5,.8,.1,1.7,.2,2.5,.1,3.3-.2,6.7-.6,10-.9,1.4-.1,2.8-.3,4.2-.6,.7-.2,1.5-.4,2.2-.6,1.2-.3,2.5-.5,3.8-.6,.4,0,.7,0,1.1,.1,.8,.2,1.3,1,2.1,1.2,.5,0,1,0,1.5-.2,2.4-.5,4.9-.8,7.4-.8,1.1-.1,2.4-.3,2.9-1.3,.6-1.2-.4-2.7-.8-4-.2-.9-.3-1.7-.3-2.6-.2-2.2-.8-4.3-1.8-6.2-.5-.9-1-1.9-1.4-2.8,4.8-1.8,9.4-4.1,13.6-6.9,2.5-1.5,5-3.2,7.8-3.7,3.2-.7,6.6,.2,9.8,1.1,7.6,2.2,15.1,4.8,22.4,7.8,3.5,1.4,7,3,10.6,4,1,1.4,2.3,2.6,3.8,3.7,2.4,1.5,5.3,2,8.2,2.2,3.8,.3,7.6,.5,11.5,.4,2.9,0,5.9-.2,8.5-1.6,.6-.3,1.2-.7,1.8-1.2,2,.4,4-.7,5.6-2.1,2.1-1.8,3.6-4.1,4.3-6.8,.9-3.6,.2-7.8,2.4-10.8,.6-.8,1.4-1.4,1.9-2.2,.7-1.1,1.1-2.3,1-3.6l.1-.2c.5-1.2,.8-2.4,1-3.6,.3-1,.6-1.9,1-2.9,1.1-2.8,2.1-5.6,2.9-8.5,.6-1.9,1-3.9,1.4-5.8,.2-1.6,.4-3.2,.5-4.8,.2-2.5,.6-4.9,1.4-7.3,2-5.6,3.1-11.5,3.3-17.5v-.3c6-.7,10.5-5.8,10.5-11.8,0-1.8-.4-3.5-1.1-5.1,1.3-2.7,2-5.4,2-8.2Zm-56.5,68.7c.2,.6,.4,1.2,.6,1.8l-2.8-2.8c.4,.1,.7,.2,1.1,.4,.3,.2,.7,.4,1.1,.6h0Zm-4.5-3c-5.5-4.7-11.8-8.4-17.4-13,3,1.5,6,3.3,9,4.9,3.5,2,7,3.9,10.6,5.7-.6,1-1.3,1.8-2.2,2.4h0Zm2.3-11.9l.3-.3v1.9c-.5-.2-1-.3-1.5-.5,.4-.4,.8-.8,1.2-1.1h0Zm-48.1,12.8c2.2-2.5,4.2-5.3,5.8-8.3,2.2,3.8,5.7,6.5,8.7,9.7-4.8-.7-9.6-1.2-14.5-1.4h0Z"/><polygon class="cls-1" points="574.5 464.7 578 465.4 589.7 482.8 584.5 483.5 574.5 464.7"/><path class="cls-4" d="M491,535.2c.9,3.1,2.1,6.1,3.4,9,3.9-.8,7.7-1.9,11.5-3.3-.7-1.1-1.5-2.2-2.4-3.2s-2-1.9-3.2-2.5c-1.2-.5-2.7-.1-3.9-.1-1.9,.1-3.6,.1-5.4,.1Z"/><path class="cls-1" d="M500.3,539.8c-1.9-.6-3.1-2.6-3.9-4.5s-1.4-4-2.9-5.3c-.6,.1-1.1,.5-1.3,1-.3,.5-.5,1.1-.8,1.5-.6,.9-1.7,1.3-2.5,2.1s-1.3,1.9-2.1,2.7c-1.2,.8-2.6,1.4-4,1.5-2.2,.5-4.3,1.3-6.3,2.3-.7,.4-1.5,.8-2.3,1-.9,.2-1.8,.2-2.7,.1l-6.2-.5c-.6-.1-1.1,0-1.7,.1-1.3,.5-2.1,1.7-2,3.1,.2,1.3,.9,2.6,2,3.3,1.1,.8,2.3,1.4,3.5,1.8,5.4,2,11,3.6,16.7,4.8v1.2c4,2,8.3,3,12.7,3,.3,0,.7,0,1-.2,.4-.3,.7-.7,.8-1.2,1.5-4.4,2.4-8.9,2.6-13.5,.1-1.2,0-2.3-.3-3.5-.4-.9,.8-.4-.3-.8"/><path class="cls-1" d="M619.7,516.3c-18.5,1.1-36.7-4.3-55.2-4.9-2.3-.1-4.6,0-6.9,.4-2.4,.6-4.6,1.5-6.8,2.6-9.9,4.6-20.2,8.4-30.4,12.2l-11.8,4.4c-2.4,.9-4.8,1.8-7.3,1.6-1.1-.1-2.5-.2-3.1,.7-1.9,2.8-1,7,.3,10.2,.4,1,1.1,2.2,2.2,2.3,.8-.1,1.5-.2,2.2-.6,2.1-.6,4.3,.9,6.5,1.1,2.7,.3,5.3-1.3,7.8-2.2,4.3-1.6,8.9-1.5,13.4-2.3,7.5-1.2,14.5-4.7,21-8.7,2.5-1.5,5-3.1,7.8-3.7,3.3-.6,6.6,.2,9.8,1.1,7.7,2.2,15.2,4.7,22.6,7.7,3.8,1.7,7.8,3.1,11.8,4.3,8.8,2.3,18,1.8,26.4-1.5,3-1.2,6.2-3.2,6.3-6.4,.1-1.8-1.3-3.4-2.2-5-.6-1-1.2-2-1.9-3-3-4.5-6.9-10.6-12.5-10.3Z"/><path class="cls-8" d="M619.7,516.3c-18.5,1.1-36.7-4.3-55.2-4.9-2.3-.1-4.6,0-6.9,.4-2.4,.6-4.6,1.5-6.8,2.6-9.9,4.6-20.2,8.4-30.4,12.2l-11.8,4.4c-2.4,.9-4.8,1.8-7.3,1.6-1.1-.1-2.5-.2-3.1,.7-1.9,2.8-1,7,.3,10.2,.4,1,1.1,2.2,2.2,2.3,.8-.1,1.5-.2,2.2-.6,2.1-.6,4.3,.9,6.5,1.1,2.7,.3,5.3-1.3,7.8-2.2,4.3-1.6,8.9-1.5,13.4-2.3,7.5-1.2,14.5-4.7,21-8.7,2.5-1.5,5-3.1,7.8-3.7,3.3-.6,6.6,.2,9.8,1.1,7.7,2.2,15.2,4.7,22.6,7.7,3.8,1.7,7.8,3.1,11.8,4.3,8.8,2.3,18,1.8,26.4-1.5,3-1.2,6.2-3.2,6.3-6.4,.1-1.8-1.3-3.4-2.2-5-.6-1-1.2-2-1.9-3-3-4.5-6.9-10.6-12.5-10.3Z"/><path class="cls-4" d="M526.4,536.1c2.9,1,5.8,1.9,8.7,2.7,1.7-2.7,4.7-4.6,5.4-7.7v-.4l-.3-.3c-2.1-1.2-4.4-1.8-6.8-2-1.9-.1-2.8,1.9-3.6,3.2-.3,.6-2.6,4.7-3.4,4.5Z"/><path class="cls-1" d="M530.5,534.1c-1.7-.3-3.3-1.3-4.2-2.8-.4-.7-.8-1.7-1.7-1.6s-1.1,1-1.3,1.7c-.6,2.8-1.4,5.5-2.4,8.2s-2.8,5-5.1,6.7c-1.1,.7-2.3,1.3-3.3,2.1-.9,.8-1.8,1.5-2.8,2.1-.7,.3-1.4,.6-2.2,.8-1.1,.4-2.1,.9-3.1,1.5-.8,.5-1.6,1.2-2.1,2s-.6,1.9-.2,2.8c.4,.7,1.2,1.2,2,1.4,.8,.1,1.7,.2,2.5,.1,3.4-.2,6.7-.5,10.1-.8,1.4-.1,2.8-.3,4.2-.6,.7-.2,1.5-.4,2.2-.6,1.3-.3,2.6-.5,3.8-.6,.4,0,.8,0,1.1,.1,.8,.2,1.3,1,2.1,1.2,.5,.1,1,0,1.5-.2,2.5-.5,5-.8,7.5-.8,1.1-.1,2.4-.3,2.9-1.3,.6-1.2-.4-2.6-.8-3.9-.2-.8-.3-1.7-.3-2.6-.2-2.1-.8-4.2-1.8-6.1-.9-1.6-2-3.3-1.4-5,.3-.5,.5-1.1,.6-1.7-.1-2.7-6.3-1.7-7.8-2.1Z"/><path class="cls-4" d="M592,486.7c-3.3-1.4-5.9-4-7.4-7.3-.3-.7-.6-1.4-.8-2.1-1-2.3-2.5-4.4-4.4-6.1-.4-.5-1-.7-1.6-.7-.6,.2-1.1,.7-1.2,1.3-.2,.7-.2,1.3-.1,2,.2,1.6,.4,3.1,.8,4.6l.9,4.1c.1,.6,.3,1.2,.6,1.8,.4,.7,.9,1.3,1.5,1.8,.8,.8,1.7,1.5,2.5,2.2,.5,.4,1,.8,1.5,1.1,.9,.4,1.8,.7,2.8,.8,3.7,.7,7.4,1.7,10.5,4,0,0,0-2.7-.1-3,0-.8-.3-1.6-.8-2.2-1.2-1.3-3.2-1.6-4.7-2.3Z"/><path class="cls-8" d="M592,486.7c-3.3-1.4-5.9-4-7.4-7.3-.3-.7-.6-1.4-.8-2.1-1-2.3-2.5-4.4-4.4-6.1-.4-.5-1-.7-1.6-.7-.6,.2-1.1,.7-1.2,1.3-.2,.7-.2,1.3-.1,2,.2,1.6,.4,3.1,.8,4.6l.9,4.1c.1,.6,.3,1.2,.6,1.8,.4,.7,.9,1.3,1.5,1.8,.8,.8,1.7,1.5,2.5,2.2,.5,.4,1,.8,1.5,1.1,.9,.4,1.8,.7,2.8,.8,3.7,.7,7.4,1.7,10.5,4,0,0,0-2.7-.1-3,0-.8-.3-1.6-.8-2.2-1.2-1.3-3.2-1.6-4.7-2.3Z"/><circle class="cls-1" cx="629.6" cy="451" r="4.5"/><path class="cls-1" d="M626.8,448.3c-1.2-.3-2.5-.1-3.5,.5-.5,.5-.9,1-1.2,1.7-1,1.7-1.8,3.6-2.3,5.5-.4,1.7-.5,3.4-1,5-.9,3-3.3,5.5-3.5,8.7-.1,1.4,.1,3-.9,4-.3,.2-.5,.4-.8,.6-.7,.5-1.3,1.1-1.8,1.8-.3,.6-.7,1.2-1.2,1.7-.9,.7-2.4,.6-2.9,1.7s.7,2.3,.4,3.4c-.2,.9-1.3,1.4-2,2-.8,.9-1.4,2-1.7,3.2-3,.6-6.2-.2-8.6-2.2,1.2,3.1,1.3,6.5,1.3,9.8,.1,1.1-.1,2.1-.8,3,3.6,.1,7.1,1,10.5,1.8,1.5,.5,3.1,.5,4.6,0,.8-.4,1.5-1,2.1-1.7,1.9-1.9,3.9-4,4.3-6.7,.1-1.5,.1-3,.1-4.5,.2-1.9,.6-3.7,1.2-5.5,1-3.7,1.7-7.5,2-11.3,.2-2.4,2.2-4.3,3.3-6.4,2-4,4.1-8.2,4.3-12.6,.1-1.6-.4-3.3-1.9-3.5Z"/><path class="cls-8" d="M626.8,448.3c-1.2-.3-2.5-.1-3.5,.5-.5,.5-.9,1-1.2,1.7-1,1.7-1.8,3.6-2.3,5.5-.4,1.7-.5,3.4-1,5-.9,3-3.3,5.5-3.5,8.7-.1,1.4,.1,3-.9,4-.3,.2-.5,.4-.8,.6-.7,.5-1.3,1.1-1.8,1.8-.3,.6-.7,1.2-1.2,1.7-.9,.7-2.4,.6-2.9,1.7s.7,2.3,.4,3.4c-.2,.9-1.3,1.4-2,2-.8,.9-1.4,2-1.7,3.2-3,.6-6.2-.2-8.6-2.2,1.2,3.1,1.3,6.5,1.3,9.8,.1,1.1-.1,2.1-.8,3,3.6,.1,7.1,1,10.5,1.8,1.5,.5,3.1,.5,4.6,0,.8-.4,1.5-1,2.1-1.7,1.9-1.9,3.9-4,4.3-6.7,.1-1.5,.1-3,.1-4.5,.2-1.9,.6-3.7,1.2-5.5,1-3.7,1.7-7.5,2-11.3,.2-2.4,2.2-4.3,3.3-6.4,2-4,4.1-8.2,4.3-12.6,.1-1.6-.4-3.3-1.9-3.5Z"/><path class="cls-1" d="M622.6,520.2c-3.8-1.8-6.7-5.2-9.8-8.2-5.9-5.6-13.2-9.5-19.4-14.8-4.1-3.5-7.8-7.5-12.4-10.4-4-2.6-8.5-4.1-13.3-4.7-.5-.1-1.1-.1-1.6,.1-.6,.3-1.1,.7-1.5,1.2-2,2.3-3.8,4.7-5.3,7.3-7.9,13.4-19.1,24.7-28.5,37.2-.6,.6-.7,1.6-.1,2.3l1.9,3.7c1.1,2.1,2.8,4.5,5,4.1,1-.3,1.9-.9,2.7-1.7l8.5-8.1,8.9-8.5c5.2-5,10.5-10.1,13.9-16.5,2.7,4.6,7.4,7.6,10.6,11.9,1.2,1.6,2.2,3.4,3.3,5.1,1.8,2.7,3.8,5.3,5.8,7.8l10.2,13c1.3,1.9,2.9,3.5,4.7,4.8,2.4,1.5,5.4,1.9,8.2,2.2,3.8,.4,7.7,.5,11.5,.4,2.9,0,6-.2,8.6-1.5s4.8-4,4.7-6.9c-.2-1.5-.7-3-1.5-4.3-3.4-6.6-8.2-12.2-15.1-15.5Z"/><circle class="cls-5" cx="632.4" cy="454.1" r="3.5"/><path class="cls-4" d="M631.6,451.5c.8,1.6,.9,3.3,.4,5-.5,1.6-1.3,3.2-2.2,4.6-.8,1.5-1.8,2.9-2.9,4.1,5.3,.3,10.5-1.8,15.2-4.4,3.8-2,7.6-4.5,9.6-8.4-1.2,.3-2.5,.1-3.5-.7-1-.7-1.9-1.6-2.7-2.5l-2.7-3c-.6-.7-1.2-1.4-1.7-2.2-.6-1.1-.8-2.3-.7-3.5-1.1,1.1-2.3,2.1-3.5,2.9-1.9,1.2-4,2.2-5.9,3.4-.7,.4-2.2,1.2-1.8,2s1.9,1.8,2.4,2.7Z"/><path class="cls-8" d="M631.6,451.5c.8,1.6,.9,3.3,.4,5-.5,1.6-1.3,3.2-2.2,4.6-.8,1.5-1.8,2.9-2.9,4.1,5.3,.3,10.5-1.8,15.2-4.4,3.8-2,7.6-4.5,9.6-8.4-1.2,.3-2.5,.1-3.5-.7-1-.7-1.9-1.6-2.7-2.5l-2.7-3c-.6-.7-1.2-1.4-1.7-2.2-.6-1.1-.8-2.3-.7-3.5-1.1,1.1-2.3,2.1-3.5,2.9-1.9,1.2-4,2.2-5.9,3.4-.7,.4-2.2,1.2-1.8,2s1.9,1.8,2.4,2.7Z"/><path class="cls-5" d="M631.7,452c-1.1,1.6-1.1,3.6,0,5.2,.2,.2,.7,1.4,1,1.4,.2,0,.5-.1,.6-.3,1.2-1.3,2.3-2.6,3.4-4,1.1-1.4,2.6-2.4,4.3-2.8,2.1-.3,4.1,.8,5.9,1.8,.8,.4,1.5,1,2,1.7,.4,.7,.6,1.5,.7,2.3,.5,4.8,.7,9.6,.6,14.4,.1,3.5-.1,6.9-.7,10.3-.3,1.8-.8,3.5-1.1,5.3-.2,1.6-.2,3.1-.2,4.7v6.6c0,1.2,0,2.4,.3,3.6,.4,1.4,.9,2.8,1.5,4.2,.5,1.6,.8,3.3,1,5l.9,6.8c.3,2.2,.5,4.5-.8,6.2-.6,.8-1.4,1.4-2,2.2-2.2,2.9-1.5,7-2.5,10.6-.7,2.6-2.3,4.9-4.3,6.7-1.6,1.3-3.7,2.4-5.7,2-2.8-.5-4.4-3.4-5.2-6.1s-1-5.7-2.7-8c-1.3-1.9-3.4-3.1-5.3-4.4s-3.7-3.1-4.1-5.4c-.2-1-.1-2-.2-3-.3-2.6-2-4.8-4.4-5.8-1.4-.5-3.2-.8-4-2,2-1.3,3.5-3.3,4.2-5.6,.6-2.3,1-4.6,1-7l.5-7.9c.2-3.5,.3-7.1,1.9-10.3,.7-1.4,1.6-2.8,2.3-4.2,1-2,1.8-4,2.5-6.1,1.1-3.2,2.3-6.5,3.3-9.8,.4-1.6,1-3.1,1.8-4.6,.7-1.6,1.9-3.4,3.5-3.7Z"/><path class="cls-1" d="M614.1,503.6l2.1,.1,.5-3.2c.1-.6,.2-1.3,.4-1.8,.3-.6,.8-1.2,1.2-1.8,2.1-2.9,1.9-6.8,2.4-10.3,.7-4.7,2.7-9.2,4.6-13.5l4.1-9.1c.4-.7,.7-1.5,.9-2.3,.2-.9,.3-1.8,.2-2.7,0-1.4,.5-6.5,.5-7.9,0-.5-1.1-.2-1.4-.7-.5-1-1.2,1.7-2.2,2.3-.9,.7-1.6,1.7-1.9,2.8-.9,2.3-1.4,4.7-2.2,7-.7,2.4-2,4.5-3.8,6.2-.8,.7-1.8,1.3-2.6,2.1-2.5,2.5-2.8,6.5-2.9,10,0,2.1-.4,22.8,.1,22.8Z"/><path class="cls-1" d="M644.3,448.2c-2,.8-3.2,3-3.7,5.1s-.8,4.4-1.9,6.3c-2.6,4.5-9.1,5.8-10.9,10.6-.5,1.6-.7,3.3-.7,5-.3,3.5-1.5,6.8-1.8,10.2-.2,2.7-.1,5.4,.2,8l2.3,27.2c.4,4,.2,8.1-.7,12,2.3,.3,4.7-.1,6.9-1.1s4.1-2.3,6.2-3.5c3.5-2,7.5-3.3,10.6-6,.6-.4,1-1,1.4-1.6,.5-1.1,.8-2.4,1-3.6,.3-1,.6-1.9,1-2.8,1.1-2.7,2.1-5.5,3-8.4,.6-1.9,1-3.8,1.4-5.8,.2-1.5,.4-3.1,.5-4.7,.2-2.5,.6-4.9,1.5-7.2,2-5.5,3.1-11.4,3.3-17.2,.1-.9,0-1.7-.2-2.5-.3-1-.8-2-1.4-2.9-1-1.8-1.5-3.8-2.4-5.6-2-4.1-5.6-7.2-9.3-9.8-2.1-1.1-4.2-2.4-6.3-1.7Z"/><path class="cls-4" d="M596.6,492.7c-1.6-.8-3.1-2-4.3-3.3-.6-.7-1-1.4-1.6-2.1-1.5-1.6-3.4-2.7-5.5-3.1-2.1-.5-4.2-.7-6.3-.6-1.4-.1-2.9,.1-4.2,.5-1.4,.5-2.4,1.6-2.8,3-.3,1.7,.8,3.3,2.1,4.4,1.2,1,2.7,1.7,4.2,2.1,1.3,.2,2.6,.4,3.8,.5,7.6,.8,14.3,4.9,20.9,8.7,5.8,3.3,11.8,6.4,17.8,9.2,.2-1.8,.3-3.6,.3-5.5,0-1.4-.1-3.4-1.4-4.2-1.5-.9-4-1.2-5.7-1.7-3.9-1.3-7.7-2.8-11.4-4.6-2-1.1-4-2.2-5.9-3.3Z"/><circle class="cls-4" cx="629.6" cy="436.4" r="13.5"/><path class="cls-1" d="M648.2,463.6c-1.1,1.5-1.9,3.1-2.6,4.9-1.7,3.4-4.3,6.4-5.6,10-1.4,3.8-1.3,8.3-4,11.2-.5,.5-.9,1-1.2,1.7,0,.4-.1,.8-.1,1.2-.4,1.1-2.2,1.1-2.5,2.2-.1,.3,0,.7-.2,1-.3,.7-1.2,.8-1.8,1.2-1.3,.9-1,3-2,4.2-.8,1-2.1,1.4-3.4,1.2-1.2-.3-2.4-.7-3.5-1.3-.4-.2-.8-.3-1.2-.4-.5,0-1,.2-1.5,.5-2.5,1.6-3.7,4.7-3.6,7.7,.2,3,.9,5.9,2.1,8.6,.1,.5,.4,.9,.7,1.3,.8,.9,2.3,.7,3.4,.2,1-.6,2.1-1.1,3.3-1.5,2.1-.4,4.1,1.1,6.2,.9,1.5-.2,3-.9,4.2-1.9,2.1-1.3,4.1-2.9,5.7-4.8,.9-1.2,1.6-2.6,2.4-3.9,1-1.6,2.2-3.1,3.4-4.5l7.8-9.5c.8-.9,1.5-1.9,2.1-2.9,.7-1.4,1.2-2.8,1.6-4.3,.8-2.5,1.4-5.1,1.6-7.7,0-2.2-.2-4.4-.6-6.5-.3-2.1-.8-4.2-1.7-6.2-1.8-3.4-5.9-6.3-9-2.6Z"/><path class="cls-6" d="M675.2,446c0-4.9-2.3-9.5-6.2-12.3-.1-8.8-6.6-16.2-15.3-17.5-1.9-9.5-11.1-15.6-20.6-13.7-7.2,1.5-12.8,7.3-13.9,14.6-5.6-1.3-10.7,.4-11.7,3.8-1,3.6,3,7.8,8.9,9.4,1.9,.5,3.8,.7,5.7,.6,2.8,4.1,7.2,6.8,12.1,7.5,1.5,6.7,6.5,11.9,13.2,13.6,.9,2.2,2.3,4.1,4.1,5.6,0,.4-.1,.8-.1,1.3-.3,6.3,4.6,11.6,10.9,11.9,6.3,.3,11.6-4.6,11.9-10.9v-1c0-1.7-.4-3.4-1.1-5,1.4-2.5,2.1-5.2,2.1-7.9Z"/><path class="cls-8" d="M611.3,421.5c.9-3.5,6-5.1,11.7-3.8,1.4-8.6,8.7-14.9,17.3-15h1.2c-1.6-.5-3.3-.7-5-.7-8.7,.1-16,6.4-17.3,15-5.6-1.3-10.7,.4-11.7,3.8-1,3.6,3,7.8,8.9,9.4,1.1,.3,2.2,.5,3.4,.6-5.6-1.6-9.4-5.7-8.5-9.3Z"/><path class="cls-8" d="M655.2,459.5c0-.4,0-.9,.1-1.3-1.8-1.5-3.2-3.4-4.1-5.6-6.6-1.7-11.7-6.9-13.2-13.6-4.9-.7-9.3-3.4-12.1-7.5-1.1,.1-2.2,.1-3.4-.1,2.8,3.8,7,6.2,11.6,6.9,1.5,6.7,6.5,11.9,13.2,13.6,.9,2.2,2.3,4.1,4.1,5.6,0,.4-.1,.8-.1,1.3-.1,6.4,5,11.7,11.3,11.8-4.5-1.7-7.5-6.2-7.4-11.1Z"/><ellipse class="cls-4" cx="634.11" cy="439.18" rx="2.1" ry="2.8" transform="translate(-136.49 473.04) rotate(-37.22)"/><path class="cls-9" d="M313.8,508.8l13.3-7.8c-1.8-3.1-4.1-5.8-6.8-8.2l-25.1,7.8,19.7-11.6c-15.5-8.5-34.9-2.8-43.4,12.7-2.6,4.7-3.9,10-3.9,15.4,0,17.7,14.3,18.3,32,18.3s32-.6,32-18.3c0-4.5-.9-8.9-2.8-13l-15,4.7Z"/><path class="cls-8" d="M317.2,526c-1.4-1.4-3-2.7-4.7-3.7-2.4-1.6-4.9-3.2-7.8-3.8-2.5-.5-5.1-.1-7.6-.2-4.4-.3-8.6-2.2-11.7-5.4-1.8-1.9-3.2-4.2-5.4-5.6-2.4-1.5-5.3-2-8.1-1.5-.8,.1-1.6,.3-2.4,.5-1.3,3.5-1.9,7.2-1.9,10.9,0,17.7,14.3,18.3,32,18.3,8.6,0,16.4-.1,22.1-2.3l-1-1.8c-1-2-2.1-3.8-3.5-5.4Z"/></svg>