<svg xmlns="http://www.w3.org/2000/svg" xmlns:xlink="http://www.w3.org/1999/xlink" width="299" height="199" viewBox="0 0 299 199">
  <defs>
    <clipPath id="clip-path">
      <rect id="Rectangle_4" data-name="Rectangle 4" width="299" height="199" transform="translate(1048 426)" fill="#fff" opacity="0"/>
    </clipPath>
  </defs>
  <g id="layers" transform="translate(-1048 -426)">
    <g id="Mask_Group_2" data-name="Mask Group 2" clip-path="url(#clip-path)">
      <circle id="Ellipse_5" data-name="Ellipse 5" cx="230" cy="230" r="230" transform="translate(1048 296)" fill="#fff" opacity="0.1"/>
      <circle id="Ellipse_6" data-name="Ellipse 6" cx="165" cy="165" r="165" transform="translate(1113 361)" fill="#fff" opacity="0.1"/>
      <circle id="Ellipse_7" data-name="Ellipse 7" cx="109" cy="109" r="109" transform="translate(1169 417)" fill="#fff" opacity="0.1"/>
      <circle id="Ellipse_8" data-name="Ellipse 8" cx="64" cy="64" r="64" transform="translate(1214 462)" fill="#fff" opacity="0.1"/>
    </g>
    <g id="OfferBadge" transform="translate(1652 350.575)" opacity="0.65">
      <path id="Path_1636" data-name="Path 1636" d="M-195.241,393.831a9.861,9.861,0,0,1-12.928,12.928,9.883,9.883,0,0,1-18.291,0,9.861,9.861,0,0,1-12.928-12.928,9.883,9.883,0,0,1,0-18.291,9.861,9.861,0,0,1,12.928-12.928,9.883,9.883,0,0,1,18.291,0,9.861,9.861,0,0,1,12.928,12.928A9.883,9.883,0,0,1-195.241,393.831Zm-13.615,6.4a7,7,0,0,1-7.014-7.014,7,7,0,0,1,7.014-7.014,7.043,7.043,0,0,1,7.014,7.014A6.956,6.956,0,0,1-208.857,400.226Zm0-11.346a4.285,4.285,0,0,0-4.263,4.263,4.226,4.226,0,0,0,4.263,4.195,4.211,4.211,0,0,0,4.195-4.195A4.226,4.226,0,0,0-208.857,388.88Zm-19.735,5.02,20.492-20.492,2.063,2.063-20.492,20.492Zm2.819-10.59a7,7,0,0,1-7.014-7.014,7,7,0,0,1,7.014-7.014,7.043,7.043,0,0,1,7.014,7.014A7,7,0,0,1-225.773,383.31Zm0-11.277a4.211,4.211,0,0,0-4.195,4.195,4.257,4.257,0,0,0,4.195,4.195,4.271,4.271,0,0,0,4.263-4.195A4.271,4.271,0,0,0-225.773,372.033Z" transform="translate(-156.475 -209.05)" fill="#fff" fill-rule="evenodd"/>
    </g>
  </g>
</svg>
