<svg xmlns="http://www.w3.org/2000/svg" width="534.66" height="303.703" viewBox="0 0 534.66 303.703">
  <g id="Group_36" data-name="Group 36" transform="translate(-143.021 -162.103)">
    <g id="Group_35" data-name="Group 35" transform="translate(143.021 162.103)">
      <path id="Path_1" data-name="Path 1" d="M209.36,617.242s-59.532-63.919-10.068-133.12c43.888-61.4,95.058-57.2,132.6-32.286,15.99,10.612,62.09,1.308,101.326-61.169,53.508-85.2,238.988-33.526,205.169,97.558-16.366,63.436,49.808,65.741,16.09,129.151Z" transform="translate(-172.852 -314.303)" fill="#ebf3fa"/>
      <path id="Path_2" data-name="Path 2" d="M2489.089,1288.08c-4.192-15.478-30.31-10.641-30.31-10.641s-17.735,27.086-22.895,27.731,10.641-26.119,10.641-26.119c-10-.967-35.47,11.286-35.47,11.286s1.612,31.6-3.547,30.956,0-28.054,0-28.054c-9.674,2.9-18.7,14.188-18.7,14.188-11.285,18.38,12.9,31.923,12.9,31.923s.323,10.963-6.449,23.539h0a37.31,37.31,0,0,0-3.081,6.268h2.637q.323-1.061.716-2.047a.017.017,0,0,1,0-.012l.012-.028c.181-.407.441-.987.764-1.694v0s0,0,0,0c.806-1.577,1.35-2.742,1.694-3.583a.023.023,0,0,0,0-.008c2.414-4.951,5.892-11.4,8.212-12.755a5.111,5.111,0,0,1-.564-1.21l.564,1.21c4.514,9.674,27.086,11.286,39.662,8.706s7.094-6.127.322-11.884-20.96-4.239-25.151-6.5,1.935-4.514,10.319-3.869,12.576,9.029,26.119,10.318,23.862-24.184,23.862-24.184c-9.351,2.9-26.119-2.258-26.764-5.482s24.184-2.9,28.053-3.869S2493.281,1303.558,2489.089,1288.08Z" transform="translate(-1969.817 -1069.985)" fill="#dfebfd"/>
      <path id="Path_3" data-name="Path 3" d="M902.376,1331.152s1.153,9.195-.571,9.3-.546-10.338-.546-10.338-8.2-4.583-11.533-4.465c0,0,4.695,9.2,3,8.879s-7.028-9.663-7.028-9.663-8.564-2.136-10.269,2.912.383,7.752,1.646,8.151,9.5.8,9.225,1.855-5.945,2.426-8.987,1.273c0,0,2.9,8.658,7.421,8.506s6.079-2.847,8.872-2.89,4.779.83,3.343,1.494-6.11-.129-8.474,1.642-4.253,2.836-.135,3.948,11.637,1.037,13.331-2.08l.212-.39a1.694,1.694,0,0,1-.212.39c.742.5,1.764,2.707,2.464,4.4.1.286.254.685.49,1.226h0c.094.244.169.443.221.583,1.244,3.769.075,10.073.075,10.073l.876.294a14.84,14.84,0,0,0-.773-11.752,17.1,17.1,0,0,1-1.659-7.938s8.3-4,4.928-10.324C908.29,1336.238,905.525,1332.312,902.376,1331.152Z" transform="translate(-739.057 -1108.834)" fill="#afcdfb"/>
      <path id="Path_4" data-name="Path 4" d="M688.972,1505.984c-.743-11.341,17.882-14.095,17.882-14.095s18.112,14.091,21.719,13.339-13.132-15.071-13.132-15.071c6.481-2.944,26.376-.576,26.376-.576s6.175,21.56,9.486,19.943-6.441-18.811-6.441-18.811c7.153-.275,15.8,5.219,15.8,5.219,11.788,9.734-1.319,24.368-1.319,24.368a36.461,36.461,0,0,0,9.729,14.3h0a26.464,26.464,0,0,1,3.506,3.5l-1.769.606q-.46-.637-.95-1.208a.011.011,0,0,0-.006-.007l-.014-.017c-.215-.232-.522-.561-.9-.96h0l0,0c-.9-.873-1.535-1.529-1.959-2.014l0,0c-2.756-2.766-6.569-6.293-8.435-6.668a3.613,3.613,0,0,0,.1-.941c-.032.3-.065.613-.1.941-.806,7.523-15.571,13.787-24.6,14.945s-6.163-2.479-2.945-7.895,13.081-7.655,15.374-10.131-2.334-2.583-7.808-.225-6.36,8.942-15.145,12.916-21.553-10.738-21.553-10.738c6.937-.2,17-7.51,16.688-9.821s-16.883,3.607-19.7,3.846S689.715,1517.325,688.972,1505.984Z" transform="translate(-587.692 -1242.628)" fill="#cde0fb"/>
      <g id="Group_1" data-name="Group 1" transform="translate(445.347 51.835)">
        <path id="Path_5" data-name="Path 5" d="M2548.824,449.681a7.382,7.382,0,0,1-2.5-3.739,6.689,6.689,0,0,1,.652-3.843l-2.66-.53s-.788,3.53.546,5.877a6.732,6.732,0,0,0,2.357,2.08A2.3,2.3,0,0,0,2548.824,449.681Z" transform="translate(-2544.086 -441.569)" fill="#6bb7bf"/>
        <path id="Path_6" data-name="Path 6" d="M2557.963,475.462l2.419,2.769s-6.84,1.817-10.75-3.023C2549.632,475.208,2555.391,477.155,2557.963,475.462Z" transform="translate(-2548.604 -468.969)" fill="#86d1cd"/>
      </g>
      <g id="Group_2" data-name="Group 2" transform="translate(327.502 19.004)">
        <path id="Path_7" data-name="Path 7" d="M1919.5,269.129a4.877,4.877,0,0,1,6.825-1.59l2.386-2.6s-2.492-1.651-7.764,1.939C1917.5,269.23,1919.5,269.129,1919.5,269.129Z" transform="translate(-1917.031 -264.564)" fill="#f99746"/>
        <path id="Path_8" data-name="Path 8" d="M1908.763,276.757s-.83-4.467,6.525-7.763c0,0-2.639,1.5-3.189,6.038Z" transform="translate(-1908.734 -268.172)" fill="#f99746"/>
      </g>
      <g id="Group_3" data-name="Group 3" transform="translate(172.373 148.95)">
        <path id="Path_9" data-name="Path 9" d="M1077.643,972.777a4.429,4.429,0,0,1-2.455-5.873l-2.686-1.745s-1.1,2.482,2.909,6.661C1078.036,974.555,1077.643,972.777,1077.643,972.777Z" transform="translate(-1072.363 -965.159)" fill="#5685d8"/>
        <path id="Path_10" data-name="Path 10" d="M1087.361,994.224s-3.876,1.418-7.938-4.671c0,0,1.738,2.137,5.889,1.944Z" transform="translate(-1078.114 -985.028)" fill="#739af0"/>
      </g>
      <path id="Path_11" data-name="Path 11" d="M1163.644,690.293s2.231-1.409,2.466-3.112c0,0,2.173.117,2.643.822,0,0-1,2.819-2.173,3.347C1166.58,691.351,1163.938,691.527,1163.644,690.293Z" transform="translate(-974.34 -589.79)" fill="#f1a34f"/>
      <path id="Path_12" data-name="Path 12" d="M350,1238.592s-2.381-1.5-2.631-3.32c0,0-2.318.125-2.819.877,0,0,1.065,3.007,2.318,3.571C346.869,1239.72,349.688,1239.908,350,1238.592Z" transform="translate(-307.172 -1036.222)" fill="#f1a34f"/>
      <path id="Path_13" data-name="Path 13" d="M1778.669,517.161s-3.325-2.1-3.675-4.638c0,0-3.237.175-3.937,1.225,0,0,1.488,4.2,3.238,4.988C1774.293,518.736,1778.231,519,1778.669,517.161Z" transform="translate(-1469.09 -447.527)" fill="#86d1cd"/>
      <g id="Group_11" data-name="Group 11" transform="translate(389.557 56.077)">
        <path id="Path_14" data-name="Path 14" d="M2367.475,468.228l20.671,64.718a5.468,5.468,0,0,1-3.534,6.851L2271.08,576.059a5.468,5.468,0,0,1-6.851-3.534l-20.67-64.718a5.468,5.468,0,0,1,3.534-6.851l113.532-36.262A5.468,5.468,0,0,1,2367.475,468.228Z" transform="translate(-2243.301 -464.437)" fill="#cde0fb"/>
        <g id="Group_10" data-name="Group 10" transform="translate(9.14 10.583)">
          <path id="Path_15" data-name="Path 15" d="M2413.486,906.185l-30.259,9.664a2.45,2.45,0,0,1-3.071-1.584l-.093-.291a2.45,2.45,0,0,1,1.584-3.071l30.258-9.665a2.451,2.451,0,0,1,3.072,1.584l.093.291A2.45,2.45,0,0,1,2413.486,906.185Z" transform="translate(-2363.743 -830.71)" fill="#afcdfb"/>
          <path id="Path_16" data-name="Path 16" d="M2628.468,837.521l-30.258,9.664a2.451,2.451,0,0,1-3.071-1.585l-.093-.291a2.45,2.45,0,0,1,1.584-3.071l30.258-9.664a2.45,2.45,0,0,1,3.071,1.584l.093.291A2.45,2.45,0,0,1,2628.468,837.521Z" transform="translate(-2538.851 -774.782)" fill="#afcdfb"/>
          <g id="Group_4" data-name="Group 4" transform="translate(47.599 17.685)">
            <path id="Path_17" data-name="Path 17" d="M2555.209,727.446a5.908,5.908,0,0,1,.29,2.9,2.677,2.677,0,0,1-4.484,1.432,7.027,7.027,0,0,1-1.739-5.409,2.7,2.7,0,0,1,4.5-1.439A5.939,5.939,0,0,1,2555.209,727.446Zm-1.389.438a5.86,5.86,0,0,0-.792-1.668q-.7-.943-1.523-.68-.843.269-.861,1.43a5.649,5.649,0,0,0,.315,1.832q.9,2.824,2.343,2.363.833-.266.844-1.448A5.833,5.833,0,0,0,2553.82,727.884Z" transform="translate(-2549.205 -704.256)" fill="#afcdfb"/>
            <path id="Path_18" data-name="Path 18" d="M2588.706,716.747a5.914,5.914,0,0,1,.29,2.9,2.677,2.677,0,0,1-4.484,1.432,7.032,7.032,0,0,1-1.74-5.409,2.7,2.7,0,0,1,4.505-1.439A5.939,5.939,0,0,1,2588.706,716.747Zm-1.39.438a5.847,5.847,0,0,0-.791-1.668q-.7-.943-1.523-.681a1.33,1.33,0,0,0-.861,1.43,5.682,5.682,0,0,0,.314,1.832q.9,2.823,2.344,2.363.832-.266.843-1.448A5.812,5.812,0,0,0,2587.316,717.185Z" transform="translate(-2576.489 -695.542)" fill="#afcdfb"/>
            <path id="Path_19" data-name="Path 19" d="M2639.469,700.534a5.919,5.919,0,0,1,.29,2.9,2.678,2.678,0,0,1-4.484,1.432,7.028,7.028,0,0,1-1.74-5.409,2.7,2.7,0,0,1,4.5-1.439A5.942,5.942,0,0,1,2639.469,700.534Zm-1.389.438a5.876,5.876,0,0,0-.792-1.669q-.7-.943-1.523-.68-.843.269-.861,1.43a5.636,5.636,0,0,0,.314,1.833q.9,2.824,2.343,2.363.832-.266.843-1.448A5.848,5.848,0,0,0,2638.079,700.972Z" transform="translate(-2617.836 -682.336)" fill="#afcdfb"/>
            <path id="Path_20" data-name="Path 20" d="M2672.965,689.835a5.915,5.915,0,0,1,.29,2.9,2.678,2.678,0,0,1-4.484,1.432,7.026,7.026,0,0,1-1.739-5.409,2.7,2.7,0,0,1,4.5-1.439A5.934,5.934,0,0,1,2672.965,689.835Zm-1.389.438a5.864,5.864,0,0,0-.792-1.668q-.7-.943-1.523-.681-.843.269-.86,1.43a5.655,5.655,0,0,0,.315,1.832q.9,2.824,2.343,2.363.832-.266.843-1.448A5.84,5.84,0,0,0,2671.575,690.273Z" transform="translate(-2645.12 -673.621)" fill="#afcdfb"/>
            <path id="Path_21" data-name="Path 21" d="M2706.461,679.136a5.917,5.917,0,0,1,.29,2.9,2.677,2.677,0,0,1-4.483,1.432,7.035,7.035,0,0,1-1.74-5.409,2.7,2.7,0,0,1,4.5-1.439A5.934,5.934,0,0,1,2706.461,679.136Zm-1.39.438a5.859,5.859,0,0,0-.792-1.668q-.7-.943-1.523-.68-.844.27-.861,1.43a5.682,5.682,0,0,0,.315,1.833q.9,2.824,2.343,2.363.832-.266.843-1.448A5.842,5.842,0,0,0,2705.072,679.574Z" transform="translate(-2672.403 -664.907)" fill="#afcdfb"/>
            <path id="Path_22" data-name="Path 22" d="M2739.958,668.438a5.914,5.914,0,0,1,.29,2.9,2.677,2.677,0,0,1-4.484,1.432,7.029,7.029,0,0,1-1.739-5.409,2.7,2.7,0,0,1,4.5-1.439A5.945,5.945,0,0,1,2739.958,668.438Zm-1.389.438a5.86,5.86,0,0,0-.792-1.668q-.7-.943-1.523-.681a1.329,1.329,0,0,0-.861,1.43,5.632,5.632,0,0,0,.314,1.832q.9,2.824,2.343,2.363.832-.266.843-1.448A5.829,5.829,0,0,0,2738.569,668.876Z" transform="translate(-2699.687 -656.193)" fill="#afcdfb"/>
            <path id="Path_23" data-name="Path 23" d="M2790.72,652.225a5.916,5.916,0,0,1,.289,2.9,2.677,2.677,0,0,1-4.483,1.432,7.03,7.03,0,0,1-1.74-5.409,2.7,2.7,0,0,1,4.506-1.439A5.945,5.945,0,0,1,2790.72,652.225Zm-1.39.438a5.87,5.87,0,0,0-.792-1.668q-.7-.943-1.523-.68-.843.269-.861,1.43a5.648,5.648,0,0,0,.315,1.833q.9,2.824,2.343,2.363.833-.266.844-1.448A5.851,5.851,0,0,0,2789.33,652.663Z" transform="translate(-2741.034 -642.987)" fill="#afcdfb"/>
            <path id="Path_24" data-name="Path 24" d="M2824.217,641.526a5.916,5.916,0,0,1,.29,2.9,2.677,2.677,0,0,1-4.484,1.432,7.025,7.025,0,0,1-1.74-5.409,2.7,2.7,0,0,1,4.5-1.439A5.935,5.935,0,0,1,2824.217,641.526Zm-1.39.438a5.843,5.843,0,0,0-.792-1.668q-.7-.943-1.523-.68-.843.269-.861,1.43a5.653,5.653,0,0,0,.314,1.833q.9,2.824,2.343,2.363.833-.266.843-1.448A5.813,5.813,0,0,0,2822.827,641.964Z" transform="translate(-2768.318 -634.273)" fill="#afcdfb"/>
            <path id="Path_25" data-name="Path 25" d="M2857.714,630.827a5.923,5.923,0,0,1,.29,2.9,2.678,2.678,0,0,1-4.484,1.432,7.03,7.03,0,0,1-1.74-5.409,2.7,2.7,0,0,1,4.5-1.439A5.939,5.939,0,0,1,2857.714,630.827Zm-1.39.438a5.834,5.834,0,0,0-.792-1.668q-.7-.943-1.523-.68a1.329,1.329,0,0,0-.861,1.43,5.649,5.649,0,0,0,.315,1.833q.9,2.824,2.343,2.363.833-.266.843-1.448A5.825,5.825,0,0,0,2856.323,631.265Z" transform="translate(-2795.601 -625.558)" fill="#afcdfb"/>
            <path id="Path_26" data-name="Path 26" d="M2891.21,620.129a5.911,5.911,0,0,1,.29,2.9,2.677,2.677,0,0,1-4.484,1.432,7.033,7.033,0,0,1-1.74-5.409,2.7,2.7,0,0,1,4.505-1.439A5.929,5.929,0,0,1,2891.21,620.129Zm-1.389.438a5.857,5.857,0,0,0-.792-1.668q-.7-.943-1.523-.68-.844.269-.861,1.43a5.667,5.667,0,0,0,.314,1.833q.9,2.824,2.343,2.363.833-.266.843-1.448A5.846,5.846,0,0,0,2889.821,620.567Z" transform="translate(-2822.885 -616.844)" fill="#afcdfb"/>
          </g>
          <path id="Path_27" data-name="Path 27" d="M2325.379,633.463l-29.612,9.458a2.45,2.45,0,0,1-3.071-1.584h0a2.451,2.451,0,0,1,1.584-3.071l29.613-9.458a2.451,2.451,0,0,1,3.071,1.584h0A2.451,2.451,0,0,1,2325.379,633.463Z" transform="translate(-2292.581 -608.81)" fill="#afcdfb"/>
          <g id="Group_9" data-name="Group 9" transform="translate(102.506)">
            <g id="Group_5" data-name="Group 5" transform="translate(0 5.09)">
              <path id="Path_28" data-name="Path 28" d="M2847.452,550.99a3.742,3.742,0,0,0-1.5-1.985.4.4,0,0,0-.579.153l-.094.185a.4.4,0,0,0,.13.508,2.744,2.744,0,0,1,1.038,3.249.4.4,0,0,0,.189.49l.183.1a.4.4,0,0,0,.561-.21A3.738,3.738,0,0,0,2847.452,550.99Z" transform="translate(-2845.237 -548.938)" fill="#afcdfb"/>
            </g>
            <g id="Group_6" data-name="Group 6" transform="translate(0.951 3.285)">
              <path id="Path_29" data-name="Path 29" d="M2853.547,542.451a5.735,5.735,0,0,0-2.531-3.189.4.4,0,0,0-.557.166l-.053.1a.4.4,0,0,0,.155.524,4.842,4.842,0,0,1,1.941,6.076.4.4,0,0,0,.177.517l.1.055a.4.4,0,0,0,.55-.187A5.738,5.738,0,0,0,2853.547,542.451Z" transform="translate(-2850.364 -539.207)" fill="#afcdfb"/>
            </g>
            <g id="Group_7" data-name="Group 7" transform="translate(1.8 1.706)">
              <path id="Path_30" data-name="Path 30" d="M2858.957,534.98a7.5,7.5,0,0,0-3.417-4.234.4.4,0,0,0-.554.168h0a.4.4,0,0,0,.158.525,6.721,6.721,0,0,1,2.759,8.637.4.4,0,0,0,.176.519h0a.4.4,0,0,0,.549-.184A7.507,7.507,0,0,0,2858.957,534.98Z" transform="translate(-2854.943 -530.693)" fill="#afcdfb"/>
            </g>
            <g id="Group_8" data-name="Group 8" transform="translate(2.57)">
              <path id="Path_31" data-name="Path 31" d="M2864.158,526.905a9.407,9.407,0,0,0-4.378-5.359.4.4,0,0,0-.554.169l-.092.182a.4.4,0,0,0,.16.526,8.431,8.431,0,0,1,3.5,10.955.4.4,0,0,0,.175.522l.18.095a.4.4,0,0,0,.549-.184A9.408,9.408,0,0,0,2864.158,526.905Z" transform="translate(-2859.091 -521.495)" fill="#afcdfb"/>
            </g>
          </g>
        </g>
      </g>
      <g id="Group_12" data-name="Group 12" transform="translate(191.858)">
        <rect id="Rectangle_8" data-name="Rectangle 8" width="64.638" height="186.181" transform="translate(175.942 116.062)" fill="#ffa412"/>
        <rect id="Rectangle_9" data-name="Rectangle 9" width="170.765" height="186.181" transform="translate(5.177 116.062)" fill="#ffb93e"/>
        <rect id="Rectangle_10" data-name="Rectangle 10" width="13.031" height="170.765" transform="translate(175.942 207.139) rotate(90)" fill="#ffa412"/>
        <rect id="Rectangle_11" data-name="Rectangle 11" width="13.031" height="64.638" transform="translate(240.58 207.139) rotate(90)" fill="#fa9712"/>
        <path id="Path_32" data-name="Path 32" d="M1836.6,716.877s38.58-25.069,64.8-17.014l-5.41,5.053,2.438,8.491s-29.161-9.5-62.629,4.9Z" transform="translate(-1713.686 -598.821)" fill="#f99746"/>
        <path id="Path_33" data-name="Path 33" d="M1359.379,386.168s-6.807-.823-16.952-2.218c-26.934-3.7-77.383-11.456-86.438-18.628-14.228-11.267,19.488-59.12,34.082-65.762S1359.379,386.168,1359.379,386.168Z" transform="translate(-1238.622 -273.789)" fill="#f99746"/>
        <path id="Path_34" data-name="Path 34" d="M1930.807,214.893c2.432,11.855-107.739,63.07-107.739,63.07s2.005-5.419,5.265-13.907l.01-.014c11.911-31,40.605-102.925,50.034-101.929a11.435,11.435,0,0,1,3.293.979C1896.152,169.464,1928.567,203.976,1930.807,214.893Z" transform="translate(-1703.313 -162.103)" fill="#f99746"/>
        <path id="Path_35" data-name="Path 35" d="M1903.9,173.634c-6.728,11.688-51.694,89.2-52.4,90.409,11.911-31,40.605-102.925,50.034-101.929a6,6,0,0,1,3.293.979C1906.551,164.345,1907.618,167.18,1903.9,173.634Z" transform="translate(-1726.476 -162.103)" fill="#ed7d2b"/>
        <path id="Path_36" data-name="Path 36" d="M1353.52,615.9h-.018c-26.934-3.705-77.383-11.456-86.438-18.628-4.089-11.517,6.52-12.455,14.241-13.266S1353.52,615.9,1353.52,615.9Z" transform="translate(-1249.698 -505.744)" fill="#ed7d2b"/>
        <path id="Path_37" data-name="Path 37" d="M1717.69,722.517s6.176-14.05,18.331-14.828c12.7-.812,19.906,14.828,19.906,14.828Z" transform="translate(-1617.481 -606.469)" fill="#ed7d2b"/>
        <rect id="Rectangle_12" data-name="Rectangle 12" width="178.682" height="25.607" transform="translate(0 116.062)" fill="#ffc261"/>
        <rect id="Rectangle_13" data-name="Rectangle 13" width="67.347" height="25.607" transform="translate(178.682 116.062)" fill="#fa9712"/>
        <path id="Path_38" data-name="Path 38" d="M1381.509,748.785s-35-11.086-58.612-3.757c-27.22,8.448-25.607,42.036-25.607,42.036l6.4-2.632,8.643,4.054s1.458-35.566,23.651-40.545C1355.174,743.637,1381.509,748.785,1381.509,748.785Z" transform="translate(-1275.041 -634.868)" fill="#f99746"/>
        <rect id="Rectangle_14" data-name="Rectangle 14" width="13.031" height="186.162" transform="translate(75.483 116.062)" fill="#ffa412"/>
      </g>
      <g id="Group_15" data-name="Group 15" transform="translate(116.214 42.692)">
        <rect id="Rectangle_15" data-name="Rectangle 15" width="12.618" height="36.344" transform="matrix(0.948, -0.318, 0.318, 0.948, 32.564, 21.488)" fill="#ed7d2b"/>
        <rect id="Rectangle_16" data-name="Rectangle 16" width="33.334" height="36.343" transform="translate(0.958 32.082) rotate(-18.529)" fill="#f99746"/>
        <rect id="Rectangle_17" data-name="Rectangle 17" width="2.544" height="33.334" transform="translate(38.214 38.345) rotate(71.47)" fill="#ffb93e"/>
        <rect id="Rectangle_18" data-name="Rectangle 18" width="2.544" height="12.618" transform="translate(50.178 34.336) rotate(71.47)" fill="#f69b34"/>
        <path id="Path_39" data-name="Path 39" d="M897.627,484.543s8.216-7.646,15.53-8.238l-1.046,1.354,1.214,1.366a35.028,35.028,0,0,0-15.805,5.844Z" transform="translate(-873.791 -460.719)" fill="#ffb93e"/>
        <g id="Group_14" data-name="Group 14" transform="translate(0.271)">
          <path id="Path_40" data-name="Path 40" d="M792.9,470.416s-1.311.27-3.275.641c-5.215.985-15.033,2.68-17.154,1.914-3.333-1.2-.061-12.151,2.229-14.286S792.9,470.416,792.9,470.416Z" transform="translate(-771.048 -446.186)" fill="#ffb93e"/>
          <g id="Group_13" data-name="Group 13" transform="translate(21.881)">
            <path id="Path_41" data-name="Path 41" d="M905.047,398.971c1.186,2.043-16.028,18.357-16.028,18.357s.035-1.127.112-2.9v0c.282-6.476,1.13-21.569,2.937-21.97a2.244,2.244,0,0,1,.67-.023C895.815,392.713,903.956,397.089,905.047,398.971Z" transform="translate(-889.019 -392.391)" fill="#ffb93e"/>
            <path id="Path_42" data-name="Path 42" d="M893.716,394.323c-.52,2.581-4.034,19.717-4.09,19.984.282-6.476,1.13-21.569,2.937-21.97a1.172,1.172,0,0,1,.67-.023C893.629,392.44,894,392.9,893.716,394.323Z" transform="translate(-889.513 -392.274)" fill="#f69b34"/>
          </g>
          <path id="Path_43" data-name="Path 43" d="M793.534,519.585h0c-5.215.985-15.033,2.68-17.154,1.914-1.471-1.878.434-2.71,1.813-3.339S793.534,519.585,793.534,519.585Z" transform="translate(-774.955 -494.714)" fill="#f69b34"/>
          <path id="Path_44" data-name="Path 44" d="M869.577,515.457s.271-2.984,2.473-3.882c2.3-.938,4.6,1.509,4.6,1.509Z" transform="translate(-851.302 -489.273)" fill="#f69b34"/>
        </g>
        <rect id="Rectangle_19" data-name="Rectangle 19" width="34.88" height="4.999" transform="translate(0 32.403) rotate(-18.529)" fill="#ffa15a"/>
        <rect id="Rectangle_20" data-name="Rectangle 20" width="13.147" height="4.999" transform="translate(33.071 21.319) rotate(-18.529)" fill="#f78639"/>
        <path id="Path_45" data-name="Path 45" d="M814.327,529.225s-7.165.119-11.081,2.941c-4.514,3.252-2.132,9.369-2.132,9.369l1.022-.884,1.851.214s-1.936-6.673,1.862-8.971C809.133,529.906,814.327,529.225,814.327,529.225Z" transform="translate(-794.754 -503.824)" fill="#ffbe55"/>
        <rect id="Rectangle_21" data-name="Rectangle 21" width="2.544" height="36.657" transform="matrix(0.948, -0.318, 0.318, 0.948, 13.971, 27.72)" fill="#ffb93e"/>
      </g>
      <g id="Group_17" data-name="Group 17" transform="translate(333.268 123.821)">
        <path id="Path_46" data-name="Path 46" d="M2081.371,841.671s-4.731,2.787-1.828,8.187c0,0-4.142-.758-5.037-1.995a3.248,3.248,0,0,0,.258.775s-3.808-.863-5.054-2.452,4.864-20.624,14.762-15.694c0,0,9.052,1.68,5.506,11.729s-.195,10.937-.195,10.937a4.935,4.935,0,0,1-1.5.093s-.591-.425-.625-.823a2.422,2.422,0,0,0,.1.832s-3.707-.615-5.152-2.458S2080.294,843.653,2081.371,841.671Z" transform="translate(-2045.488 -829.678)" fill="#233862"/>
        <path id="Path_47" data-name="Path 47" d="M2096.3,981.558l-.017.006C2096.251,981.56,2096.258,981.558,2096.3,981.558Z" transform="translate(-2067.246 -953.387)" fill="#ffb27d"/>
        <path id="Path_48" data-name="Path 48" d="M2107.951,927.141c.139,1.246.305,2.363.379,2.9.166,1.193-11.156.417-11.878.415.5-.219,2.04-5.091,2.525-6.949.59-2.254,1.052-4.689,1.052-4.689l7.995.5.476.029a27.874,27.874,0,0,0-.65,3.075c-.019.128-.038.259-.054.385A20.726,20.726,0,0,0,2107.951,927.141Z" transform="translate(-2067.4 -902.281)" fill="#ffb27d"/>
        <path id="Path_49" data-name="Path 49" d="M2105.1,849.821a23.1,23.1,0,0,1-1.033-7.263c.186-2.25,3.391-9.927,11.093-6.66a11.253,11.253,0,0,1,4.06,2.9c1.427,1.634,3.265,4.833-1.381,11.042L2116.49,852Z" transform="translate(-2073.576 -834.095)" fill="#233862"/>
        <path id="Path_50" data-name="Path 50" d="M2123.467,928.146c-5.593-1.638-7.966-8.1-7.966-8.1,2.365.069,5.447,1.711,7.865,3.38-.019.128-.038.259-.055.385A20.746,20.746,0,0,0,2123.467,928.146Z" transform="translate(-2082.917 -903.286)" fill="#ed975d"/>
        <path id="Path_51" data-name="Path 51" d="M2122.663,870.319s-10.1-2.5-8.452-8.766,1.461-10.812,7.982-9.483,7.138,4.05,7.1,6.277S2125.333,870.807,2122.663,870.319Z" transform="translate(-2081.717 -847.728)" fill="#ffb27d"/>
        <path id="Path_52" data-name="Path 52" d="M2115.934,849.426s-4.7,6.622-9.216,6.59-6.049-1.65-6.049-1.65a12.383,12.383,0,0,0,5.788-6.035S2114.783,845.377,2115.934,849.426Z" transform="translate(-2070.836 -844.024)" fill="#233862"/>
        <path id="Path_53" data-name="Path 53" d="M2178.434,857.609a9.185,9.185,0,0,1,1.7,3.914c.079,1.728-.564,5.073.423,5.215,0,0,3.4-4.448,1.814-7.892C2180.693,855.194,2178.434,857.609,2178.434,857.609Z" transform="translate(-2134.177 -851.79)" fill="#233862"/>
        <path id="Path_54" data-name="Path 54" d="M2136.282,853.091s-4,7.179-9.987,8.233c0,0,6.586-3.318,8.385-8.28S2136.282,853.091,2136.282,853.091Z" transform="translate(-2091.708 -846.923)" fill="#233862"/>
        <path id="Path_55" data-name="Path 55" d="M2152.078,929.772s.126.954.735,1.18a8.811,8.811,0,0,0,2.389.533,8.121,8.121,0,0,0,.769-.845A12.588,12.588,0,0,0,2152.078,929.772Z" transform="translate(-2112.709 -911.2)" fill="#fff"/>
        <path id="Path_56" data-name="Path 56" d="M2049.312,1307.513c-.128.537-.257,1.067-.383,1.593-.762,3.165-1.471,6.1-1.917,8.557-.581,3.2-.718,5.575.044,6.574,3.138,4.114,0,36.763,0,36.763l-3.571,3.678s-6.208-32.234-7.892-37.285c-.766-2.3-1.881-12.1-2.866-22.114q-.076-.752-.147-1.5c-.17-1.751-.334-3.5-.492-5.2-.884-9.472-1.545-17.583-1.545-17.583s6.585-4.63,12.568-5.145c3.525-.307,6.84.814,8.477,5.145C2053.971,1287.3,2051.555,1298.178,2049.312,1307.513Z" transform="translate(-2013.715 -1193.057)" fill="#ffb27d"/>
        <path id="Path_57" data-name="Path 57" d="M2068.883,1307.513c-4.893-3.533-11.777-9.822-14.275-20.129-.478-5.125,3.563-9.994,8.073-11.532,3.525-.307,6.84.814,8.476,5.145C2073.542,1287.3,2071.126,1298.178,2068.883,1307.513Z" transform="translate(-2033.287 -1193.057)" fill="#ed975d"/>
        <path id="Path_58" data-name="Path 58" d="M2219.721,1111.1l24.045,6.211v2.807s-23.928-.281-25.472-2.946S2219.721,1111.1,2219.721,1111.1Z" transform="translate(-2166.281 -1058.902)" fill="#ffb27d"/>
        <path id="Path_59" data-name="Path 59" d="M2139.562,1312.5l-1.124,4.64s-32.527-16.8-36.734-20.026c-1.69-1.3-3.923-8.336-5.991-16.3-3.081-11.869-5.8-25.791-5.8-25.791s4.561-17.537,16.767-6.8c7.3,6.423,6.167,18.8,5.369,28.425-.532,6.459-.916,11.68,1.506,13.033,4.725,2.637,18.589,14.784,22.977,23.141Z" transform="translate(-2062.077 -1167.753)" fill="#ffb27d"/>
        <path id="Path_60" data-name="Path 60" d="M1981.778,1021.8c-8.5-2.162-17.833-15.34-17.833-15.34l2.392-2.075c2.476,2.92,12.773,7.948,12.773,7.948-.055-2.672.014-5.109.183-7.327,1.142-15.075,6.825-20.1,8.376-21.2a3.7,3.7,0,0,1,.394-.253s.006.109.015.317c.023.448.064,1.35.106,2.589C1988.5,995.689,1988.876,1023.612,1981.778,1021.8Z" transform="translate(-1959.471 -955.015)" fill="#ffb27d"/>
        <path id="Path_61" data-name="Path 61" d="M2033.4,998.4c-.44,10.754-2.049,21.4-6.731,20.718-5.739-.838-7.234-6.194-7.539-10.176a22.864,22.864,0,0,1,.083-4.425s2.825-.013,3.282-.434c2.169-2,1.525-21.656,2.6-23.7s8.041-3.351,8.041-3.351S2033.835,987.77,2033.4,998.4Z" transform="translate(-2004.363 -949.703)" fill="#fff"/>
        <path id="Path_62" data-name="Path 62" d="M2033.69,1059.8c-.44,10.754-2.049,21.4-6.731,20.718-5.739-.838-7.234-6.194-7.539-10.176,1.409-.071,3.89-.415,4.876-1.918,1.411-2.152,5.814-16.006,5.814-16.006S2031.841,1055.532,2033.69,1059.8Z" transform="translate(-2004.656 -1011.108)" fill="#dfebfd"/>
        <path id="Path_63" data-name="Path 63" d="M2090.8,985.248c1.556,2.209.7,6.493-2.564,9.942-2.027,2.142-4.77,3.409-9.236,2.75-1.947-.287-7.386-3.358-7.958-7.1-.1-.679-.16-1.076-.16-1.076a21.376,21.376,0,0,0-2.569,2.948c-.042.211-.255,2.084-.289,2.34a9.048,9.048,0,0,0,.182,1.448s-11.831,5.174-21.611-.718c0,0-2.789-23.9-.786-27.875,1-1.976,6.578-5.823,8.522-7.523a3.106,3.106,0,0,0,.76-2.277c-.1-.627.623-1.684,1.228-1.492,1.168.374,4.477,2.011,6.8,1.387,1.159-.308,2.63-1.648,3.754-1.341,1.374.375-.077,3.681.7,3.724,1.073.053,6.867,1.212,7.353,2.146.169.326,1.833,4.735,3.921,10.57a.048.048,0,0,1,0,.015C2082.771,984.06,2088.516,982.006,2090.8,985.248Z" transform="translate(-2025.56 -933.05)" fill="#fff"/>
        <path id="Path_64" data-name="Path 64" d="M2139.153,1095.887s-.288-9.116-1.024-9-11.364,10.341-8.839,14.433S2139.153,1095.887,2139.153,1095.887Z" transform="translate(-2093.833 -1039.175)" fill="#dfebfd"/>
        <path id="Path_65" data-name="Path 65" d="M2063.247,1195.165a70.687,70.687,0,0,1-10.13,2.1c-7.472,1.033-17.916,1.406-27.244-2.1,0,0-.768-13.88,1.442-21.115s3.243-10.7,3.243-10.7a46.775,46.775,0,0,0,17.848.5,29.2,29.2,0,0,0,3.772-.975s5.547,11.778,7.073,16.825S2063.247,1195.165,2063.247,1195.165Z" transform="translate(-2009.807 -1101.074)" fill="#2b478b"/>
        <path id="Path_66" data-name="Path 66" d="M2152.778,1195.165a70.677,70.677,0,0,1-10.13,2.1c-11.065-6.274-5.67-32.676-5.67-32.676.328-.266.649-.512.959-.739a29.185,29.185,0,0,0,3.772-.975s5.547,11.778,7.073,16.825S2152.778,1195.165,2152.778,1195.165Z" transform="translate(-2099.339 -1101.074)" fill="#233862"/>
        <g id="Group_16" data-name="Group 16" transform="translate(20.267 59.39)">
          <path id="Path_67" data-name="Path 67" d="M2058.976,1155.375c-6.56,0-9.263-2.258-9.463-2.411l-.424-3.089c.063.047,8.865,5.332,22.486.27l-.289,2.34C2066.047,1154.431,2062.383,1155.375,2058.976,1155.375Z" transform="translate(-2049.088 -1149.874)" fill="#b64c41"/>
        </g>
        <path id="Path_68" data-name="Path 68" d="M2357.578,1133.307s4.411-2.173,6.165-2.384,4.7-.281,4.7,0a13.091,13.091,0,0,1-4,2.384c-.842.142-2.456,1.334-1.964,1.475s3.086-.456,3.121,0-1.578.737-1.859,1.087a3.347,3.347,0,0,1-2.841.561c-1.578-.21-3.324-.316-3.324-.316Z" transform="translate(-2280.093 -1074.898)" fill="#ffb27d"/>
        <path id="Path_69" data-name="Path 69" d="M1946.684,1066.814l-2.4,2.092s-4.26-3.112-4.464-4.387v-.128c0-1.327,2.7-4.082,4.949-4.184a1.211,1.211,0,0,1,.612.153c1.2.748,1.338,3.865,1.328,5.478C1946.708,1066.426,1946.684,1066.814,1946.684,1066.814Z" transform="translate(-1939.822 -1017.449)" fill="#ffb27d"/>
        <path id="Path_70" data-name="Path 70" d="M2165.013,1452.6l-1.124,4.64s-32.527-16.8-36.733-20.026c-1.691-1.3-3.923-8.336-5.992-16.3,2.776.57,8.771.873,16.339-4.169-.532,6.459-.916,11.68,1.507,13.033,4.725,2.637,18.588,14.784,22.977,23.141Z" transform="translate(-2087.529 -1307.853)" fill="#2b478b"/>
        <path id="Path_71" data-name="Path 71" d="M2350.715,1591.71l-.03-.007a2.034,2.034,0,0,1-1.258-1.321c-.292-.7-.38-1.276-.648-1.969l-1.1-1.9c-1.149-1.512-1.552-1.158-1.552-1.158s-.3.385-.744.893a9.256,9.256,0,0,1-2.652,2.307,2.312,2.312,0,0,0-1.136.889,2.194,2.194,0,0,0-.339.779s2.359.411,2.153,1.573c-.4,2.25-.305,2.659-.265,2.733l.014.015s4.022,2.105,5.309,2.519a10.033,10.033,0,0,1,4.227,3,1.325,1.325,0,0,0,1.126.355c.6-.1,1.386-.289,1.559-.659Z" transform="translate(-2266.8 -1445.167)" fill="#233862"/>
        <path id="Path_72" data-name="Path 72" d="M2056.649,1453.682c3.138,4.114,0,36.763,0,36.763l-3.571,3.678s-6.208-32.234-7.892-37.285c-.766-2.3-1.881-12.1-2.866-22.114,2.976,1.328,10.237,4.219,16.2,3.826-.762,3.166-1.471,6.1-1.917,8.557C2056.023,1450.3,2055.887,1452.682,2056.649,1453.682Z" transform="translate(-2023.308 -1322.501)" fill="#233862"/>
        <path id="Path_73" data-name="Path 73" d="M2073.27,1735.129l-1.927,1.043c-.7.248-1.278.319-1.987.591a4.107,4.107,0,0,0-1.87,1.369c-.543,2.21-1.315,2.07-1.315,2.07l-7.74.073c-.365-.182.254-1.745.55-2.037.731-.721,2.922-.358,3.72-2.625.451-1.274,2.672-5.234,2.672-5.234l.016-.014c.075-.039.487-.121,2.723.344,1.156.239,1.635-2.107,1.635-2.107a2.186,2.186,0,0,1,.769.361,2.31,2.31,0,0,1,.855,1.161,9.278,9.278,0,0,0,2.229,2.718c.5.458.871.77.871.77S2074.815,1734.025,2073.27,1735.129Z" transform="translate(-2036.34 -1561.871)" fill="#233862"/>
      </g>
      <g id="Group_19" data-name="Group 19" transform="translate(170.037 148.722)">
        <rect id="Rectangle_22" data-name="Rectangle 22" width="32.872" height="94.684" transform="translate(89.477 59.072)" fill="#4a75cb"/>
        <rect id="Rectangle_23" data-name="Rectangle 23" width="86.844" height="94.684" transform="translate(2.633 59.072)" fill="#739af0"/>
        <rect id="Rectangle_24" data-name="Rectangle 24" width="6.627" height="86.844" transform="translate(89.477 105.39) rotate(90)" fill="#afcdfb"/>
        <rect id="Rectangle_25" data-name="Rectangle 25" width="6.627" height="32.872" transform="translate(122.35 105.39) rotate(90)" fill="#88b3ff"/>
        <path id="Path_74" data-name="Path 74" d="M1413.173,1237.088s26.625-12.085,45.183-7.493l-3.705,2.479,1.868,4.378a91.263,91.263,0,0,0-43.879,1.349Z" transform="translate(-1347.189 -1179.472)" fill="#4a75cb"/>
        <g id="Group_18" data-name="Group 18" transform="translate(7.099)">
          <path id="Path_75" data-name="Path 75" d="M1152.367,1077.882s-3.462-.418-8.622-1.128c-13.7-1.884-39.354-5.826-43.958-9.474-7.236-5.73,9.911-30.066,17.332-33.444S1152.367,1077.882,1152.367,1077.882Z" transform="translate(-1098.042 -1020.731)" fill="#72a9f7"/>
          <path id="Path_76" data-name="Path 76" d="M1442.973,990.778c1.237,6.029-54.792,32.075-54.792,32.075s1.019-2.756,2.677-7.072l0-.008c6.057-15.763,20.65-52.343,25.446-51.837a5.823,5.823,0,0,1,1.675.5C1425.348,967.675,1441.834,985.226,1442.973,990.778Z" transform="translate(-1334.366 -963.931)" fill="#72a9f7"/>
          <path id="Path_77" data-name="Path 77" d="M1429.29,969.8c-3.422,5.944-26.29,45.364-26.647,45.978,6.057-15.763,20.65-52.343,25.446-51.837a3.05,3.05,0,0,1,1.674.5C1430.637,965.071,1431.18,966.513,1429.29,969.8Z" transform="translate(-1346.146 -963.931)" fill="#4a75cb"/>
          <path id="Path_78" data-name="Path 78" d="M1149.387,1194.716h-.009c-13.7-1.884-39.354-5.826-43.958-9.474-2.08-5.857,3.316-6.334,7.242-6.746S1149.387,1194.716,1149.387,1194.716Z" transform="translate(-1103.675 -1138.692)" fill="#4a75cb"/>
          <path id="Path_79" data-name="Path 79" d="M1334.59,1248.936s3.141-7.145,9.323-7.541c6.456-.413,10.124,7.541,10.124,7.541Z" transform="translate(-1290.715 -1189.918)" fill="#4a75cb"/>
        </g>
        <rect id="Rectangle_26" data-name="Rectangle 26" width="90.87" height="13.023" transform="translate(0 59.072)" fill="#88b3ff"/>
        <rect id="Rectangle_27" data-name="Rectangle 27" width="34.25" height="13.023" transform="translate(90.87 59.072)" fill="#3969b7"/>
        <path id="Path_80" data-name="Path 80" d="M1163.562,1262.55s-17.8-5.638-29.808-1.911c-13.843,4.3-13.023,21.378-13.023,21.378l3.256-1.339,4.4,2.062s.742-18.087,12.028-20.62C1150.169,1259.932,1163.562,1262.55,1163.562,1262.55Z" transform="translate(-1109.417 -1204.568)" fill="#4a75cb"/>
        <rect id="Rectangle_28" data-name="Rectangle 28" width="6.627" height="95.501" transform="translate(38.388 59.072)" fill="#afcdfb"/>
      </g>
      <g id="Group_24" data-name="Group 24" transform="translate(40.105 124.923)">
        <path id="Path_81" data-name="Path 81" d="M501.046,1011.548s24.478,17.939,30.466,17.506,27.193-13.517,27.193-13.517l-4.486-5.333s-19.205,7.115-22.721,5.154-17.251-18.613-23.013-17.724S497.028,1005.1,501.046,1011.548Z" transform="translate(-473.646 -967.556)" fill="#233862"/>
        <g id="Group_20" data-name="Group 20" transform="translate(0 79.586)">
          <path id="Path_82" data-name="Path 82" d="M372.207,1734.281H364.89a4.435,4.435,0,0,1-2-3.353c-.357-2.358-3-3.643-3.571-5.572s2.358-4.641,2.358-4.641l.49-.632.51-.655,4.857,1.144s.12,1.157.193,2.63a33.666,33.666,0,0,1,.021,3.369c-.143,2.571.719,5.34,3,5.84C372.438,1732.781,372.362,1733.783,372.207,1734.281Z" transform="translate(-359.243 -1635.087)" fill="#233862"/>
          <path id="Path_83" data-name="Path 83" d="M582.232,1761.923H565.5c-.8-.982-.508-4.607-.387-5.79.025-.238.042-.377.042-.377s5.714-4.571,6.5-1.071c.024.11.053.217.085.323.989,3.273,5.424,4.761,7.986,5.175A2.9,2.9,0,0,1,582.232,1761.923Z" transform="translate(-526.8 -1662.73)" fill="#233862"/>
          <path id="Path_84" data-name="Path 84" d="M534.439,1289.307s-.868,10.826-1.888,23.84c-1.386,17.677-3.053,39.391-3.218,43.505-.285,7.143-1.429,18.569-1.429,18.569s-2.712,2.715-8.141,1.571a186.926,186.926,0,0,1-6.22-33.569c-.021-.283-.043-.568-.064-.853-1.285-17.568-3.284-54.562-3.284-54.562Z" transform="translate(-482.197 -1283.522)" fill="#f99746"/>
          <path id="Path_85" data-name="Path 85" d="M534.439,1289.307s-.868,10.826-1.888,23.84l-19.008,30.076c-.021-.283-.043-.568-.064-.853-1.285-17.568-3.284-54.562-3.284-54.562Z" transform="translate(-482.197 -1283.522)" fill="#ed7d2b"/>
          <path id="Path_86" data-name="Path 86" d="M418.2,1271.775s-15.64,39.208-25.924,57.633-13.5,23.567-13.5,23.567-5.892-2.357-6.427-3.964c0,0,3.933-35.571,10.82-44.242,3.892-4.9,8.463-19.6,8.677-24.745s1.393-15.319,1.393-15.319Z" transform="translate(-369.919 -1264.705)" fill="#f99746"/>
        </g>
        <path id="Path_87" data-name="Path 87" d="M489.487,936.748c-5.837,2.646-16.959-1.256-16.959-1.256s5.089-4.873,3.743-13.568l5.147,3.215,3.5,2.184a38.493,38.493,0,0,1,.141,4.211c-.008.709-.029,1.5-.071,2.369A14.626,14.626,0,0,1,489.487,936.748Z" transform="translate(-451.516 -905.916)" fill="#ffb27d"/>
        <path id="Path_88" data-name="Path 88" d="M503.491,941.435a38.488,38.488,0,0,1,.141,4.211c-3.6-.18-8.3-5.405-8.3-5.405a11.331,11.331,0,0,1,4.661-.99Z" transform="translate(-470.092 -920.028)" fill="#ed975d"/>
        <path id="Path_89" data-name="Path 89" d="M490.242,878.056s-9.822,2.873-11.517-3.271-4.1-9.911,2.1-12.006,8.07-.087,9.134,1.826S492.754,877.15,490.242,878.056Z" transform="translate(-455.005 -857.016)" fill="#ffb27d"/>
        <path id="Path_90" data-name="Path 90" d="M491.955,1035.078a39.459,39.459,0,0,1,.381,4.665.984.984,0,0,1-.609.321c-2.281.244-8.774,2.309-14.466,2.411a42.161,42.161,0,0,1-13.908-2.26c-.63-.2-2.1-.765-2.145-1.437-.069-.734-.124-1.806-.194-3.154a168.363,168.363,0,0,0-2.3-21.916c-.3-1.705-.559-3.405-.768-5.082-1.554-12.5-.4-23.8,4.133-28.122.391-.356,3.156.606,5.7,1.5a10,10,0,0,0,6.628,0l2.32,1.6a21.087,21.087,0,0,1,7.827,9.693c1.537,4.038,3.047,11.47,4.319,19.207.576,3.508,1.127,7.047,1.564,10.417l.015.121c.07.331.115.7.155,1.031q.121.9.235,1.766C491.309,1029.443,491.691,1032.653,491.955,1035.078Z" transform="translate(-439.103 -953.569)" fill="#2b478b"/>
        <path id="Path_91" data-name="Path 91" d="M471.12,852.787s1.008-.3.671-1.693-.558-3.249.636-3.042,1.362,1.121,1.77.526.143-2.865,3.552-3.436,4.945.454,6.454-.439,1.3-3.315,1.3-3.315a2.763,2.763,0,0,1-1,1.273s2.221-3.957-1.158-6.08-6.321-.112-8.09.211c-3.9.711-6.4,1.252-7.375,3.986S468.3,850.608,471.12,852.787Z" transform="translate(-447.48 -835.619)" fill="#2b478b"/>
        <path id="Path_92" data-name="Path 92" d="M524.376,1148.084c-.482.089-8.858,1.593-14.553-2.158-5.863-3.862-12.732-26.76-12.732-26.76s13.169,14.646,13.425,15.223c.214.486,9.711,3.506,12.74,4.46C523.729,1142.449,524.112,1145.659,524.376,1148.084Z" transform="translate(-471.523 -1066.574)" fill="#233862"/>
        <g id="Group_23" data-name="Group 23" transform="translate(42.057 8.025)">
          <g id="Group_21" data-name="Group 21" transform="translate(0 0)">
            <rect id="Rectangle_29" data-name="Rectangle 29" width="65.151" height="65.151" transform="translate(13.902 0.927) rotate(-0.815)" fill="#ed7d2b"/>
            <rect id="Rectangle_30" data-name="Rectangle 30" width="65.151" height="65.151" transform="translate(0 1.125) rotate(-0.815)" fill="#f99746"/>
          </g>
          <g id="Group_22" data-name="Group 22" transform="translate(8.536 9.857)">
            <path id="Path_93" data-name="Path 93" d="M632.016,943.3c-.087-6.149,4.128-11.179,10.463-11.269,6.273-.089,10.566,4.757,10.655,10.969.087,6.087-4.127,11.179-10.463,11.269C636.4,954.358,632.1,949.511,632.016,943.3Zm35.936-11.135,7.391-.105-31.12,43.93-7.391.105Zm-21.34,10.927c-.041-2.919-1.693-5.443-4.177-5.408-2.609.037-3.94,2.541-3.9,5.522.042,2.919,1.693,5.443,4.177,5.407C645.324,948.577,646.654,946.011,646.612,943.092Zm12.428,22.063c-.088-6.149,4.128-11.179,10.463-11.269,6.273-.089,10.567,4.758,10.655,10.969.087,6.087-4.128,11.179-10.463,11.269C663.423,976.213,659.129,971.367,659.041,965.156Zm14.6-.208c-.042-2.919-1.693-5.443-4.177-5.408-2.609.037-3.94,2.541-3.9,5.522.042,2.919,1.693,5.443,4.177,5.408C672.348,970.433,673.678,967.867,673.637,964.948Z" transform="translate(-632.015 -932.029)" fill="#fff"/>
          </g>
        </g>
        <path id="Path_94" data-name="Path 94" d="M726.753,1215.218a17.411,17.411,0,0,1-5.924-1.436,10.264,10.264,0,0,1-2.307-1.5l.232-1.448.278-1.729s.17-.027.452-.056.676-.06,1.124-.067a1.467,1.467,0,0,0,1.323-.316,3.129,3.129,0,0,1,2.533-.7c.833.2,2.624.014,2.681.305.14.7-2.47.577-2.775,1.019a.524.524,0,0,0,.026.719l.01.009c1.529,1.541,6.789,2.1,6.578,3.325C730.906,1213.8,727.683,1215.236,726.753,1215.218Z" transform="translate(-651.883 -1138.863)" fill="#ffb27d"/>
        <path id="Path_95" data-name="Path 95" d="M475.451,1032.592s12.049,27.854,17.434,30.508,29.955.591,29.955.591l.162-4.754s-21.162-4.191-23.2-7.661-5.472-24.78-10.894-26.927S475.246,1025,475.451,1032.592Z" transform="translate(-453.894 -988.773)" fill="#2b478b"/>
      </g>
      <g id="Group_26" data-name="Group 26" transform="translate(454.869 203.176)">
        <path id="Path_96" data-name="Path 96" d="M2628.337,1297.645q-.4.244-.813.472-.14.078-.28.151c-.213.114-.427.223-.642.33a21.645,21.645,0,0,1-19.976-38.391c.278-.153.558-.3.838-.438s.548-.266.825-.388a21.6,21.6,0,0,1,6.5-1.747,21.648,21.648,0,0,1,13.551,40.012Z" transform="translate(-2595.427 -1257.514)" fill="#ffb93e"/>
        <g id="Group_25" data-name="Group 25" transform="translate(2.043 2.149)">
          <path id="Path_97" data-name="Path 97" d="M2626.186,1308.545a19.731,19.731,0,1,1,9.5-2.454A19.738,19.738,0,0,1,2626.186,1308.545Zm-.034-38.271a18.549,18.549,0,1,0,16.256,9.6A18.56,18.56,0,0,0,2626.151,1270.274Z" transform="translate(-2606.439 -1269.098)" fill="#ffa412"/>
        </g>
        <path id="Path_98" data-name="Path 98" d="M2651.005,1297.152l4.349,8.812,9.725,1.413-7.037,6.859,1.662,9.685-8.7-4.573-8.7,4.573,1.661-9.685-7.037-6.859,9.725-1.413Z" transform="translate(-2629.233 -1289.8)" fill="#ffa412"/>
      </g>
      <g id="Group_28" data-name="Group 28" transform="translate(482.176 167.984)">
        <path id="Path_99" data-name="Path 99" d="M2761.223,1090.431c-.152.092-.3.181-.459.266l-.158.085c-.12.064-.241.126-.362.186a12.216,12.216,0,0,1-11.274-21.667c.156-.086.315-.169.473-.247s.309-.15.466-.219a12.224,12.224,0,0,1,3.666-.986,12.218,12.218,0,0,1,7.649,22.582Z" transform="translate(-2742.648 -1067.781)" fill="#ffb93e"/>
        <g id="Group_27" data-name="Group 27" transform="translate(1.153 1.212)">
          <path id="Path_100" data-name="Path 100" d="M2760.009,1096.582a11.136,11.136,0,1,1,5.364-1.385A11.142,11.142,0,0,1,2760.009,1096.582Zm-.019-21.6a10.468,10.468,0,1,0,9.175,5.415A10.475,10.475,0,0,0,2759.989,1074.982Z" transform="translate(-2748.864 -1074.318)" fill="#ffa412"/>
        </g>
        <path id="Path_101" data-name="Path 101" d="M2774.016,1090.152l2.455,4.973,5.488.8-3.971,3.872.937,5.466-4.909-2.581-4.909,2.581.937-5.466-3.971-3.872,5.488-.8Z" transform="translate(-2761.728 -1086.003)" fill="#ffa412"/>
      </g>
      <g id="Group_30" data-name="Group 30" transform="translate(273.857 16.374)">
        <path id="Path_102" data-name="Path 102" d="M1636.879,266.355q-.134.164-.275.324l-.1.107c-.074.081-.149.159-.224.237a9.786,9.786,0,0,1-14.293-13.364q.143-.16.291-.313t.293-.29a9.767,9.767,0,0,1,2.507-1.722,9.788,9.788,0,0,1,11.8,15.021Z" transform="translate(-1619.51 -250.383)" fill="#cde0fb"/>
        <g id="Group_29" data-name="Group 29" transform="translate(0.956 0.946)">
          <path id="Path_103" data-name="Path 103" d="M1633.569,273.317a8.931,8.931,0,1,1,.525-.015Q1633.831,273.317,1633.569,273.317Zm.022-17.3q-.246,0-.494.014a8.374,8.374,0,1,0,.494-.014Z" transform="translate(-1624.664 -255.483)" fill="#afcdfb"/>
        </g>
        <path id="Path_104" data-name="Path 104" d="M1641.364,270.18l3.18,3.1,4.359-.861-1.969,3.983,2.165,3.88-4.4-.641-3.021,3.258-.749-4.38-4.032-1.866,3.934-2.066Z" transform="translate(-1633.676 -266.508)" fill="#afcdfb"/>
      </g>
      <g id="Group_32" data-name="Group 32" transform="translate(231.587 267.282)">
        <path id="Path_105" data-name="Path 105" d="M1422.634,1631.673q-.239.293-.493.578c-.057.064-.115.128-.173.19-.132.144-.265.285-.4.424a17.481,17.481,0,0,1-25.531-23.87c.17-.191.344-.378.521-.559s.346-.35.524-.517a17.454,17.454,0,0,1,4.479-3.076,17.483,17.483,0,0,1,21.073,26.831Z" transform="translate(-1391.609 -1603.143)" fill="#cde0fb"/>
        <g id="Group_31" data-name="Group 31" transform="translate(1.708 1.69)">
          <path id="Path_106" data-name="Path 106" d="M1416.722,1644.11a15.957,15.957,0,1,1,.938-.027Q1417.19,1644.11,1416.722,1644.11Zm.04-30.9c-.293,0-.586.008-.882.025a14.952,14.952,0,1,0,.882-.025Z" transform="translate(-1400.816 -1612.256)" fill="#afcdfb"/>
        </g>
        <path id="Path_107" data-name="Path 107" d="M1430.645,1638.506l5.68,5.542,7.786-1.537-3.516,7.115,3.868,6.93-7.853-1.145-5.4,5.82-1.338-7.823-7.2-3.333,7.026-3.69Z" transform="translate(-1416.912 -1631.947)" fill="#afcdfb"/>
      </g>
      <path id="Rectangle_31" data-name="Rectangle 31" d="M.678,0H510.936a.678.678,0,0,1,.678.678v0a.678.678,0,0,1-.678.678H.679A.679.679,0,0,1,0,.678v0A.678.678,0,0,1,.678,0Z" transform="translate(0 302.224)" fill="#2e3552"/>
      <g id="Group_33" data-name="Group 33" transform="translate(306.634 175.694)">
        <path id="Path_108" data-name="Path 108" d="M1806.972,1145.882a8.689,8.689,0,0,1-5.112,1.379,7.868,7.868,0,0,1-4.042-2.174l-1.593,2.768s3.641,2.208,6.762,1.6a7.924,7.924,0,0,0,3.208-1.847A2.705,2.705,0,0,0,1806.972,1145.882Z" transform="translate(-1796.226 -1138.458)" fill="#6bb7bf"/>
        <path id="Path_109" data-name="Path 109" d="M1838.793,1111l4-1.657s-.548,8.316-7.42,10.857C1835.373,1120.2,1839.714,1114.51,1838.793,1111Z" transform="translate(-1828.112 -1109.346)" fill="#86d1cd"/>
      </g>
      <path id="Path_110" data-name="Path 110" d="M2001.96,1654.2s1.747,1.979,3.465,1.94c0,0,.229,2.164-.392,2.74,0,0-2.941-.538-3.65-1.613C2001.383,1657.267,2000.789,1654.686,2001.96,1654.2Z" transform="translate(-1656.574 -1377.448)" fill="#f99746"/>
      <g id="Group_34" data-name="Group 34" transform="translate(314.442 240.608)">
        <path id="Path_111" data-name="Path 111" d="M1841.854,1468.265a7.379,7.379,0,0,1-1.559-4.218,6.683,6.683,0,0,1,1.528-3.586l-2.464-1.134s-1.588,3.25-.836,5.843a6.734,6.734,0,0,0,1.809,2.571A2.3,2.3,0,0,0,1841.854,1468.265Z" transform="translate(-1838.321 -1459.327)" fill="#cde0fb"/>
        <path id="Path_112" data-name="Path 112" d="M1848.316,1495.228l1.709,3.256s-7.076.175-9.753-5.442C1840.273,1493.042,1845.421,1496.276,1848.316,1495.228Z" transform="translate(-1839.911 -1486.789)" fill="#cde0fb"/>
      </g>
    </g>
  </g>
</svg>
