<svg width="0" height="0" class="hidden">
<symbol xmlns="http://www.w3.org/2000/svg" viewBox="0 0 91.077 103.673" id="Wallet">
    <g id="Wallet" transform="translate(-52.869 -24.901)">
      <circle id="Ellipse_15" cx="3.532" cy="3.532" r="3.532" transform="translate(127.958 92.015)"></circle>
      <path id="Path_1665" d="M179.458,59.683h21.385a19.034,19.034,0,1,0-21.385,0Zm7.675-25.341H183.06a1.346,1.346,0,0,1,0-2.691H197.3a1.346,1.346,0,1,1,0,2.691h-4.434a7.707,7.707,0,0,1,1.6,3.364H197.3a1.346,1.346,0,0,1,0,2.691h-2.833a7.308,7.308,0,0,1-7.33,6.055h-.691l7.723,7.349a1.408,1.408,0,0,1,.054,1.953,1.341,1.341,0,0,1-1.9.045l-10.181-9.635a1.4,1.4,0,0,1,.923-2.4h4.074A4.668,4.668,0,0,0,191.7,40.4h-8.64a1.346,1.346,0,0,1,0-2.691h8.64a4.668,4.668,0,0,0-4.566-3.364Z" transform="translate(-91.729)"></path>
      <path id="Path_1666" d="M58.7,139.661h24.75A21.694,21.694,0,0,1,77.092,128H58.7a5.831,5.831,0,0,0,0,11.661Z" transform="translate(0 -79.978)"></path>
      <path id="Path_1667" d="M353.316,141.7V133.42a5.421,5.421,0,0,0-5.381-5.42H329.122a21.7,21.7,0,0,1-6.358,11.661h25.17A8.023,8.023,0,0,1,353.316,141.7Z" transform="translate(-209.369 -79.978)"></path>
      <path id="Path_1668" d="M58.382,250.187l80.3-.207a5.391,5.391,0,0,0,5.368-5.382V232.874H123.464a1.392,1.392,0,0,1-1.108-.63l-9.886-14.42a1.366,1.366,0,0,1,0-1.538l9.886-14.4a1.4,1.4,0,0,1,1.108-.635h20.584V189.348a5.37,5.37,0,0,0-5.382-5.361H58.8A8.478,8.478,0,0,1,53,181.67V244.8a5.388,5.388,0,0,0,5.382,5.382Z" transform="translate(-0.102 -121.612)"></path>
      <path id="Path_1669" d="M339.372,307.238h19.876V281H339.372l-8.961,13.119Zm7.42-19.247a6.223,6.223,0,1,1-6.223,6.223A6.223,6.223,0,0,1,346.792,287.991Z" transform="translate(-215.301 -198.667)"></path>
    </g>
  </symbol>
<symbol xmlns="http://www.w3.org/2000/svg" viewBox="0 0 62.716 87.257" id="Log">
    <g id="Log" transform="translate(-18)">
      <path id="Path_1664" d="M24.817,87.257H73.9a6.837,6.837,0,0,0,6.817-6.817V6.817A6.837,6.837,0,0,0,73.9,0H24.817A6.837,6.837,0,0,0,18,6.817V80.44A6.837,6.837,0,0,0,24.817,87.257ZM68.1,80.44H31.975a1.363,1.363,0,1,1,0-2.727H68.1a1.363,1.363,0,1,1,0,2.727Zm0-6.817H31.975a1.363,1.363,0,1,1,0-2.727H68.1a1.363,1.363,0,1,1,0,2.727Zm0-6.817H31.975a1.363,1.363,0,0,1,0-2.727H68.1a1.363,1.363,0,0,1,0,2.727Zm0-6.817H31.975a1.363,1.363,0,1,1,0-2.727H68.1a1.363,1.363,0,1,1,0,2.727Zm0-6.817H31.975a1.363,1.363,0,1,1,0-2.727H68.1a1.363,1.363,0,1,1,0,2.727Zm0-6.817H31.975a1.363,1.363,0,1,1,0-2.727H68.1a1.363,1.363,0,1,1,0,2.727Zm0-6.817H31.975a1.363,1.363,0,0,1,0-2.727H68.1a1.363,1.363,0,0,1,0,2.727ZM20.727,6.817a4.1,4.1,0,0,1,4.09-4.09H73.9a4.1,4.1,0,0,1,4.09,4.09V29.995H20.727Z"></path>
    </g>
  </symbol>
  <symbol xmlns="http://www.w3.org/2000/svg" viewBox="0 0 100.001 68.222" id="GiftCard">
    <g id="GiftCard" transform="translate(0 -15.889)">
      <g id="Group_312">
        <path id="Path_1663" d="M10.6,54.37H0V24.276a8.388,8.388,0,0,1,8.387-8.387h19.18V43.063c-.135-.158-.273-.309-.414-.451-5.119-5.165-12.505-6.144-16.5-2.187C7.287,43.763,7.41,49.544,10.6,54.37Zm7.9,23.936L9.8,69.075l4.1-3.709H0v10.36a8.386,8.386,0,0,0,8.387,8.385h19.18V69.758Zm21.04-35.694c5.119-5.165,12.505-6.144,16.5-2.187,3.365,3.337,3.244,9.118.055,13.944H100V24.276a8.388,8.388,0,0,0-8.387-8.387H39.125V43.063C39.26,42.9,39.4,42.755,39.539,42.612ZM56.893,69.6l-9.231,8.7-8.536-9.058V84.11H91.614A8.386,8.386,0,0,0,100,75.725V65.365H52.755ZM42.072,47.116c-2.619,2.641-3.129,10.553-3.129,10.553s7.907-.58,10.526-3.223S52.556,48.022,50.513,46,44.691,44.474,42.072,47.116ZM16.177,46c-2.043,2.025-1.576,5.809,1.043,8.449s10.526,3.223,10.526,3.223-.51-7.912-3.129-10.553S18.219,43.974,16.177,46Z"></path>
      </g>
    </g>
  </symbol>
  <symbol xmlns="http://www.w3.org/2000/svg" viewBox="0 0 92.15 92.15" id="Rewards">
    <g id="Rewards" transform="translate(87 80)">
      <g id="Group_310" transform="translate(-89 -82)">
        <path id="Path_1656" d="M70.015,85.374a10.97,10.97,0,0,1,2.194,6.582,2.194,2.194,0,0,1-2.194,2.194H26.135a2.194,2.194,0,0,1-2.194-2.194,10.97,10.97,0,0,1,10.97-10.97A6.582,6.582,0,0,0,41.493,74.4V72.078a17.86,17.86,0,0,0,2.194.132h8.776c.746,0,1.536-.044,2.194-.088V74.4a6.582,6.582,0,0,0,6.582,6.582H46.978a2.194,2.194,0,1,0,0,4.388ZM94.15,30.523v6.319a10.94,10.94,0,0,1-8.293,10.619L75.654,50a24.086,24.086,0,0,1-21,17.688,17.86,17.86,0,0,1-2.194.132H43.687a17.859,17.859,0,0,1-2.194-.132A24.082,24.082,0,0,1,20.5,50.023L10.311,47.478A10.97,10.97,0,0,1,2,36.833v-6.31a2.194,2.194,0,0,1,2.194-2.194H19.552V21.746a2.194,2.194,0,0,1,2.194-2.194H74.4A2.194,2.194,0,0,1,76.6,21.746v6.582H30.523a2.194,2.194,0,0,0,0,4.388H76.6v10.97c0,.557-.118,1.084-.158,1.632L84.777,43.2a6.529,6.529,0,0,0,4.985-6.363V32.717H76.6V28.329H91.956A2.194,2.194,0,0,1,94.15,30.523ZM19.706,45.306c-.035-.544-.154-1.066-.154-1.619V32.717H6.388v4.116a6.582,6.582,0,0,0,4.985,6.389Zm35.741.575-5.09-.746-2.282-4.607-2.282,4.607-5.09.746,3.686,3.6-.878,5.046,4.564-2.37,4.564,2.37-.878-5.046Zm23.345,21.94a2.194,2.194,0,0,0,2.194-2.194V61.239a2.194,2.194,0,1,0-4.388,0v4.388A2.194,2.194,0,0,0,78.792,67.821Zm0,4.388A2.194,2.194,0,0,0,76.6,74.4v4.388a2.194,2.194,0,0,0,4.388,0V74.4A2.194,2.194,0,0,0,78.792,72.209ZM74.4,67.821H72.209a2.194,2.194,0,1,0,0,4.388H74.4a2.194,2.194,0,1,0,0-4.388Zm10.97,0H83.18a2.194,2.194,0,0,0,0,4.388h2.194a2.194,2.194,0,1,0,0-4.388ZM12.97,10.776a2.194,2.194,0,0,0,2.194-2.194V4.194a2.194,2.194,0,1,0-4.388,0V8.582A2.194,2.194,0,0,0,12.97,10.776Zm0,4.388a2.194,2.194,0,0,0-2.194,2.194v4.388a2.194,2.194,0,0,0,4.388,0V17.358A2.194,2.194,0,0,0,12.97,15.164Zm-6.582,0H8.582a2.194,2.194,0,1,0,0-4.388H6.388a2.194,2.194,0,0,0,0,4.388Zm10.97,0h2.194a2.194,2.194,0,0,0,0-4.388H17.358a2.194,2.194,0,0,0,0,4.388Z" transform="translate(0 0)"></path>
      </g>
    </g>
  </symbol>
  <symbol xmlns="http://www.w3.org/2000/svg" viewBox="0 0 101.287 85.115" id="Award">
    <g id="Award" transform="translate(75.742 24.254)">
      <g id="Group_311" transform="translate(-75.742 -24.254)">
        <path id="Path_1657" d="M179.485,210.361a21.775,21.775,0,1,0,21.671,21.779A21.75,21.75,0,0,0,179.485,210.361Zm14.808,19.905-7.709,5.578,2.959,9.056a1.541,1.541,0,0,1-2.375,1.724l-7.684-5.615-7.685,5.615a1.542,1.542,0,0,1-2.375-1.724l2.959-9.056-7.709-5.578a1.542,1.542,0,0,1,.9-2.79h0l9.515.015,2.921-9.063a1.542,1.542,0,0,1,1.467-1.069h0a1.542,1.542,0,0,1,1.467,1.068l2.924,9.063,9.511-.015h0a1.542,1.542,0,0,1,.9,2.79Z" transform="translate(-128.843 -177.854)"></path>
        <path id="Path_1658" d="M165.731,76.334l2.336-3.132,7.793-10.455H112.481l10.167,13.588Z" transform="translate(-93.493 -62.746)"></path>
        <path id="Path_1659" d="M227.146,278.6a1.541,1.541,0,0,1-1.467-1.068l-1.8-5.584-1.8,5.584a1.542,1.542,0,0,1-1.467,1.069h0l-5.866-.009,4.753,3.439a1.542,1.542,0,0,1,.562,1.728l-1.824,5.581,4.735-3.459a1.542,1.542,0,0,1,1.819,0l4.734,3.459-1.824-5.581a1.542,1.542,0,0,1,.562-1.728l4.752-3.439-5.862.009Z" transform="translate(-173.235 -225.879)"></path>
        <path id="Path_1660" d="M60.027,89.823,41.854,65.53l-15.6,11.6,20.306,27.151A33.846,33.846,0,0,1,60.027,89.823Z" transform="translate(-26.258 -64.917)"></path>
        <path id="Path_1661" d="M178.247,200.1a30.686,30.686,0,1,0-30.686,30.828A30.792,30.792,0,0,0,178.247,200.1Zm-30.686,24.853A24.858,24.858,0,1,1,172.315,200.1,24.832,24.832,0,0,1,147.561,224.951Z" transform="translate(-96.92 -145.811)"></path>
        <path id="Path_1662" d="M333.258,89.894a33.847,33.847,0,0,1,13.4,14.467l20.282-27.211-15.533-11.6L342.1,78.033Z" transform="translate(-265.651 -64.933)"></path>
      </g>
    </g>
  </symbol>
  <symbol xmlns="http://www.w3.org/2000/svg" viewBox="0 0 74.993 73.729" id="Categories">
    <path d="M13.893 0H1.5A1.5 1.5 0 000 1.5v12.393a1.553 1.553 0 001.5 1.5h12.393a1.553 1.553 0 001.5-1.5V1.5a1.553 1.553 0 00-1.5-1.5zm0 29.208H1.5a1.553 1.553 0 00-1.5 1.5v12.393a1.553 1.553 0 001.5 1.5h12.393a1.553 1.553 0 001.5-1.5V30.708a1.5 1.5 0 00-1.5-1.5zm0 29.128H1.5a1.553 1.553 0 00-1.5 1.5v12.393a1.553 1.553 0 001.5 1.5h12.393a1.553 1.553 0 001.5-1.5V59.836a1.553 1.553 0 00-1.5-1.5zM43.653 0H31.339a1.5 1.5 0 00-1.5 1.5v12.393a1.553 1.553 0 001.5 1.5h12.393a1.553 1.553 0 001.5-1.5V1.5A1.626 1.626 0 0043.653 0zm0 29.208H31.339a1.553 1.553 0 00-1.5 1.5v12.393a1.553 1.553 0 001.5 1.5h12.393a1.553 1.553 0 001.5-1.5V30.708a1.567 1.567 0 00-1.579-1.5zm0 29.128H31.339a1.553 1.553 0 00-1.5 1.5v12.393a1.553 1.553 0 001.5 1.5h12.393a1.553 1.553 0 001.5-1.5V59.836a1.626 1.626 0 00-1.579-1.5zM73.492 0H61.099a1.5 1.5 0 00-1.5 1.5v12.393a1.553 1.553 0 001.5 1.5h12.393a1.553 1.553 0 001.5-1.5V1.5a1.553 1.553 0 00-1.5-1.5zm0 29.208H61.099a1.553 1.553 0 00-1.5 1.5v12.393a1.553 1.553 0 001.5 1.5h12.393a1.553 1.553 0 001.5-1.5V30.708a1.5 1.5 0 00-1.5-1.5zm0 29.128H61.099a1.553 1.553 0 00-1.5 1.5v12.393a1.553 1.553 0 001.5 1.5h12.393a1.553 1.553 0 001.5-1.5V59.836a1.553 1.553 0 00-1.5-1.5z"></path>
  </symbol>
  <symbol xmlns="http://www.w3.org/2000/svg" viewBox="0 0 76.122 70.939" id="Shopping">
    <path d="M32.741 66.846a4.093 4.093 0 11-4.091-4.092 4.093 4.093 0 014.091 4.092zm23.192-4.093a4.093 4.093 0 104.093 4.093 4.093 4.093 0 00-4.093-4.092zm18.88-45.373a8.185 8.185 0 00-6.739-3.738H16.45l-1.853-7.448A8.185 8.185 0 006.657 0H2.728a2.728 2.728 0 100 5.457h3.929A2.728 2.728 0 019.386 7.5l2.374 9.522 7.5 30.013 1.69 6.824a8.185 8.185 0 007.858 6.166h31.217a2.728 2.728 0 000-5.457H28.812a2.728 2.728 0 01-2.728-2.046l-.764-3.411h33.914a8.185 8.185 0 007.449-4.8l8.7-19.1a8.185 8.185 0 00-.573-7.831z"></path>
  </symbol>
  <symbol xmlns="http://www.w3.org/2000/svg" viewBox="0 0 50.403 67.784" id="Bag">
    <path d="M25.2 0a13.045 13.045 0 00-13.034 13.038v6.083h3.476v-6.083a9.559 9.559 0 1119.118 0v6.083h3.476v-6.083A13.045 13.045 0 0025.2 0zM4.345 20.857L0 67.784h50.4l-4.345-46.927z"></path>
  </symbol>
  <symbol xmlns="http://www.w3.org/2000/svg" viewBox="0 0 66.263 74.781" id="Order">
    <path d="M33.144 0C24.771 0 18.06 7.174 18.06 15.96v1.593h-4.172a9.966 9.966 0 00-9.56 9L.053 65.51c-.549 5 2.967 9.268 7.807 9.268h50.539c4.841 0 8.357-4.269 7.807-9.268l-4.275-38.957a9.989 9.989 0 00-9.587-9h-4.143V15.96C48.201 7.174 41.517 0 33.144 0zm0 2.2c7.113 0 12.853 6.085 12.853 13.756v1.593H20.265v-1.593c0-7.667 5.766-13.752 12.879-13.752zM13.888 19.757h4.169v6.639a3.408 3.408 0 00-2.124 3.187 3.218 3.218 0 106.426 0 3.419 3.419 0 00-2.1-3.187v-6.639h25.738v6.639a3.419 3.419 0 00-2.1 3.187 3.218 3.218 0 106.426 0 3.408 3.408 0 00-2.124-3.187v-6.639h4.143a7.892 7.892 0 017.409 7.037l4.275 38.957c.428 3.9-2.041 6.825-5.63 6.825H7.863c-3.589 0-6.058-2.927-5.63-6.825l4.3-38.957c.429-3.9 3.767-7.037 7.356-7.037z"></path>
  </symbol>
  <symbol xmlns="http://www.w3.org/2000/svg" viewBox="0 0 76.937 76.937" id="User">
    <path d="M.015 74.533c.2-1.458.346-2.93.6-4.373A38.441 38.441 0 0116.89 45.05a30.312 30.312 0 0021.578 8.776 30.4 30.4 0 0021.594-8.806c1.217.962 2.494 1.878 3.667 2.915a38.009 38.009 0 0112.938 24.6c.075.661.18 1.337.27 2v2.4H0c.015-.795.015-1.606.015-2.402z"></path>
    <path d="M40.287 0c1.518.3 3.065.5 4.538.917A23.024 23.024 0 1133.66.511C34.652.286 35.674.165 36.68 0z"></path>
  </symbol>
  <symbol xmlns="http://www.w3.org/2000/svg" viewBox="0 0 75.598 74.624" id="Gift">
    <path d="M5.815 71.438a3.2 3.2 0 003.186 3.186h25.814v-37.04h-29zm34.969 3.186h25.809a3.2 3.2 0 003.191-3.186V37.584h-29zm31.704-54.642H57.034a10.577 10.577 0 005.1-3.425 10.092 10.092 0 001.832-8.842A10.313 10.313 0 0047.4 2.455l-9.559 8.2-9.559-8.2A10.248 10.248 0 0011.71 7.633a10.092 10.092 0 001.832 8.842 9.735 9.735 0 005.1 3.425H3.186A3.2 3.2 0 000 23.082v5.257a3.145 3.145 0 003.186 3.186H34.81V20.382h5.974V31.53h31.624a3.145 3.145 0 003.186-3.186v-5.262a3.06 3.06 0 00-3.106-3.1zM18 9.306a3.691 3.691 0 012.549-2.629 3.1 3.1 0 011.195-.159 3.678 3.678 0 012.39.876l7.806 6.612H21.667a3.778 3.778 0 01-2.947-1.434A3.481 3.481 0 0118 9.306zm33.615-1.912a3.678 3.678 0 013.585-.717 3.839 3.839 0 012.549 2.629 3.722 3.722 0 01-.637 3.266 3.657 3.657 0 01-2.947 1.434H43.891z"></path>
  </symbol>
  <symbol xmlns="http://www.w3.org/2000/svg" viewBox="0 0 82.05 82.05" id="OfferBadge">
    <path d="M73.125 54.325a14.34 14.34 0 01-18.8 18.8 14.372 14.372 0 01-26.6 0 14.34 14.34 0 01-18.8-18.8 14.372 14.372 0 010-26.6 14.34 14.34 0 0118.8-18.8 14.372 14.372 0 0126.6 0 14.34 14.34 0 0118.8 18.8 14.372 14.372 0 010 26.6zm-19.8 9.3a10.179 10.179 0 01-10.2-10.2 10.179 10.179 0 0110.2-10.2 10.243 10.243 0 0110.2 10.2 10.115 10.115 0 01-10.2 10.2zm0-16.5a6.231 6.231 0 00-6.2 6.2 6.146 6.146 0 006.2 6.1 6.124 6.124 0 006.1-6.1 6.146 6.146 0 00-6.1-6.2zm-28.7 7.3l29.8-29.8 3 3-29.8 29.8zm4.1-15.4a10.179 10.179 0 01-10.2-10.2 10.179 10.179 0 0110.2-10.2 10.243 10.243 0 0110.2 10.2 10.179 10.179 0 01-10.2 10.2zm0-16.4a6.124 6.124 0 00-6.1 6.1 6.19 6.19 0 006.1 6.1 6.211 6.211 0 006.2-6.1 6.211 6.211 0 00-6.2-6.1z" fill-rule="evenodd"></path>
  </symbol>
  <symbol xmlns="http://www.w3.org/2000/svg" viewBox="0 0 89.545 89.542" id="Popular">
    <path d="M44.772 89.542a44.771 44.771 0 1144.773-44.771 44.821 44.821 0 01-44.773 44.771zm0-85.739a40.969 40.969 0 1040.967 40.968A41.014 41.014 0 0044.772 3.803z"></path>
    <path d="M57.846 64.683a1.9 1.9 0 01-1.119-.364l-11.955-8.692-11.958 8.684a1.9 1.9 0 01-2.926-2.128l4.566-14.03-11.955-8.662a2.111 2.111 0 01-.693-2.266 2.036 2.036 0 011.811-1.454h14.779l4.567-13.918a1.843 1.843 0 011.809-1.246 1.818 1.818 0 011.811 1.212l4.566 13.952h14.777a2.035 2.035 0 011.811 1.453 2 2 0 01-.691 2.2l-11.955 8.7 4.564 14.047a1.914 1.914 0 01-.689 2.136 1.936 1.936 0 01-1.12.376zM44.772 51.371a1.9 1.9 0 011.119.363l8.335 6.061-3.183-9.784a2.8 2.8 0 01.693-2.669l8.324-6.571H49.766c-.824 0-1.555.01-1.809-.774l-3.185-9.532-3.185 9.4c-.254.783-.985.91-1.809.91H29.482l8.325 6.57a2.325 2.325 0 01.691 2.4l-3.181 9.911 8.335-5.987a1.852 1.852 0 011.12-.298z"></path>
  </symbol>
  <symbol xmlns="http://www.w3.org/2000/svg" viewBox="0 0 80.762 127.423" id="BestSeller">
    <path d="M40.381 47.744l8.655 4.551-1.653-9.638 7-6.825-9.677-1.406-4.328-8.769-4.328 8.769-9.677 1.406 7 6.825-1.653 9.638zM23.475 63.65L26.7 44.825 13.026 31.493l18.9-2.747 8.453-17.128 8.453 17.128 18.9 2.747-13.674 13.332 3.229 18.825-16.906-8.888zm16.906 10.9A34.169 34.169 0 106.212 40.381 34.168 34.168 0 0040.381 74.55zm0 6.212a40.381 40.381 0 1140.381-40.381 40.381 40.381 0 01-40.381 40.381zm28.731-3.7l11.34 42.319-16.61-1.981-13.394 10.023-10.067-37.571-10.067 37.571L16.92 117.4.31 119.383l11.339-42.319a46.726 46.726 0 005.445 3.683l-8.408 31.38 9.966-1.189 8.036 6.012 8.12-30.306a47.233 47.233 0 0011.145 0l8.12 30.306 8.036-6.012 9.966 1.189-8.409-31.38a46.721 46.721 0 005.446-3.683z"></path>
  </symbol>
  <symbol xmlns="http://www.w3.org/2000/svg" viewBox="0 0 68.565 64.323" id="Reminder">
    <path d="M13.602.004a10.861 10.861 0 0 0-4.324.852 15.95 15.95 0 0 0-8.236 7.883c-1.576 3.452-1.346 6.824.6 8.843l8.217-7.886 8.238-7.863a6.3 6.3 0 0 0-4.5-1.829zm41.865 0a6.459 6.459 0 0 0-4.997 1.829s5.5 5.239 8.238 7.863 8.216 7.886 8.216 7.886c1.948-2.019 2.179-5.391.6-8.843A15.95 15.95 0 0 0 59.288.856 11.161 11.161 0 0 0 55.46.004zM34.283 3.073A30.626 30.626 0 1 0 64.91 33.695 30.627 30.627 0 0 0 34.283 3.073zm18.1 12.227a.986.986 0 0 1 .684 1.706L38.029 31.465a4.354 4.354 0 1 1-8.1 2.245v-.02a4.356 4.356 0 0 1 .637-2.256L18.657 19.753a.986.986 0 1 1 1.379-1.406L31.943 30.02a4.342 4.342 0 0 1 4.721.021l15.038-14.458a.986.986 0 0 1 .683-.286z"></path>
  </symbol>
  <symbol xmlns="http://www.w3.org/2000/svg" viewBox="0 0 63.86 63.86" id="Search001">
    <path d="M62.96 58.614L49.277 44.931a27.664 27.664 0 1 0-4.345 4.345L58.614 62.96a3.073 3.073 0 1 0 4.345-4.345zm-35.278-9.435a21.506 21.506 0 1 1 21.5-21.5 21.506 21.506 0 0 1-21.5 21.5z"></path>
  </symbol>
  <symbol xmlns="http://www.w3.org/2000/svg" viewBox="0 0 64.589 64.589" id="Search002">
    <path d="M39.991 44.435l19.2 19.2a3.17 3.17 0 1 0 4.443-4.523l-19.2-19.123a3.131 3.131 0 0 0-3.809-.476l-1.984-1.984a21.979 21.979 0 0 0 5.951-15.155 22.312 22.312 0 1 0-7.141 16.266l1.984 1.984a3.042 3.042 0 0 0 .556 3.811zM22.3 43.006A20.71 20.71 0 1 1 43.006 22.3 20.725 20.725 0 0 1 22.3 43.006z"></path>
  </symbol>
  <symbol xmlns="http://www.w3.org/2000/svg" viewBox="0 0 64.124 63.973" id="Search003">
    <path d="M63.68 60.141L47.431 43.894a1.5 1.5 0 0 0-1.07-.442h-1.3a25.936 25.936 0 1 0-1.461 1.473v1.284a1.549 1.549 0 0 0 .442 1.07l16.25 16.25a1.512 1.512 0 0 0 2.14 0l1.247-1.247a1.512 1.512 0 0 0 0-2.14zM25.83 47.847a22.152 22.152 0 1 1 15.68-6.488 22.169 22.169 0 0 1-15.68 6.488z"
      fill="#3a3a3a"></path>
  </symbol>
  <symbol xmlns="http://www.w3.org/2000/svg" viewBox="0 0 65.652 65.649" id="Settings">
    <path d="M62.467 26.08l-4.22-1.18-1.8-4.427 2.145-3.8a4.389 4.389 0 0 0-.692-5.257l-3.6-3.6a4.4 4.4 0 0 0-5.257-.692l-3.8 2.144-4.427-1.8-1.176-4.22A4.506 4.506 0 0 0 35.419 0h-5.05a4.361 4.361 0 0 0-4.22 3.251l-1.176 4.22-4.427 1.8-3.8-2.144a4.389 4.389 0 0 0-5.257.692l-3.666 3.6a4.4 4.4 0 0 0-.692 5.257l2.144 3.8L7.471 24.9l-4.22 1.18A4.506 4.506 0 0 0 0 30.3v5.05a4.3 4.3 0 0 0 3.251 4.22l4.22 1.176 1.8 4.427-2.144 3.8a4.389 4.389 0 0 0 .692 5.257l3.6 3.6a4.4 4.4 0 0 0 5.257.692l3.8-2.144 4.427 1.8L26.08 62.4a4.506 4.506 0 0 0 4.22 3.251h5.05a4.361 4.361 0 0 0 4.22-3.251l1.176-4.22 4.427-1.8 3.8 2.144a4.389 4.389 0 0 0 5.257-.692l3.6-3.6a4.389 4.389 0 0 0 .692-5.257l-2.144-3.8 1.8-4.427 4.22-1.176a4.506 4.506 0 0 0 3.251-4.22V30.3a4.28 4.28 0 0 0-3.182-4.22zm-.484 9.339a.752.752 0 0 1-.484.692l-5.95 1.589-3.182 7.75 3.044 5.4a.64.64 0 0 1-.138.83l-3.6 3.6a.736.736 0 0 1-.83.138l-5.4-3.044-7.743 3.175-1.659 5.951a.687.687 0 0 1-.692.484H30.3a.833.833 0 0 1-.692-.484l-1.591-5.949-7.748-3.182-5.4 3.044a.64.64 0 0 1-.83-.138l-3.6-3.6a.736.736 0 0 1-.138-.83l3.044-5.4-3.176-7.745-5.949-1.659a.687.687 0 0 1-.484-.692V30.3a.752.752 0 0 1 .484-.692l5.949-1.66 3.182-7.748-3.044-5.327a.64.64 0 0 1 .138-.83l3.6-3.6a.736.736 0 0 1 .83-.138l5.4 3.044 7.748-3.182 1.66-5.949a.687.687 0 0 1 .692-.484h5.05a.833.833 0 0 1 .692.484l1.66 5.949 7.748 3.251 5.4-3.044a.64.64 0 0 1 .83.138l3.6 3.6a.736.736 0 0 1 .138.83l-3.044 5.4 3.113 7.679 5.938 1.656a.687.687 0 0 1 .484.692z"></path>
    <path d="M32.859 20.407a12.452 12.452 0 1 0 12.448 12.452 12.489 12.489 0 0 0-12.448-12.452zm0 21.168a8.716 8.716 0 1 1 8.716-8.716 8.724 8.724 0 0 1-8.716 8.716z"></path>
  </symbol>
  <symbol xmlns="http://www.w3.org/2000/svg" viewBox="0 0 91.613 84" id="Shop">
    <path d="M91.1 11l-.3-.3a3.041 3.041 0 0 0-2.2-1h-69L19.3 8a9.475 9.475 0 0 0-9.4-8h-7A2.84 2.84 0 0 0 0 2.9a2.9 2.9 0 0 0 2.9 2.9H10a3.655 3.655 0 0 1 3.6 3l6 36.1a1.884 1.884 0 0 0 .2.8l1 6.2a11.565 11.565 0 0 0 11.3 9.6h46.4a2.84 2.84 0 0 0 2.9-2.9 2.9 2.9 0 0 0-2.9-2.9H32a5.51 5.51 0 0 1-5.5-4.6l-.6-3.3h54a2.193 2.193 0 0 0 1.6-.2 3.171 3.171 0 0 0 1.5-1.9l8.4-32.1a2.691 2.691 0 0 0-.3-2.6zM85 15.7l-7 26.4H25l-4.3-26.4H85zM32.9 64.3a9.8 9.8 0 1 0 9.8 9.8 9.816 9.816 0 0 0-9.8-9.8zm0 5.9a3.76 3.76 0 0 1 3.8 3.9 3.971 3.971 0 0 1-3.9 3.9 3.9 3.9 0 0 1 .1-7.8zm32.4-5.9a9.85 9.85 0 1 0 9.8 9.9 9.816 9.816 0 0 0-9.8-9.9zm-.1 5.9a3.842 3.842 0 0 1 3.9 3.9 3.9 3.9 0 0 1-7.8 0 3.842 3.842 0 0 1 3.9-3.9z"></path>
  </symbol>
  <symbol xmlns="http://www.w3.org/2000/svg" viewBox="0 0 86.666 64.986" id="sign-out">
    <path d="M8.123 0h22.339a2.037 2.037 0 0 1 2.031 2.031v1.355a2.037 2.037 0 0 1-2.031 2.031H8.123a2.716 2.716 0 0 0-2.707 2.707v48.74a2.716 2.716 0 0 0 2.707 2.707h22.339a2.037 2.037 0 0 1 2.031 2.031v1.355a2.037 2.037 0 0 1-2.031 2.031H8.123A8.123 8.123 0 0 1 0 56.863V8.123A8.123 8.123 0 0 1 8.123 0zm47.216 3.3l-1.2 1.2a2.034 2.034 0 0 0 0 2.876l22.337 22.241H29.107a2.037 2.037 0 0 0-2.031 2.031v1.693a2.037 2.037 0 0 0 2.031 2.031h47.369L54.153 57.61a2.034 2.034 0 0 0 0 2.876l1.2 1.2a2.034 2.034 0 0 0 2.876 0l27.84-27.756a2.034 2.034 0 0 0 0-2.876L58.215 3.3a2.034 2.034 0 0 0-2.876 0z"></path>
  </symbol>
  <symbol xmlns="http://www.w3.org/2000/svg" viewBox="0 0 40.852 64.219" id="Sort">
    <path d="M27.195 62.289V.039a.053.053 0 0 1 .1 0l13.548 22.562a.053.053 0 0 1-.047.082h-9.984a.053.053 0 0 0-.053.053v39.711a1.789 1.789 0 0 1-2.035 1.754 1.877 1.877 0 0 1-1.526-1.912zM13.658 1.907v62.254a.053.053 0 0 1-.1 0L.009 41.589a.053.053 0 0 1 .047-.082h9.976a.053.053 0 0 0 .053-.053V1.772A1.789 1.789 0 0 1 12.12.018a1.877 1.877 0 0 1 1.538 1.889z"></path>
  </symbol>
  <symbol xmlns="http://www.w3.org/2000/svg" viewBox="0 0 95.144 88.605" id="ThumbDown">
    <path d="M91.238 41.1a7.63 7.63 0 0 1 3.806 7.6 8.124 8.124 0 0 1-8.212 6.8H61.794c.2.5.5 1.2.7 1.8 1.5 3.8 4.307 10.8 4.307 18 0 8.1-5.709 13-9.615 13.3-2.4.1-4.206-1.4-4.607-4.1-.7-5.1-4.106-12.6-5.508-15.5a7.759 7.759 0 0 0-1.6-2.4c-2.3-2.6-8.112-9-13.621-12.8 0-.2.1-.5.1-.7V5.2c0-.4-.1-.8-.1-1.2a95.593 95.593 0 0 1 27.241-4h21.331a7.978 7.978 0 0 1 7.912 6.1 7.841 7.841 0 0 1-2.5 7.5 7.81 7.81 0 0 1 6.01 7.5 7.457 7.457 0 0 1-2.7 5.8 7.81 7.81 0 0 1 6 7.5 7.729 7.729 0 0 1-3.906 6.7zM20.932 57.3H4.206A4.229 4.229 0 0 1 0 53.1V5.2A4.229 4.229 0 0 1 4.206 1h16.726a4.229 4.229 0 0 1 4.206 4.2V53a4.188 4.188 0 0 1-4.206 4.3zm-8.313-49a4.4 4.4 0 1 0 4.407 4.4 4.442 4.442 0 0 0-4.407-4.4z"></path>
  </symbol>
  <symbol xmlns="http://www.w3.org/2000/svg" viewBox="0 0 95 88.605" id="ThumbUp">
    <path d="M91.1 47.505a7.633 7.633 0 0 0 3.8-7.6 8.115 8.115 0 0 0-8.2-6.8h-25c.2-.5.5-1.2.7-1.8 1.5-3.8 4.3-10.8 4.3-18 0-8.1-5.7-13-9.6-13.3-2.4-.1-4.2 1.4-4.6 4.1-.7 5.1-4.1 12.6-5.5 15.5a7.76 7.76 0 0 1-1.6 2.4c-2.3 2.6-8.1 9-13.6 12.8 0 .2.1.5.1.7v47.9c0 .4-.1.8-.1 1.2a95.315 95.315 0 0 0 27.2 4h21.3a7.968 7.968 0 0 0 7.9-6.1 7.848 7.848 0 0 0-2.5-7.5 7.808 7.808 0 0 0 6-7.5 7.461 7.461 0 0 0-2.7-5.8 7.695 7.695 0 0 0 2.1-14.2zm-70.2-16.2H4.2a4.225 4.225 0 0 0-4.2 4.2v47.9a4.225 4.225 0 0 0 4.2 4.2h16.7a4.225 4.225 0 0 0 4.2-4.2v-47.8a4.185 4.185 0 0 0-4.2-4.3zm-8.3 49a4.4 4.4 0 1 1 4.4-4.4 4.439 4.439 0 0 1-4.4 4.4z"></path>
  </symbol>
  <symbol xmlns="http://www.w3.org/2000/svg" viewBox="0 0 76.001 75.87" id="Trend">
    <path d="M41.7.09C19.5-1.41 0 16.07 0 37.87a34.406 34.406 0 0 0 .3 4.6 1.007 1.007 0 0 0 1.7.6l3.7-3.7a1.136 1.136 0 0 0 .3-.8v-.7a32.02 32.02 0 0 1 34.3-31.9 32.078 32.078 0 0 1 29.6 29.6A32.02 32.02 0 0 1 38 69.87a31.938 31.938 0 0 1-28.4-17.4l12.2-12.2L35 53.47a.967.967 0 0 0 1.4 0l18.8-18.8c-5.783-5.564 4.269 4.817 6 6.7V24.59H44.3c1.822 1.688 12.532 11.712 6.875 6.165L35.8 45.67l-13.2-13.2a.967.967 0 0 0-1.4 0L3 50.67a.913.913 0 0 0-.2 1.1A37.721 37.721 0 0 0 38 75.87a37.953 37.953 0 0 0 37.9-40.7C74.6 16.47 60.4 1.39 41.7.09z"></path>
  </symbol>
  <symbol xmlns="http://www.w3.org/2000/svg" viewBox="0 0 69.13 46.301" id="Up">
    <path d="M39.578 44.01l28.006-33.244A6.553 6.553 0 0 0 62.565 0H6.552a6.563 6.563 0 0 0-5.019 10.766L29.539 44.01a6.643 6.643 0 0 0 10.039 0z"></path>
  </symbol>
  <symbol xmlns="http://www.w3.org/2000/svg" viewBox="0 0 61.394 61.394" id="user-alt">
    <path d="M30.7 3.837a13.43 13.43 0 1 1-13.43 13.43A13.43 13.43 0 0 1 30.7 3.837m15.345 38.371A11.53 11.53 0 0 1 57.557 53.72v3.837H3.837V53.72a11.53 11.53 0 0 1 11.511-11.512c10.191 0 8.07 1.919 15.348 1.919s5.145-1.919 15.348-1.919M30.7 0a17.267 17.267 0 1 0 17.264 17.267A17.267 17.267 0 0 0 30.7 0zm15.345 38.371c-11.079 0-8.512 1.919-15.348 1.919s-4.282-1.919-15.348-1.919A15.348 15.348 0 0 0 0 53.72v3.837a3.834 3.834 0 0 0 3.837 3.837h53.72a3.834 3.834 0 0 0 3.837-3.837V53.72a15.348 15.348 0 0 0-15.349-15.349z"></path>
  </symbol>
  <symbol xmlns="http://www.w3.org/2000/svg" viewBox="0 0 18.099 73.888" id="VerticalDots">
    <g transform="rotate(90 9.05 9.05)">
      <ellipse cx="8.209" cy="9.049" rx="8.209" ry="9.049"></ellipse>
      <ellipse cx="8.209" cy="9.049" rx="8.209" ry="9.049" transform="translate(28.733)"></ellipse>
      <ellipse cx="8.209" cy="9.049" rx="8.209" ry="9.049" transform="translate(57.469)"></ellipse>
    </g>
  </symbol>
  <symbol xmlns="http://www.w3.org/2000/svg" viewBox="0 0 73.044 64.977" id="View001">
    <path d="M22.894 23.985H0v17.007h22.894zm-4.36 12.755H4.361v-8.394h14.173zm54.51-12.755H30.526v17.007h42.518zM68.683 36.74h-33.8v-8.394h33.8zM22.894 0H0v17.007h22.894zm-4.36 12.755H4.361V4.361h14.173zM73.044 0H30.526v17.007h42.518zm-4.361 12.755h-33.8V4.361h33.8zM22.894 47.969H0v17.007h22.894zm-4.36 12.755H4.361V52.33h14.173zm54.51-12.755H30.526v17.007h42.518zm-4.361 12.755h-33.8V52.33h33.8z"></path>
  </symbol>
  <symbol xmlns="http://www.w3.org/2000/svg" viewBox="0 0 116 63.456" id="View002">
    <path d="M59.728.049C59.156.018 58.58 0 58 0s-1.156.018-1.728.049C25.656 1.074 1.64 28.853.614 30.059a2.577 2.577 0 0 0 0 3.342c1.025 1.2 25.04 28.982 55.656 30.007.573.031 1.148.049 1.728.049s1.156-.018 1.728-.049c30.616-1.025 54.631-28.8 55.656-30.007a2.577 2.577 0 0 0 0-3.342C114.36 28.853 90.344 1.074 59.728.049zM58 58.301a26.573 26.573 0 1 1 26.572-26.572A26.573 26.573 0 0 1 58 58.301z"></path>
    <path d="M75.256 28.817c-2.761 2.761-8.028 1.971-11.763-1.764s-4.526-9-1.765-11.763a5.341 5.341 0 0 1 1.4-.994 17.867 17.867 0 1 0 13.4 12.455 5.427 5.427 0 0 1-1.276 2.066z"></path>
  </symbol>
  <symbol xmlns="http://www.w3.org/2000/svg" viewBox="0 0 59.573 57" id="View003">
    <g transform="translate(1.427 1.226)" fill="none" stroke="#000" stroke-linecap="round" stroke-linejoin="round" stroke-miterlimit="10" stroke-width="2">
      <circle cx="6.5" cy="6.5" r="6.5" transform="translate(-.427 -.226)"></circle>
      <circle cx="6.5" cy="6.5" r="6.5" transform="translate(-.427 20.774)"></circle>
      <circle cx="6.5" cy="6.5" r="6.5" transform="translate(-.427 41.774)"></circle>
      <path d="M23.378 2.598h33.768m-33.768 7.793h18.183M23.378 23.378h33.768m-33.768 7.793h23.378M23.378 44.158h33.768m-33.768 7.793h10.39"></path>
    </g>
  </symbol>
  <symbol xmlns="http://www.w3.org/2000/svg" viewBox="0 0 70.215 63.911" id="Warning">
    <path d="M68.381 46.046L45.147 5.804a11.6 11.6 0 0 0-20.1 0l-23.5 40.7A11.6 11.6 0 0 0 11.6 63.911h47.11a11.6 11.6 0 0 0 9.672-17.863zm-33.273-29.2c3.634 0 4.52 2.733 4.3 4.3l-2.184 16.957a2.109 2.109 0 0 1-2.117 2.115 2.009 2.009 0 0 1-2.117-2.115l-2.18-16.959c-.223-1.61.69-4.298 4.297-4.298zm3.141 33.27a4.436 4.436 0 1 1 1.308-3.152 4.456 4.456 0 0 1-1.308 3.153z"></path>
  </symbol>
  <symbol xmlns="http://www.w3.org/2000/svg" viewBox="0 0 63.905 63.903" id="Add">
    <path d="M47.979 30.469H33.755V16.245a1.486 1.486 0 0 0-2.972 0v14.224H15.831a1.486 1.486 0 1 0 0 2.972h14.967v14.967a1.486 1.486 0 0 0 2.973 0V33.441h14.223a1.486 1.486 0 1 0-.015-2.972z"></path>
    <path d="M31.957.001a31.954 31.954 0 1 0 22.591 9.363A31.951 31.951 0 0 0 31.957.001zm0 60.936a28.982 28.982 0 1 1 28.982-28.982 29.019 29.019 0 0 1-28.982 28.982z"></path>
  </symbol>
  <symbol xmlns="http://www.w3.org/2000/svg" viewBox="0 0 76.247 54.922" id="Approve">
    <path d="M1.799 26.837l23.653 24.508 24.7-24.983 24.321-24.6" fill="none" stroke="#000" stroke-width="5"></path>
  </symbol>
  <symbol xmlns="http://www.w3.org/2000/svg" viewBox="0 0 78.092 65.082" id="Arrow">
    <path d="M47.722 17.36C17.352 21.694 4.342 43.388 0 65.082 10.847 49.893 26.028 42.95 47.722 42.95v17.79l30.37-30.37L47.722 0z"></path>
  </symbol>
  <symbol xmlns="http://www.w3.org/2000/svg" viewBox="0 0 38.304 49.848" id="ArrowDow004">
    <path d="M19.152 49.848l19.152-23.3H26.76V0H11.543v26.548H.004z"></path>
  </symbol>
  <symbol xmlns="http://www.w3.org/2000/svg" viewBox="0 0 78.443 44.036" id="ArrowDown001">
    <path d="M42.627 42.627L77.034 8.338a4.962 4.962 0 0 0 0-6.928 4.963 4.963 0 0 0-6.928 0L39.222 32.293 8.338 1.409a4.962 4.962 0 0 0-6.928 0 4.962 4.962 0 0 0 0 6.928l34.29 34.29a4.962 4.962 0 0 0 6.927 0z" fill-rule="evenodd"></path>
  </symbol>
  <symbol xmlns="http://www.w3.org/2000/svg" viewBox="0 0 40.124 51.234" id="ArrowDown002">
    <path d="M40.124 31.172l-3.937-3.991L22.867 40.5V0h-5.609v40.5L3.937 27.181 0 31.172l20.062 20.062z"></path>
  </symbol>
  <symbol xmlns="http://www.w3.org/2000/svg" viewBox="0 0 53.348 52.562" id="ArrowDown003">
    <path d="M34.592 52.562l18.756-24.6H42.735A34.477 34.477 0 0 0 8.873 0 35.57 35.57 0 0 0 0 1.123a27.376 27.376 0 0 1 26.506 26.843H15.892z"></path>
  </symbol>
  <symbol xmlns="http://www.w3.org/2000/svg" viewBox="0 0 63.64 46.98" id="ArrowDown005">
    <path d="M.171.81a1.54 1.54 0 0 0-.172.706 1.521 1.521 0 0 0 .267.859l30.282 43.95a1.515 1.515 0 0 0 2.495 0L63.374 2.38A1.521 1.521 0 0 0 62.101 0H1.514A1.515 1.515 0 0 0 .172.81z"></path>
  </symbol>
  <symbol xmlns="http://www.w3.org/2000/svg" viewBox="0 0 99.805 70.474" id="ArrowLeft001">
    <path d="M32.624 69.198a3.55 3.55 0 1 0 5-5l-25.51-25.54h84.32a3.56 3.56 0 0 0 0-7.11h-84.32l25.55-25.51a3.62 3.62 0 0 0 0-5 3.53 3.53 0 0 0-5 0l-31.6 31.6a3.47 3.47 0 0 0 0 5z"></path>
  </symbol>
  <symbol xmlns="http://www.w3.org/2000/svg" viewBox="0 0 35.562 63.657" id="ArrowLeft002">
    <path d="M31.775-.001a3.8 3.8 0 0 1 2.681 1.073 3.722 3.722 0 0 1 0 5.3L9.05 31.841l25.406 25.405a3.722 3.722 0 0 1 0 5.3 3.784 3.784 0 0 1-5.3.067L1.073 34.522A3.692 3.692 0 0 1 0 31.841a3.986 3.986 0 0 1 1.073-2.681L29.16 1.072a3.649 3.649 0 0 1 2.615-1.073z"></path>
  </symbol>
  <symbol xmlns="http://www.w3.org/2000/svg" viewBox="0 0 46.98 63.64" id="ArrowLeft003">
    <path d="M46.17.171a1.54 1.54 0 0 0-.706-.172 1.521 1.521 0 0 0-.859.267L.655 30.548a1.515 1.515 0 0 0 0 2.495L44.6 63.374a1.521 1.521 0 0 0 2.38-1.273V1.514a1.515 1.515 0 0 0-.81-1.342z"></path>
  </symbol>
  <symbol xmlns="http://www.w3.org/2000/svg" viewBox="0 0 43.508 82.867" id="ArrowLeft004">
    <path d="M0 41.433a2.877 2.877 0 0 1 .824-2.022L38.554.87a2.892 2.892 0 0 1 4.958 2.022v77.083a2.892 2.892 0 0 1-4.958 2.023L.824 43.454A2.877 2.877 0 0 1 0 41.433zM37.725 9.978L6.938 41.433l30.787 31.455z"></path>
  </symbol>
  <symbol xmlns="http://www.w3.org/2000/svg" viewBox="0 0 99.805 70.474" id="ArrowRight001">
    <path d="M67.181 1.276a3.55 3.55 0 1 0-5 5l25.51 25.54H3.371a3.56 3.56 0 0 0 0 7.11h84.32l-25.55 25.51a3.62 3.62 0 0 0 0 5 3.53 3.53 0 0 0 5 0l31.6-31.6a3.47 3.47 0 0 0 0-5z"></path>
  </symbol>
  <symbol xmlns="http://www.w3.org/2000/svg" viewBox="0 0 35.562 63.657" id="ArrowRight002">
    <path d="M3.787 63.658a3.8 3.8 0 0 1-2.681-1.073 3.722 3.722 0 0 1 0-5.3l25.406-25.469L1.106 6.411a3.722 3.722 0 0 1 0-5.3 3.784 3.784 0 0 1 5.3-.067l28.083 28.091a3.692 3.692 0 0 1 1.073 2.681 3.986 3.986 0 0 1-1.073 2.681L6.402 62.585a3.649 3.649 0 0 1-2.615 1.073z"></path>
  </symbol>
  <symbol xmlns="http://www.w3.org/2000/svg" viewBox="0 0 46.98 63.64" id="ArrowRight003">
    <path d="M.81 63.469a1.54 1.54 0 0 0 .706.172 1.521 1.521 0 0 0 .859-.267l43.95-30.282a1.515 1.515 0 0 0 0-2.495L2.38.266A1.521 1.521 0 0 0 0 1.539v60.587a1.515 1.515 0 0 0 .81 1.342z"></path>
  </symbol>
  <symbol xmlns="http://www.w3.org/2000/svg" viewBox="0 0 43.508 82.867" id="ArrowRight004">
    <path d="M43.508 41.434a2.877 2.877 0 0 1-.824 2.022L4.954 81.997a2.892 2.892 0 0 1-4.958-2.022V2.892A2.892 2.892 0 0 1 4.954.869l37.73 38.544a2.877 2.877 0 0 1 .824 2.021zM5.783 72.889L36.57 41.434 5.783 9.979z"></path>
  </symbol>
  <symbol xmlns="http://www.w3.org/2000/svg" viewBox="0 0 78.443 44.036" id="ArrowUp001">
    <path d="M35.817 1.409L1.41 35.698a4.962 4.962 0 0 0 0 6.928 4.963 4.963 0 0 0 6.928 0l30.884-30.883 30.884 30.884a4.962 4.962 0 0 0 6.928 0 4.962 4.962 0 0 0 0-6.928l-34.29-34.29a4.962 4.962 0 0 0-6.927 0z" fill-rule="evenodd"></path>
  </symbol>
  <symbol xmlns="http://www.w3.org/2000/svg" viewBox="0 0 40.124 51.234" id="ArrowUp002">
    <path d="M0 20.062l3.937 3.991 13.32-13.319v40.5h5.609v-40.5l13.321 13.319 3.937-3.991L20.062 0z"></path>
  </symbol>
  <symbol xmlns="http://www.w3.org/2000/svg" viewBox="0 0 53.35 52.562" id="ArrowUp003">
    <path d="M34.593 0L53.35 24.596H42.736A34.478 34.478 0 0 1 8.873 52.562 35.572 35.572 0 0 1 0 51.439a27.376 27.376 0 0 0 26.507-26.843H15.893z"></path>
  </symbol>
  <symbol xmlns="http://www.w3.org/2000/svg" viewBox="0 0 38.304 49.848" id="ArrowUp004">
    <path d="M19.152 0L0 23.3h11.544v26.548h15.217V23.3H38.3z"></path>
  </symbol>
  <symbol xmlns="http://www.w3.org/2000/svg" viewBox="0 0 63.64 46.98" id="ArrowUp005">
    <path d="M63.469 46.17a1.54 1.54 0 0 0 .172-.706 1.521 1.521 0 0 0-.267-.859L33.092.655a1.515 1.515 0 0 0-2.495 0L.266 44.6a1.521 1.521 0 0 0 1.273 2.38h60.587a1.515 1.515 0 0 0 1.342-.81z"></path>
  </symbol>
  <symbol xmlns="http://www.w3.org/2000/svg" viewBox="0 0 56.428 64.489" id="Calendar">
    <path d="M50.382 8.061h-6.046v-6.55A1.512 1.512 0 0 0 42.825 0h-1.008a1.512 1.512 0 0 0-1.511 1.511v6.55H16.122v-6.55A1.512 1.512 0 0 0 14.611 0H13.6a1.512 1.512 0 0 0-1.511 1.511v6.55H6.046A6.046 6.046 0 0 0 0 14.107v44.336a6.046 6.046 0 0 0 6.046 6.046h44.336a6.046 6.046 0 0 0 6.046-6.046V14.107a6.046 6.046 0 0 0-6.046-6.046zM6.046 12.092h44.336a2.018 2.018 0 0 1 2.018 2.015v6.046H4.031v-6.046a2.018 2.018 0 0 1 2.015-2.015zm44.336 48.366H6.046a2.018 2.018 0 0 1-2.015-2.015v-34.26H52.4v34.26a2.018 2.018 0 0 1-2.018 2.015z"></path>
  </symbol>
  <symbol xmlns="http://www.w3.org/2000/svg" viewBox="0 0 75.052 64" id="Check">
    <path d="M0 33.257c1.547-3.094 4.64-6.961 10.054-5.414 4.64 1.547 7.734 6.187 10.054 12.375C38.671 19.335 54.139 4.64 72.7 0c2.32 0 3.094 0 1.547 1.547C54.139 15.468 34.8 36.35 19.335 63.42a1.45 1.45 0 0 1-2.32 0c-3.094-7.734-5.414-15.468-9.281-23.2C6.187 36.35 3.867 33.257 0 33.257z"
      fill-rule="evenodd"></path>
  </symbol>
  <symbol xmlns="http://www.w3.org/2000/svg" viewBox="0 0 35.253 64.916" id="chevron-right">
    <path d="M1.562.525L.536 1.553a1.731 1.731 0 0 0 0 2.47l28.436 28.438L.519 60.898a1.731 1.731 0 0 0 0 2.47l1.03 1.03a1.73 1.73 0 0 0 2.47 0l30.716-30.717a1.731 1.731 0 0 0 0-2.47L4.019.494a1.731 1.731 0 0 0-2.453.03z"></path>
  </symbol>
  <symbol xmlns="http://www.w3.org/2000/svg" viewBox="0 0 64.728 64.728" id="Close001">
    <path d="M32.364 27.741L60.1 0l4.623 4.623-27.735 27.741L64.728 60.1 60.1 64.728l-27.736-27.74-27.741 27.74L0 60.1l27.741-27.736L0 4.623 4.623 0z"></path>
  </symbol>
  <symbol xmlns="http://www.w3.org/2000/svg" viewBox="0 0 72.877 72.877" id="Close002">
    <path d="M53.55 19.327a1.949 1.949 0 0 0-2.758 0L36.439 33.681 22.086 19.327a1.95 1.95 0 1 0-2.758 2.758l14.353 14.354-14.354 14.352a1.95 1.95 0 0 0 2.758 2.758l14.354-14.353 14.352 14.353a1.95 1.95 0 0 0 2.758-2.758L39.196 36.439l14.353-14.353a1.95 1.95 0 0 0 .001-2.759zM36.439 0a36.439 36.439 0 1 0 36.438 36.439A36.48 36.48 0 0 0 36.439 0zm0 68.977a32.538 32.538 0 1 1 32.538-32.538 32.575 32.575 0 0 1-32.538 32.538z"></path>
  </symbol>
  <symbol xmlns="http://www.w3.org/2000/svg" viewBox="0 0 24.414 64.9" id="Collapse">
    <path d="M10.189 2.052v17.712L4.855 14.43a2.08 2.08 0 0 0-2.941 2.941l8.89 8.89a1.968 1.968 0 0 0 1.436.615 1.863 1.863 0 0 0 1.436-.615l8.89-8.89a2.085 2.085 0 0 0 .615-1.436 1.863 1.863 0 0 0-.613-1.435 2.064 2.064 0 0 0-2.941 0l-5.334 5.334V2.052a2.052 2.052 0 1 0-4.1 0zM0 32.485a2.057 2.057 0 0 0 2.052 2.048h20.311a2.052 2.052 0 1 0 0-4.1H2.12A2.073 2.073 0 0 0 0 32.485zM1.914 47.53a2.08 2.08 0 0 0 2.941 2.941l5.334-5.334v17.711a2.052 2.052 0 1 0 4.1 0V45.136l5.334 5.334a2.064 2.064 0 0 0 2.941 0 2.085 2.085 0 0 0 .615-1.436 1.863 1.863 0 0 0-.615-1.436l-8.89-8.89a1.968 1.968 0 0 0-1.436-.615 1.863 1.863 0 0 0-1.436.615z"></path>
  </symbol>
  <symbol xmlns="http://www.w3.org/2000/svg" viewBox="0 0 68.887 68.895" id="Collapse001">
    <path d="M59.185 64.339H15.44c-1.9 0-3.805.008-5.708 0a8.464 8.464 0 0 1-.978-.061c.2.03.4.053.606.083a7.7 7.7 0 0 1-1.96-.537l.546.227a7.987 7.987 0 0 1-1.228-.667c-.083-.053-.159-.114-.243-.174-.311-.22.493.409.068.045-.167-.136-.326-.288-.478-.44s-.3-.311-.44-.478c-.356-.424.265.379.045.068l-.174-.243a6.871 6.871 0 0 1-.667-1.228l.227.546a7.7 7.7 0 0 1-.538-1.963c.03.2.053.4.083.606a17.489 17.489 0 0 1-.061-2.092V15.539c0-1.933-.008-3.873 0-5.806a8.464 8.464 0 0 1 .061-.978c-.03.2-.053.4-.083.606A7.7 7.7 0 0 1 5.056 7.4l-.227.546a7.987 7.987 0 0 1 .667-1.228c.053-.083.114-.159.174-.243.22-.311-.409.493-.045.068.136-.167.288-.326.44-.478s.311-.3.478-.44c.424-.356-.379.265-.068.045l.243-.174a6.871 6.871 0 0 1 1.228-.667l-.546.227a7.7 7.7 0 0 1 1.963-.538c-.2.03-.4.053-.606.083a17.489 17.489 0 0 1 2.092-.061h42.494c1.933 0 3.873-.008 5.806 0a8.465 8.465 0 0 1 .978.061c-.2-.03-.4-.053-.606-.083a7.7 7.7 0 0 1 1.963.538l-.546-.227a7.987 7.987 0 0 1 1.228.667c.083.053.159.114.243.174.311.22-.493-.409-.068-.045.167.136.326.288.478.44s.3.311.44.478c.356.424-.265-.379-.045-.068l.174.243a6.871 6.871 0 0 1 .667 1.228l-.231-.546a7.7 7.7 0 0 1 .538 1.963c-.03-.2-.053-.4-.083-.606a17.487 17.487 0 0 1 .061 2.092v42.494c0 1.933.008 3.873 0 5.806a8.464 8.464 0 0 1-.061.978c.03-.2.053-.4.083-.606a7.7 7.7 0 0 1-.538 1.963l.227-.546a7.987 7.987 0 0 1-.667 1.228c-.053.083-.114.159-.174.243-.22.311.409-.493.045-.068-.136.167-.288.326-.44.478s-.311.3-.478.44c-.424.356.379-.265.068-.045l-.243.174a6.871 6.871 0 0 1-1.228.667l.546-.227a7.7 7.7 0 0 1-1.963.538c.2-.03.4-.053.606-.083a7.726 7.726 0 0 1-.94.061 2.274 2.274 0 0 0 0 4.548 9.793 9.793 0 0 0 9.505-7.792 18.011 18.011 0 0 0 .2-3.184v-48.1a9.839 9.839 0 0 0-4.882-8.528 10.785 10.785 0 0 0-5.5-1.289H9.49A9.749 9.749 0 0 0 0 9.967V58.3a11.312 11.312 0 0 0 .675 4.4 9.683 9.683 0 0 0 9.066 6.193h49.452a2.3 2.3 0 0 0 2.274-2.274 2.329 2.329 0 0 0-2.282-2.28z"></path>
    <path d="M17.866 36.718h29.077c1.342 0 2.683.03 4.025 0h.061a2.274 2.274 0 0 0 0-4.548H21.952c-1.342 0-2.683-.03-4.025 0h-.061a2.274 2.274 0 0 0 0 4.548z"></path>
  </symbol>
  <symbol xmlns="http://www.w3.org/2000/svg" viewBox="0 0 95.098 87.5" id="Compare">
    <path d="M40.547 54.1a3 3 0 0 0-5.1 2.1V69h-9a10.968 10.968 0 0 1-11-11V27.7a12.983 12.983 0 1 0-15.2-10.3 13.158 13.158 0 0 0 9.2 10.1V58a16.986 16.986 0 0 0 17 17h9v9.5a2.946 2.946 0 0 0 3 3 2.723 2.723 0 0 0 2.1-.9l14.1-14.1a2.9 2.9 0 0 0 0-4.2zM5.947 15a7 7 0 1 1 7 7 6.957 6.957 0 0 1-7-7zm35.5 62.2V63.4l6.9 6.9zm44.2-17.2V29.5a16.986 16.986 0 0 0-17-17h-9V3a2.946 2.946 0 0 0-3-3 2.723 2.723 0 0 0-2.1.9L40.447 15a2.9 2.9 0 0 0 0 4.2l14.1 14.2a3 3 0 0 0 5.1-2.1V18.5h9a10.968 10.968 0 0 1 11 11v30.2a13.093 13.093 0 1 0 6 .3zm-32-36l-6.9-6.9 6.9-6.9zm28.5 55.5a7 7 0 1 1 7-7 6.957 6.957 0 0 1-7 7z"></path>
  </symbol>
  <symbol xmlns="http://www.w3.org/2000/svg" viewBox="0 0 63.542 64.001" id="Contract">
    <path d="M57.828.08H14.013a5.664 5.664 0 0 0-2.737.7 13.821 13.821 0 0 1 5.134 2.287h41.418A2.739 2.739 0 0 1 60.555 5.8v48.982A6.223 6.223 0 0 1 54.333 61a.035.035 0 0 0-.02.01 6.256 6.256 0 0 1-6.142-6.238 6.184 6.184 0 0 1 1.8-4.384H11.277V18.4l-2.986-2.988v34.976H1.109A9.075 9.075 0 0 0 0 54.772 9.223 9.223 0 0 0 9.209 64h45.144c.03 0 .06-.01.09-.01a9.214 9.214 0 0 0 9.1-9.208V5.8A5.728 5.728 0 0 0 57.828.08zM3.058 5.632l2.771-2.771L3.54.571A1.959 1.959 0 0 0 .771 3.342z"></path>
    <path d="M30.624 25.023l-5.4 5.4c.2.212.41.429.622.641 2.554 2.554 8.014 7.05 10.057 7.638l3-3c-.588-2.044-5.083-7.5-7.638-10.057-.212-.212-.429-.419-.641-.622zm10.818 15.888l-1.588-4.233-2.993 2.993 4.233 1.588a.27.27 0 0 0 .348-.348zM24.71 29.009l4.5-4.5L8.971 4.275c2.066-.469 5.075.8 7.467 3.2a11.375 11.375 0 0 1 3.137 5.321l1.709 1.704c.042-2.468-1.374-5.486-3.88-7.992-3.062-3.062-6.9-4.53-9.548-3.653a.5.5 0 0 0-.187.117l-.009-.008-4.5 4.5zm26.886-18.442h-29.1a11.048 11.048 0 0 1 .6 2h28.5v-2zm0 8.17H26.258l2 2h23.338zm0 8.169H35.127a69.187 69.187 0 0 1 1.678 2h14.792v-2zM22.133 37.074h7.538a86.533 86.533 0 0 1-2.417-2h-5.121zm29.463-1.998H41.389l.749 2h9.458zM22.13 43.243h29.463v1.997H22.13z"></path>
  </symbol>
  <symbol xmlns="http://www.w3.org/2000/svg" viewBox="0 0 65.524 64.974" id="Copy">
    <path d="M65.524 0v53.88H53.881v11.094H0v-53.88h11.645V0h53.879zM22.387 14.161h19.781V19.5H22.387zm0 21.311h33v5.34h-33zm0-10.656h33v5.34h-33zM48.54 53.88H11.645V16.434h-6.3v43.2h43.2zM60.184 5.34h-43.2v43.2h43.2z"></path>
  </symbol>
  <symbol xmlns="http://www.w3.org/2000/svg" viewBox="0 0 64.306 64.319" id="CreateContract">
    <path d="M63.299 12.058h-11.05V1a1 1 0 0 0-1-1h-2.01a1 1 0 0 0-1 1v11.058H37.176a1 1 0 0 0-1 1v2.01a1 1 0 0 0 1 1h11.053V27.13a1 1 0 0 0 1 1h2.01a1 1 0 0 0 1-1V16.077h11.06a1 1 0 0 0 1-1v-2.01a1 1 0 0 0-1-1.009zm-.85 34l-12.523-5.383 12.526-5.384a2.052 2.052 0 0 0 1.077-2.7 2.076 2.076 0 0 0-2.73-1.068l-28.3 12.165a.852.852 0 0 1-.687 0L5.685 32.456l24.3-10.45a2.052 2.052 0 0 0 1.077-2.7 2.074 2.074 0 0 0-2.731-1.065L1.859 29.618a3.095 3.095 0 0 0 0 5.673l12.526 5.384-12.528 5.384a3.1 3.1 0 0 0 0 5.675l28.3 12.172a5.046 5.046 0 0 0 3.993 0l28.3-12.162a3.1 3.1 0 0 0 0-5.675zm-29.95 14.069a.852.852 0 0 1-.687 0L5.683 48.895l13.909-5.979 10.563 4.54a5.046 5.046 0 0 0 4 0l10.567-4.542 13.915 5.981-26.131 11.232z"></path>
  </symbol>
  <symbol xmlns="http://www.w3.org/2000/svg" viewBox="0 0 67.493 63.908" id="Dashboard">
    <path d="M49.144 60.112v2.742a1.134 1.134 0 0 1-1.055 1.05H19.405a1.134 1.134 0 0 1-1.055-1.05v-2.742a3.737 3.737 0 0 1 3.691-3.691h3.375l1.054-6.117h14.553l1.055 6.117h3.372a3.737 3.737 0 0 1 3.694 3.691zM63.275 0H4.218A4.231 4.231 0 0 0 0 4.218v39.653a4.231 4.231 0 0 0 4.218 4.218h59.057a4.231 4.231 0 0 0 4.218-4.218V4.324A4.322 4.322 0 0 0 63.275 0zM33.747 44.292a2.531 2.531 0 1 1 2.531-2.531 2.566 2.566 0 0 1-2.531 2.531zm31.637-8.964H2.109v-31a2.115 2.115 0 0 1 2.109-2.113h59.057a2.115 2.115 0 0 1 2.109 2.109z"></path>
    <path d="M32.903 16.979v15.4a1.134 1.134 0 0 1-1.055 1.055h-6.01a1.057 1.057 0 0 1-1.055-1.059v-15.4a1 1 0 0 1 1.055-1.051h6.011a1.134 1.134 0 0 1 1.054 1.055zm9.913 3.48v11.916a1.057 1.057 0 0 1-1.055 1.055h-6.01a1.057 1.057 0 0 1-1.055-1.055V20.459a1 1 0 0 1 1.055-1.055h6.011a1.057 1.057 0 0 1 1.054 1.055zm9.913-6.749v18.666a1.134 1.134 0 0 1-1.055 1.055h-6.01a1.134 1.134 0 0 1-1.055-1.055V13.71a1.057 1.057 0 0 1 1.055-1.055h6.011a1.134 1.134 0 0 1 1.054 1.055zM22.884 24.15v8.331a1.057 1.057 0 0 1-1.055 1.055h-6.01a1.057 1.057 0 0 1-1.055-1.055V24.15a1 1 0 0 1 1.055-1.055h6.011a1 1 0 0 1 1.054 1.055z"></path>
    <path d="M49.035 9.28a1 1 0 0 1-1.055 1.055.958.958 0 0 1-1.055-.949l-.105-2-8.226 7.382a.959.959 0 0 1-1.16.105l-9.386-5.062-10.225 8.012a.956.956 0 0 1-1.476-.211 1.032 1.032 0 0 1 .211-1.476l10.757-8.437a.959.959 0 0 1 1.16-.105l9.28 5.062 7.17-6.434-2.215.105a1.057 1.057 0 0 1-1.054-1.054 1 1 0 0 1 1.055-1.055l5.167-.105a1.057 1.057 0 0 1 1.057 1.055z"></path>
  </symbol>
  <symbol xmlns="http://www.w3.org/2000/svg" viewBox="0 0 68 68" id="Delete001">
    <path d="M58 0H10A10 10 0 0 0 0 10v48a10 10 0 0 0 10 10h48a10 10 0 0 0 10-10V10A10 10 0 0 0 58 0zm-7.021 45.79l-5.19 5.189L34 39.19 22.21 50.98l-5.189-5.189L28.811 34l-11.79-11.79 5.189-5.189L34 28.81l11.789-11.79 5.19 5.189L39.189 34z"></path>
  </symbol>
  <symbol xmlns="http://www.w3.org/2000/svg" viewBox="0 0 77.241 65.001" id="Delete002">
    <path d="M59.267.001a1.745 1.745 0 0 1 1.509.933l10.289 18.987.027.027 5.954 11.744a1.781 1.781 0 0 1 0 1.619l-5.953 11.743-.027.027-10.29 18.988a1.745 1.745 0 0 1-1.509.933H1.756A1.756 1.756 0 0 1 0 63.246V1.784A1.775 1.775 0 0 1 .508.521a1.738 1.738 0 0 1 1.248-.52h57.511zM15.393 17.507a1.756 1.756 0 0 0-1.043 3.183l15.284 13.364-15.393 13.664a1.759 1.759 0 1 0 2.332 2.634l15.695-13.939 15.53 13.911a1.756 1.756 0 1 0 2.332-2.607L34.93 34.08l15.283-13.39a1.75 1.75 0 1 0-2.3-2.634L32.295 31.72l-15.64-13.666a1.756 1.756 0 0 0-1.262-.549z"
      fill-rule="evenodd"></path>
  </symbol>
  <symbol xmlns="http://www.w3.org/2000/svg" viewBox="0 0 79.217 87.217" id="Delete003">
    <path fill="none" d="M47.217 55.217h32v32h-32z"></path>
    <path d="M39.217 0a39.217 39.217 0 1 0 39.216 39.217A39.261 39.261 0 0 0 39.217 0zm9.242 44.762a2.616 2.616 0 1 1-3.7 3.7l-5.545-5.545-5.545 5.545a2.616 2.616 0 1 1-3.7-3.7l5.545-5.545-5.545-5.545a2.616 2.616 0 1 1 3.7-3.7l5.545 5.545 5.545-5.545a2.616 2.616 0 1 1 3.7 3.7l-5.545 5.545z"></path>
  </symbol>
  <symbol xmlns="http://www.w3.org/2000/svg" viewBox="0 0 74 89.7" id="Delete004">
    <path d="M49.4 0H24.6a5.8 5.8 0 0 0-5.8 5.8v6H0v6h7.1v65.9a6.018 6.018 0 0 0 6 6h47.8a6.018 6.018 0 0 0 6-6V17.8H74v-6H55.2v-6A5.741 5.741 0 0 0 49.4 0zM24.8 5.9h24.3v5.8H24.8zm36.1 77.6H13.1V17.8h47.8z"></path>
    <path d="M34 27.2h6v46.1h-6zm11 0h6v46.1h-6zm-22 0h6v46.1h-6z"></path>
  </symbol>
  <symbol xmlns="http://www.w3.org/2000/svg" viewBox="0 0 60.999 61.001" id="Details">
    <path d="M30.5 0C13.682 0 0 12.921 0 28.8a27.872 27.872 0 0 0 8.174 19.624l-1.209 2.418a6.992 6.992 0 0 0 .972 7.736l.089.1a7.023 7.023 0 0 0 7.681 1.873l9.168-3.439a32.409 32.409 0 0 0 5.625.494c16.818 0 30.5-12.921 30.5-28.8S47.318 0 30.5 0zM10.85 52.785l2.679-5.361-.446-.374A23.869 23.869 0 0 1 4.344 28.8c0-13.484 11.734-24.456 26.156-24.456S56.656 15.316 56.656 28.8 44.922 53.26 30.5 53.26a28.03 28.03 0 0 1-5.785-.6l-.215-.047-10.319 3.871a2.651 2.651 0 0 1-.94.171 2.689 2.689 0 0 1-1.988-.884 2.658 2.658 0 0 1-.403-2.986z"></path>
    <path d="M36.857 39.043c-2.257 4.19-5.29 6.46-6.762 6.788-1.235.275-2.4-.464-2.355-4.31L27.8 29.5c-.006-1.145-.1-1.572-.386-1.509a11.459 11.459 0 0 0-2.384 2.275l-.892-1.1c2.41-3.726 5.443-6.444 7.1-6.814 1.377-.306 2.021 1.245 1.97 4.595L33 38.755c-.037 1.4.238 1.741.523 1.678a7.265 7.265 0 0 0 2.316-2.359zm-4.329-23.7A3.49 3.49 0 0 1 29.9 19.66a2.518 2.518 0 0 1-3.109-2.1 3.562 3.562 0 0 1 2.558-4.407 2.6 2.6 0 0 1 3.179 2.185z"></path>
  </symbol>
  <symbol xmlns="http://www.w3.org/2000/svg" viewBox="0 0 54.841 64.068" id="Details-1">
    <path d="M54.841 0H0v64.068h54.841zM52.1 61.33H2.742V2.742H52.1z"></path>
    <path d="M18.063 33.727H9.186v8.877h8.877zm-2.742 6.135h-3.393v-3.393h3.393zm2.742-18.399H9.186v8.877h8.877zm-2.742 6.135h-3.393v-3.393h3.393zm2.742 18.393H9.186v8.877h8.877zm-2.742 6.14h-3.393v-3.4h3.393zM18.063 9.2H9.186v8.877h8.877zm-2.742 6.135h-3.393v-3.393h3.393zM45.66 33.727H21.45v8.877h24.21zm-2.742 6.135H24.192v-3.393h18.721zm2.742-18.399H21.45v8.877h24.21zm-2.742 6.135H24.192v-3.393h18.721zm2.742 18.393H21.45v8.877h24.21zm-2.747 6.14H24.192v-3.4h18.721zM45.66 9.2H21.45v8.877h24.21zm-2.742 6.135H24.192v-3.393h18.721z"></path>
  </symbol>
  <symbol xmlns="http://www.w3.org/2000/svg" viewBox="0 0 93.026 64.301" id="DirectionLeft">
    <path d="M91.373 30.501H5.649L33.307 2.83A1.655 1.655 0 1 0 30.97.485L.486 30.984a1.664 1.664 0 0 0 0 2.348l30.487 30.5a1.7 1.7 0 0 0 2.341 0 1.66 1.66 0 0 0 0-2.342L5.649 33.818h85.724a1.658 1.658 0 0 0 0-3.316z"></path>
  </symbol>
  <symbol xmlns="http://www.w3.org/2000/svg" viewBox="0 0 44.553 10.052" id="Dots">
    <path d="M5.026 0a5.026 5.026 0 1 0 5.027 5.026A5.026 5.026 0 0 0 5.026 0zm17.25 0a5.026 5.026 0 1 0 5.027 5.026A5.026 5.026 0 0 0 22.277 0zm17.25 0a5.026 5.026 0 1 0 5.027 5.026A5.026 5.026 0 0 0 39.526 0z"></path>
  </symbol>
  <symbol xmlns="http://www.w3.org/2000/svg" viewBox="0 0 69.13 46.301" id="Down">
    <path d="M29.553 2.292L1.547 35.536a6.553 6.553 0 0 0 5.019 10.766h56.013a6.563 6.563 0 0 0 5.019-10.766L39.592 2.292a6.643 6.643 0 0 0-10.039 0z"></path>
  </symbol>
  <symbol xmlns="http://www.w3.org/2000/svg" viewBox="0 0 69.13 46.301" id="Down-1">
    <path d="M39.578 44.01l28.006-33.244A6.553 6.553 0 0 0 62.565 0H6.552a6.563 6.563 0 0 0-5.019 10.766L29.539 44.01a6.643 6.643 0 0 0 10.039 0z"></path>
  </symbol>
  <symbol xmlns="http://www.w3.org/2000/svg" viewBox="0 0 61.361 62.68" id="Download">
    <path d="M50.87 25.666l-5.014-5.08L34.244 32.2V0h-7.126v32.2L15.505 20.586l-5.014 5.08 20.19 20.19z"></path>
    <path d="M54.235 41.897v13.658H7.126V41.897H0V62.68h61.361V41.897z"></path>
  </symbol>
  <symbol xmlns="http://www.w3.org/2000/svg" viewBox="0 0 65.753 62.797" id="Edit">
    <path d="M59.402 33.702l-16.73 16.73-7.759.485.485-8 16.731-16.731a12.4 12.4 0 0 0 7.273 7.516zm5.578-5.576l-3.637 3.637a11.076 11.076 0 0 1-7.274-7.032v-.487l3.394-3.394c3.395-3.393 10.669 4.124 7.517 7.276z" fill-rule="evenodd"></path>
    <path d="M10.426 12.85h27.64v3.152h-27.64zm0 8.971h27.64v3.152h-27.64zm0 8.971h27.64v3.394h-27.64z"></path>
    <path d="M0 0h37.339L51.4 14.548v8.971l-4.12 4.121v-11.4L35.642 4.122H4.122v54.553H47.28v-9.7l4.12-4.12V62.8H0z" fill-rule="evenodd"></path>
    <path d="M10.426 40.006h24.731l-2.182 1.94v1.212H10.426zm0 8.971h22.306l-.242 3.152H10.426z"></path>
  </symbol>
  <symbol xmlns="http://www.w3.org/2000/svg" viewBox="0 0 70 70" id="Ellipse">
    <circle cx="35" cy="35" r="35"></circle>
  </symbol>
  <symbol xmlns="http://www.w3.org/2000/svg" viewBox="0 0 43.556 63.122" id="Expand">
    <path d="M32.695 10.042Q27.848 5.273 23.018.505a1.77 1.77 0 0 0-2.987 1.239v24.979a1.748 1.748 0 0 0 3.494 0V1.744c-1 .419-1.991.821-2.987 1.24q4.847 4.769 9.677 9.537c1.607 1.572 4.087-.891 2.48-2.48z"></path>
    <path d="M13.359 12.33c3.214-3.127 6.446-6.236 9.66-9.363 1.624-1.572-.856-4.035-2.463-2.463-3.214 3.127-6.446 6.236-9.66 9.363-1.624 1.555.838 4.035 2.463 2.463zM1.69 28.506h40.176a1.748 1.748 0 0 0 0-3.494H1.69a1.748 1.748 0 0 0 0 3.494zm28.525 22.096q-4.847 4.769-9.677 9.537c1 .419 1.991.821 2.987 1.24V36.401a1.748 1.748 0 0 0-3.494 0V61.38a1.774 1.774 0 0 0 2.987 1.24q4.847-4.769 9.677-9.537c1.607-1.59-.873-4.053-2.48-2.48z"></path>
    <path d="M10.877 53.257c3.214 3.127 6.446 6.236 9.66 9.363 1.607 1.572 4.087-.908 2.463-2.463-3.214-3.127-6.446-6.236-9.66-9.363-1.607-1.572-4.07.891-2.463 2.463zM1.69 38.113h40.176a1.748 1.748 0 0 0 0-3.494H1.69a1.748 1.748 0 0 0 0 3.494z"></path>
  </symbol>
  <symbol xmlns="http://www.w3.org/2000/svg" viewBox="0 0 67.902 67.902" id="Expand001">
    <path d="M61.623 67.9H6.279A6.282 6.282 0 0 1 0 61.623V6.279A6.282 6.282 0 0 1 6.279 0h55.345a6.282 6.282 0 0 1 6.279 6.279v55.345a6.282 6.282 0 0 1-6.28 6.276zM6.279 4.651a1.648 1.648 0 0 0-1.628 1.628v55.345a1.648 1.648 0 0 0 1.628 1.628h55.345a1.648 1.648 0 0 0 1.628-1.628V6.279a1.648 1.648 0 0 0-1.628-1.628z"></path>
    <path d="M31.626 18.363h4.651v31.176h-4.651z"></path>
    <path d="M18.363 31.626h31.176v4.651H18.363z"></path>
  </symbol>
  <symbol xmlns="http://www.w3.org/2000/svg" viewBox="0 0 63.273 63.261" id="Expired">
    <path d="M28.574 57.132a28.776 28.776 0 0 0 5.168-.473A16.385 16.385 0 1 0 56.67 33.731a28.57 28.57 0 1 0-28.1 23.408zM46.86 34.458a8.762 8.762 0 1 0 .007.007zm-30.91-7.409h10.924V10.377h4V31.05H15.95z"></path>
    <path d="M44.866 38.266h4.001V50.77h-4.001zm0 14.672h4.001v3.168h-4.001z"></path>
  </symbol>
  <symbol xmlns="http://www.w3.org/2000/svg" viewBox="0 0 49.976 51.372" id="Export001">
    <path d="M10.782 27.589h31.9l-8.5 8.5 2.664 2.727 13.131-13.13-13.129-13.128-2.666 2.727 8.5 8.5h-31.9z"></path>
    <path d="M0 51.372h24.988V34.565h-3.805v13H3.805V3.805h17.378v13h3.805V0H0z"></path>
  </symbol>
  <symbol xmlns="http://www.w3.org/2000/svg" viewBox="0 0 58.667 60" id="Export002">
    <path d="M31.792 53.29L2.459 59.956A2.094 2.094 0 0 1 0 57.997V2.004A2.094 2.094 0 0 1 2.458.046l29.333 6.663a2.062 2.062 0 0 1 1.542 1.958v9.332a2 2 0 1 1-4 0v-7.728L4 4.522v50.952l25.333-5.749v-7.728a2 2 0 1 1 4 0v9.332a2.1 2.1 0 0 1-1.542 1.958z"></path>
    <path d="M58.667 30.001a2.242 2.242 0 0 1-.542 1.375L47.458 42.71a2.291 2.291 0 0 1-2.917.167 2.083 2.083 0 0 1 .021-2.917l7.5-7.959H10a2 2 0 0 1 0-4h42.062l-7.5-7.959a2.2 2.2 0 0 1-.021-2.917 2.261 2.261 0 0 1 2.917.167l10.667 11.334a1.923 1.923 0 0 1 .542 1.375z"></path>
  </symbol>
  <symbol xmlns="http://www.w3.org/2000/svg" viewBox="0 0 64.174 64.174" id="external-link">
    <path d="M55.15 32.087h-2.006a1 1 0 0 0-1 1v25.071a2.005 2.005 0 0 1-2.005 2.005H6.035a2.005 2.005 0 0 1-2.005-2.005v-44.1a2.005 2.005 0 0 1 2.005-2.024H31.1a1 1 0 0 0 1-1v-2.01a1 1 0 0 0-1-1H6.035A6.035 6.035 0 0 0 0 14.038v44.1a6.035 6.035 0 0 0 6.035 6.035h44.1a6.035 6.035 0 0 0 6.035-6.035V33.071a1 1 0 0 0-1.021-.984zM62.67 0L45.624.042a1.5 1.5 0 0 0-1.523 1.5v1.243a1.5 1.5 0 0 0 1.5 1.5l11.281-.042.088.088-40.485 40.522a1.5 1.5 0 0 0 0 2.131l.71.71a1.5 1.5 0 0 0 2.131 0l40.5-40.508.088.088-.028 11.295a1.5 1.5 0 0 0 1.5 1.5h1.253a1.5 1.5 0 0 0 1.49-1.5L64.174 1.5A1.5 1.5 0 0 0 62.67 0z"></path>
  </symbol>
  <symbol xmlns="http://www.w3.org/2000/svg" viewBox="0 0 63.746 63.746" id="Filter">
    <path d="M0 0l24.789 28.331v28.331l14.169 7.084V28.324L63.746 0z"></path>
  </symbol>
  <symbol xmlns="http://www.w3.org/2000/svg" viewBox="0 0 100.005 87.279" id="heart">
    <path d="M100.005 25.535v8a2.921 2.921 0 0 0-.18.55 30 30 0 0 1-2.7 9.2 62.73 62.73 0 0 1-12.12 17.05c-10.13 10.54-21.79 19.09-34.2 26.69a1.22 1.22 0 0 1-1.49 0 180.652 180.652 0 0 1-28-20.62 87.3 87.3 0 0 1-16.03-18.77 33.92 33.92 0 0 1-4.35-26.09c4.54-20.19 29.68-28.44 45.34-14.91 1.34 1.15 2.52 2.49 3.86 3.81a4.259 4.259 0 0 1 .27-.4c7-7.83 15.65-11.33 26-9.59 11.35 1.9 18.79 8.68 22.41 19.59a50.931 50.931 0 0 1 1.19 5.49z"></path>
  </symbol>
  <symbol xmlns="http://www.w3.org/2000/svg" viewBox="0 0 71.423 63.487" id="Hide">
    <path d="M56.94 19.433l-8.8 8.8a12.87 12.87 0 0 1-15.891 15.886l-5.49 5.49a33.482 33.482 0 0 0 8.953 1.264c19.721 0 35.711-19.133 35.711-19.133A67.441 67.441 0 0 0 56.94 19.433zm-42.451 24.62l8.822-8.822A12.877 12.877 0 0 1 39.25 19.292l5.414-5.414a33.5 33.5 0 0 0-8.953-1.264C15.991 12.619 0 31.739 0 31.739a67.448 67.448 0 0 0 14.489 12.314zM4.652 62.8a2.335 2.335 0 0 0 3.3 0L66.768 3.986a2.335 2.335 0 0 0-3.3-3.3L4.652 59.5a2.335 2.335 0 0 0 0 3.3z"></path>
  </symbol>
  <symbol xmlns="http://www.w3.org/2000/svg" viewBox="0 0 77.601 77.601" id="History">
    <path d="M38.8 0a38.811 38.811 0 0 0-23.759 8.144L6.9 0v20.694h20.691l-8.25-8.251A32.763 32.763 0 1 1 6.036 38.8H0A38.8 38.8 0 1 0 38.8 0z"></path>
    <path d="M55.59 22.011a1.724 1.724 0 0 0-2.439 0L40.394 34.769a4.35 4.35 0 1 0-.839 8.3l7.265 10.985a1.724 1.724 0 1 0 2.877-1.9l-7.263-10.985a4.28 4.28 0 0 0 .4-3.961L55.59 24.449a1.724 1.724 0 0 0 0-2.439z"></path>
  </symbol>
  <symbol xmlns="http://www.w3.org/2000/svg" viewBox="0 0 64.416 64.421" id="Import">
    <path d="M62.642 12.328L52.083 1.775A6.038 6.038 0 0 0 47.826 0H22.141A6.059 6.059 0 0 0 16.1 6.05v30.183H1.006A1.006 1.006 0 0 0 0 37.241v2.014a1.006 1.006 0 0 0 1.006 1.006h31.2v6.626a3.385 3.385 0 0 0 2.1 3.15 3.593 3.593 0 0 0 3.885-.678l9.03-8.571a3.471 3.471 0 0 0 0-5.061l-9.03-8.575a3.587 3.587 0 0 0-3.881-.676 3.383 3.383 0 0 0-2.1 3.15v6.626H20.129V6.05a2.029 2.029 0 0 1 2.014-2.024h22.148V17.12a3.005 3.005 0 0 0 3.02 3.012h13.082v38.251a2.018 2.018 0 0 1-2.014 2.017H22.141a2.018 2.018 0 0 1-2.014-2.014V44.291H16.1v14.092a6.04 6.04 0 0 0 6.038 6.038h36.245a6.04 6.04 0 0 0 6.034-6.038V16.6a6.067 6.067 0 0 0-1.775-4.276zM36.233 30.84l7.8 7.407-7.8 7.407zm12.082-14.726V4.1a1.978 1.978 0 0 1 .93.529L59.8 15.182a1.978 1.978 0 0 1 .529.93z"></path>
  </symbol>
  <symbol xmlns="http://www.w3.org/2000/svg" viewBox="0 0 75.211 63.929" id="Import001">
    <path d="M48.887 18.8v-7.518h26.324v52.647H0V11.282h26.324V18.8H7.521v37.608H67.69V18.8zM33.845 0h7.521v30.084h15.042l-18.8 18.8-18.8-18.8h15.037z" fill-rule="evenodd"></path>
  </symbol>
  <symbol xmlns="http://www.w3.org/2000/svg" viewBox="0 0 66.453 66.453" id="info-circle">
    <path d="M33.227 4.287a28.939 28.939 0 1 1-28.94 28.94 28.943 28.943 0 0 1 28.94-28.94m0-4.287a33.227 33.227 0 1 0 33.226 33.227A33.232 33.232 0 0 0 33.227 0zM28.4 46.088h1.608V30.011H28.4a1.608 1.608 0 0 1-1.6-1.611v-1.069a1.608 1.608 0 0 1 1.6-1.607h6.431a1.608 1.608 0 0 1 1.608 1.608v18.756h1.611a1.608 1.608 0 0 1 1.607 1.612v1.072a1.608 1.608 0 0 1-1.608 1.608H28.4a1.608 1.608 0 0 1-1.6-1.612V47.7a1.608 1.608 0 0 1 1.6-1.612zm4.823-32.155a4.287 4.287 0 1 0 4.287 4.287 4.287 4.287 0 0 0-4.283-4.286z"></path>
  </symbol>
  <symbol xmlns="http://www.w3.org/2000/svg" viewBox="0 0 64.13 64.13" id="Information">
    <path d="M32.026 0a32.026 32.026 0 1 0 32.026 32.026A32 32 0 0 0 32.026 0zm3.856 45.009a3.856 3.856 0 0 1-7.711 0v-14.95a3.856 3.856 0 0 1 7.711 0zm-3.856-22.19a3.856 3.856 0 1 1 3.856-3.856 3.862 3.862 0 0 1-3.856 3.856z"></path>
    <path fill="none" d="M0 0h64.13v64.13H0z"></path>
  </symbol>
  <symbol xmlns="http://www.w3.org/2000/svg" viewBox="0 0 71.719 65.723" id="Invoice">
    <path d="M42.317 28.48H22.6a1.038 1.038 0 0 1 0-2.075h19.717a1.038 1.038 0 1 1 0 2.075zm0 5.996H22.6a1.038 1.038 0 0 1 0-2.075h19.717a1.038 1.038 0 1 1 0 2.075zm-.001 11.184H10.493a1.038 1.038 0 0 1 0-2.075h31.823a1.038 1.038 0 0 1 0 2.075zm0 5.996H10.493a1.038 1.038 0 0 1 0-2.075h31.823a1.038 1.038 0 1 1 0 2.075zm0 5.995H10.493a1.038 1.038 0 0 1 0-2.075h31.823a1.038 1.038 0 0 1 0 2.075zm-23.291-25.02c0-2.191-1.384-3.574-3.92-4.5h-.115a11.243 11.243 0 0 1-1.614-.692 1.825 1.825 0 0 1-1.153-1.73 1.976 1.976 0 0 1 1.268-1.845 4.145 4.145 0 0 1 1.268-.231h.346a6.532 6.532 0 0 1 1.73.346 1.115 1.115 0 0 0 1.384-.577.94.94 0 0 0-.577-1.268 7.537 7.537 0 0 0-2.421-.461v-.922c0-.346-.346-.577-.807-.692-.461 0-.807.231-.807.577v1.038a4.421 4.421 0 0 0-3.92 4.266c0 1.73 1.153 3.113 3.69 4.151.115 0 .231.115.346.115a13.527 13.527 0 0 1 1.268.577 2.417 2.417 0 0 1 1.5 2.191 2.18 2.18 0 0 1-1.614 2.075 4.323 4.323 0 0 1-1.271.114h-.342a4.416 4.416 0 0 1-2.191-.577 1.115 1.115 0 0 0-1.387.577v.115a.707.707 0 0 0 .461 1.153 7.712 7.712 0 0 0 3 .577v.807a.771.771 0 0 0 .807.692.771.771 0 0 0 .807-.692v-.922c2.65-.23 4.264-1.956 4.264-4.262z"></path>
    <path d="M15.8 0a2.225 2.225 0 0 0-1.153.346l-3.574 3-7.729 6.57-2.767 2.421A1.852 1.852 0 0 0 0 13.606v52h52.809V0zm-1.73 5.419v6.572H6.342zm35.28 56.845H3.459V15.335H15.8a1.773 1.773 0 0 0 1.73-1.73V3.459h31.935v58.8zM71.603 9.57l.115 18.445a1.153 1.153 0 1 1-2.306 0l-.115-16.258h-2.075l.115 38.165a31.177 31.177 0 0 1-1.5 7.495v.115c-.692 2.306-1.73 4.382-2.767 5.189v2.075a.922.922 0 0 1-1.845 0v-2.071c-1.153-.807-2.075-2.883-2.883-5.189a31.177 31.177 0 0 1-1.5-7.495l-.113-40.01a5.129 5.129 0 0 1 1.5-3.69 5.021 5.021 0 0 1 1.845-1.153V1.96A1.821 1.821 0 0 1 61.918.115a1.968 1.968 0 0 1 1.96 1.96v3.229a5.262 5.262 0 0 1 3.344 4.843h2.075v-.346a1.155 1.155 0 0 1 1.153-1.153 1.047 1.047 0 0 1 .807.346c.231-.001.346.23.346.576z"></path>
  </symbol>
  <symbol xmlns="http://www.w3.org/2000/svg" viewBox="0 0 72.153 64.156" id="LastMinute">
    <path d="M26.391 32.932l-9.879 11.5 5.356 4.6 11.581-13.486V16.592h-7.058z"></path>
    <path d="M29.918 57.097a22.861 22.861 0 1 1 8.873-43.929l3.535-6.118A29.856 29.856 0 0 0 0 34.235a29.912 29.912 0 0 0 59.64 3.323h-7.132a22.874 22.874 0 0 1-22.59 19.539z"></path>
    <path d="M72.153 30.5L54.543 0 36.932 30.5zM52.86 10.565h3.527v9.351H52.86zm3.527 12.881v3.528H52.86v-3.529z"></path>
  </symbol>
  <symbol xmlns="http://www.w3.org/2000/svg" viewBox="0 0 60 64" id="Loading">
    <g transform="translate(.442 .169)">
      <circle cx="8" cy="8" r="8" transform="translate(24.558 -.169)"></circle>
      <circle cx="6.5" cy="6.5" r="6.5" transform="translate(43.558 11.831)"></circle>
      <ellipse cx="6" cy="5.5" rx="6" ry="5.5" transform="translate(47.558 31.831)"></ellipse>
      <circle cx="4.5" cy="4.5" r="4.5" transform="translate(38.558 49.831)"></circle>
      <circle cx="4.5" cy="4.5" r="4.5" transform="translate(18.558 54.831)"></circle>
      <circle cx="3.5" cy="3.5" r="3.5" transform="translate(2.558 42.831)"></circle>
      <circle cx="2.5" cy="2.5" r="2.5" transform="translate(-.442 24.831)"></circle>
      <ellipse cx="2" cy="2.5" rx="2" ry="2.5" transform="translate(11.558 8.831)"></ellipse>
    </g>
  </symbol>
  <symbol xmlns="http://www.w3.org/2000/svg" viewBox="0 0 65.121 38.347" id="Loss">
    <path d="M61.628 16.366A3.391 3.391 0 0 0 58.2 19.79v6.779L39.1 7.532a3.516 3.516 0 0 0-4.862 0L23.282 18.42 5.889 1.027a3.39 3.39 0 0 0-4.862 0 3.39 3.39 0 0 0 0 4.862l19.858 19.858a3.516 3.516 0 0 0 4.862 0l10.888-10.956L53.343 31.5h-6.779a3.424 3.424 0 0 0 0 6.848H61.7a3.391 3.391 0 0 0 3.424-3.424V19.79a3.493 3.493 0 0 0-3.496-3.424z"></path>
  </symbol>
  <symbol xmlns="http://www.w3.org/2000/svg" viewBox="0 0 62.195 64.268" id="Market">
    <path d="M39.39 33.171H31.1v29.024h-4.149V39.39h-8.293v22.8h-4.146V41.463H6.219v20.732H2.073V39.988L13.476 28.6l6.224 6.215 17.617-17.622 6.219 6.219L57.012 9.937l3.413 3.413 1.584-11.091-11.091 1.584 3.413 3.413-10.795 10.795-6.219-6.219L19.7 29.453l-6.219-6.219-11.4 11.4v-9.756H8.3V22.8H2.073v-2.068h4.146v-2.074H2.073v-2.073h6.219v-2.073H2.073v-2.073h4.146v-2.073H2.073V8.293h6.219V6.219H2.073V4.146h4.146V2.073H2.073V0H0v64.268h43.536v-2.073H39.39z"></path>
    <path d="M60.553 47.709l-6.917-9.991a.977.977 0 0 0-1.549 0l-6.913 9.986a9.231 9.231 0 0 0 7.589 14.486h.2a9.231 9.231 0 0 0 7.59-14.486zm-8.724 4.12h2.073a3.114 3.114 0 0 1 3.11 3.11v3.11h-3.11v2.069h-2.073v-2.069a3.114 3.114 0 0 1-3.11-3.11h2.073a1.037 1.037 0 0 0 1.037 1.037h3.107v-1.037a1.037 1.037 0 0 0-1.037-1.037h-2.07a3.114 3.114 0 0 1-3.11-3.11v-3.11h3.11V45.61h2.073v2.073a3.114 3.114 0 0 1 3.11 3.11h-2.076a1.037 1.037 0 0 0-1.037-1.037h-3.11v1.037a1.037 1.037 0 0 0 1.04 1.036z"></path>
  </symbol>
  <symbol xmlns="http://www.w3.org/2000/svg" viewBox="0 0 63.608 63.868" id="Menu">
    <path d="M43.128 6.6H3.3A3.3 3.3 0 0 1 0 3.3 3.3 3.3 0 0 1 3.3 0h39.828a3.3 3.3 0 0 1 3.3 3.3 3.3 3.3 0 0 1-3.3 3.3zM60.31 35.236H3.3a3.3 3.3 0 0 1-3.3-3.3 3.3 3.3 0 0 1 3.3-3.3h57.01a3.3 3.3 0 0 1 3.3 3.3 3.3 3.3 0 0 1-3.3 3.3zM43.128 63.873H3.3a3.3 3.3 0 0 1-3.3-3.3 3.3 3.3 0 0 1 3.3-3.3h39.828a3.3 3.3 0 0 1 3.3 3.3 3.3 3.3 0 0 1-3.3 3.3z"></path>
  </symbol>
  <symbol xmlns="http://www.w3.org/2000/svg" viewBox="0 0 63.202 6.975" id="Minus">
    <path d="M63.2 0v6.975H0V0z" fill-rule="evenodd"></path>
  </symbol>
  <symbol xmlns="http://www.w3.org/2000/svg" viewBox="0 0 64.058 64.058" id="Minus001">
    <path d="M29.534 29.534h23.071v4.99H11.454v-4.99z" fill-rule="evenodd"></path>
    <path d="M31.988 0A32.029 32.029 0 1 1 0 31.988 32 32 0 0 1 31.988 0zm0 3.436a28.593 28.593 0 1 0 28.634 28.552A28.526 28.526 0 0 0 31.988 3.436z"></path>
  </symbol>
  <symbol xmlns="http://www.w3.org/2000/svg" viewBox="0 0 62.522 62.522" id="Next">
    <path d="M31.261 0a31.261 31.261 0 1 0 31.261 31.261A31.261 31.261 0 0 0 31.261 0zm-7.513 13.374a1.489 1.489 0 0 1 1.07.4l17.864 16.371a1.489 1.489 0 0 1 0 2.21L24.818 48.729a1.49 1.49 0 1 1-2-2.21l16.654-15.258L22.818 15.98a1.489 1.489 0 0 1 .93-2.605z"></path>
  </symbol>
  <symbol xmlns="http://www.w3.org/2000/svg" viewBox="0 0 62.883 64.651" id="Notification">
    <path d="M57.358 52.132H5.526a1.585 1.585 0 1 1 0-3.17h5.819V24.036a20.1 20.1 0 0 1 40.194 0v24.922h5.819a1.585 1.585 0 1 1 0 3.17m-25.916 8.585a6.17 6.17 0 0 1-5.839-4.192h11.678a6.17 6.17 0 0 1-5.839 4.192m25.916-15.69h-1.88V24.036a24.036 24.036 0 0 0-48.071 0v20.987H5.526a5.524 5.524 0 1 0 0 11.047h15.97a10.055 10.055 0 0 0 19.892 0h15.97a5.524 5.524 0 1 0 0-11.047"
      fill-rule="evenodd"></path>
  </symbol>
  <symbol xmlns="http://www.w3.org/2000/svg" viewBox="0 0 62.18 63.48" id="Notification-1">
    <path d="M57 41.457h-1.3a6.461 6.461 0 0 1 6.489 6.461v1.3a2.584 2.584 0 0 1-2.592 2.588h-57A2.588 2.588 0 0 1 0 49.23v-1.3a6.485 6.485 0 0 1 6.489-6.461h-1.3a2.592 2.592 0 0 0 2.588-2.592V23.319a23.318 23.318 0 1 1 46.636 0v15.542A2.584 2.584 0 0 0 57 41.457zM22.023 54.411h18.134a9.068 9.068 0 1 1-18.136 0z"
      fill-rule="evenodd"></path>
  </symbol>
  <symbol xmlns="http://www.w3.org/2000/svg" viewBox="0 0 55.115 63.933" id="PDF">
    <path d="M54.784 13.558L41.556.331A1.036 1.036 0 0 0 40.784 0H8.664a4.277 4.277 0 0 0-4.255 4.255v21.1a1.1 1.1 0 1 0 2.2 0v-21.1A2.05 2.05 0 0 1 8.664 2.2h31.018v12.13a1.1 1.1 0 0 0 1.1 1.1h12.127v44.248a2.05 2.05 0 0 1-2.05 2.05H8.664a2.05 2.05 0 0 1-2.05-2.05v-5.666a1.1 1.1 0 0 0-2.2 0v5.666a4.277 4.277 0 0 0 4.255 4.255h42.2a4.277 4.277 0 0 0 4.255-4.255V14.33a1.036 1.036 0 0 0-.34-.772zM41.887 3.77l9.458 9.458h-9.458z"></path>
    <path d="M22.399 35.736h-1.94v7.87h2.2a4.718 4.718 0 0 0 3.219-.992 3.792 3.792 0 0 0 1.1-2.932c-.06-2.645-1.625-3.946-4.579-3.946zm-11.222-.042H9.193v4.608h2.2a2.932 2.932 0 0 0 2.2-.617 2.513 2.513 0 0 0 .728-1.808 1.918 1.918 0 0 0-.75-1.7 4.409 4.409 0 0 0-2.4-.485z"></path>
    <path d="M46.3 47.134v-14.9a3.549 3.549 0 0 0-3.575-3.574H3.571A3.549 3.549 0 0 0 0 32.231v14.9a3.549 3.549 0 0 0 3.571 3.571h39.154a3.549 3.549 0 0 0 3.575-3.568zm-31.309-6.04a6 6 0 0 1-3.748.97h-2.05v3.373h-1.94V33.929H11.2a5.754 5.754 0 0 1 3.814 1.014 3.748 3.748 0 0 1 1.213 3.086 3.7 3.7 0 0 1-1.235 3.064zm12.28 2.778a6.922 6.922 0 0 1-4.938 1.565h-3.814V33.929h3.946A6.768 6.768 0 0 1 27.2 35.45a5.335 5.335 0 0 1 1.675 4.167 5.71 5.71 0 0 1-1.609 4.255zm11.75-8.135h-5.71v3.175H38.4v1.874h-5.089v4.74h-1.94v-11.6h7.672z"></path>
  </symbol>
  <symbol xmlns="http://www.w3.org/2000/svg" viewBox="0 0 71.375 65.077" id="Pending">
    <path d="M44.085 54.581a8.4 8.4 0 0 1 8.394-8.4h10.5a8.4 8.4 0 0 1 0 16.794h-10.5a8.4 8.4 0 0 1-8.394-8.394zm4.2 0a4.2 4.2 0 0 0 4.2 4.2h10.5a4.2 4.2 0 0 0 0-8.4h-10.5a4.2 4.2 0 0 0-4.202 4.2zM63.679 42q-.346-.019-.7-.019h-10.5a12.595 12.595 0 0 0-9.14 21.257A32.5 32.5 0 1 1 63.679 42zM44.084 31.485h-10.5v-16.79a2.1 2.1 0 1 0-4.2 0v18.893a2.1 2.1 0 0 0 2.1 2.1h12.6a2.1 2.1 0 0 0 0-4.2zm8.4 25.191a2.1 2.1 0 0 1 0-4.2h5.248a2.1 2.1 0 0 1 0 4.2z"></path>
  </symbol>
  <symbol xmlns="http://www.w3.org/2000/svg" viewBox="0 0 62.356 62.356" id="Plus">
    <path d="M27.714 0v27.714H0v6.924h27.714v27.714h6.928V34.638h27.714V27.71H34.642V0z"></path>
  </symbol>
  <symbol xmlns="http://www.w3.org/2000/svg" viewBox="0 0 64.058 64.058" id="Plus001">
    <path d="M29.534 11.454h4.99v18.08h18.08v4.99h-18.08v18.08h-4.99v-18.08h-18.08v-4.99h18.08z" fill-rule="evenodd"></path>
    <path d="M31.988 0A32.029 32.029 0 1 1 0 31.988 32 32 0 0 1 31.988 0zm0 3.436a28.593 28.593 0 1 0 28.634 28.552A28.526 28.526 0 0 0 31.988 3.436z"></path>
  </symbol>
  <symbol xmlns="http://www.w3.org/2000/svg" viewBox="0 0 53.48 62.036" id="PNG">
    <path d="M53.158 13.156L40.323.321A1 1 0 0 0 39.578 0H8.407a4.15 4.15 0 0 0-4.129 4.129V24.6a1.07 1.07 0 1 0 2.139 0V4.129a1.989 1.989 0 0 1 1.99-1.99h30.1V13.9a1.07 1.07 0 0 0 1.07 1.07H51.34v42.938a1.989 1.989 0 0 1-1.989 1.992H8.407a1.989 1.989 0 0 1-1.989-1.989v-5.5a1.07 1.07 0 0 0-2.139 0v5.5a4.15 4.15 0 0 0 4.129 4.129h40.943a4.15 4.15 0 0 0 4.127-4.132v-44a1 1 0 0 0-.32-.752zm-12.514-9.5l9.177 9.177h-9.177z"></path>
    <path d="M9.327 34.698h-1.84v4.471h2.139a2.845 2.845 0 0 0 2.139-.6 2.417 2.417 0 0 0 .578-1.754 1.776 1.776 0 0 0-.77-1.519 4.064 4.064 0 0 0-2.246-.598z"></path>
    <path d="M44.923 45.735v-14.46a3.444 3.444 0 0 0-3.466-3.466H3.466A3.444 3.444 0 0 0 0 31.275v14.46A3.444 3.444 0 0 0 3.465 49.2h37.992a3.444 3.444 0 0 0 3.465-3.465zm-31.9-5.8a5.69 5.69 0 0 1-3.637.941h-1.9v3.273H5.541v-11.14H9.37a5.8 5.8 0 0 1 3.7.963 3.679 3.679 0 0 1 1.155 2.995 3.487 3.487 0 0 1-1.197 2.971zM26.7 44.217h-2.1l-6.31-8.129v8.129h-1.882V33.009h1.882l6.418 8.321v-8.321h2.032zm12.685-1.6a5.776 5.776 0 0 1-4.514 1.733 5.647 5.647 0 0 1-4.131-1.631 5.926 5.926 0 0 1 0-8.257 5.647 5.647 0 0 1 4.107-1.669 5.883 5.883 0 0 1 4.022 1.416l-1.005 1.433a3.551 3.551 0 0 0-1.326-.77 4.877 4.877 0 0 0-1.54-.214 3.979 3.979 0 0 0-2.845 1.091 3.936 3.936 0 0 0 2.674 6.8 4.835 4.835 0 0 0 2.61-.834v-2.996h1.882z"></path>
  </symbol>
  <symbol xmlns="http://www.w3.org/2000/svg" viewBox="0 0 57.157 66.858" id="Prescription001">
    <path d="M44.807 36.634l3.734-4.368.423-.423V14.865a3.939 3.939 0 0 0-3.946-3.945h-4.861v4.157h4.65zm0 20.924v5.213H4.157v-47.7h4.438V10.92h-4.65A3.939 3.939 0 0 0 0 14.865v48.048a3.939 3.939 0 0 0 3.945 3.945h41a3.939 3.939 0 0 0 3.945-3.945V53.19l-2.254 2.677a6.1 6.1 0 0 1-1.829 1.691z"></path>
    <path d="M23.601 36.283h1.9a1.113 1.113 0 0 0 1.129-1.127v-3.523h3.523a1.113 1.113 0 0 0 1.127-1.127v-1.973a1.113 1.113 0 0 0-1.127-1.127H26.63v-3.523a1.113 1.113 0 0 0-1.127-1.127h-1.9a1.113 1.113 0 0 0-1.127 1.127v3.523h-3.525a1.113 1.113 0 0 0-1.127 1.127v1.9a1.113 1.113 0 0 0 1.127 1.127h3.523v3.523a1.129 1.129 0 0 0 1.127 1.2zm-10.709 9.792h23.249a1.113 1.113 0 0 0 1.124-1.128v-1.9a1.113 1.113 0 0 0-1.124-1.129H12.892a1.113 1.113 0 0 0-1.127 1.127v1.9a1.113 1.113 0 0 0 1.127 1.13zm0 9.792H32.83a1.2 1.2 0 0 0 .07-.493l.916-3.734H12.892a1.113 1.113 0 0 0-1.127 1.127v1.9a1.131 1.131 0 0 0 1.127 1.2zm.423-39.382h22.121a1.564 1.564 0 0 0 1.55-1.55v-6.27a1.564 1.564 0 0 0-1.55-1.55h-3.663a7.4 7.4 0 0 0-14.795 0h-3.663a1.564 1.564 0 0 0-1.55 1.55v6.27a1.564 1.564 0 0 0 1.55 1.55zM24.376 4.579A2.818 2.818 0 1 1 21.558 7.4a2.826 2.826 0 0 1 2.818-2.821zm11.835 51.57a1.042 1.042 0 0 0 1.409 1.2l4.016-1.761a7.037 7.037 0 0 0 2.043-1.409l-5.425-4.582a7.3 7.3 0 0 0-1.057 2.254zm20.149-20.36l-2.043-1.691a2.264 2.264 0 0 0-3.241.282L40.368 47.061l5.5 4.65 10.7-12.68a2.258 2.258 0 0 0-.208-3.242z"></path>
  </symbol>
  <symbol xmlns="http://www.w3.org/2000/svg" viewBox="0 0 50.95 63.687" id="Prescription002">
    <path d="M48.827 0h-8.492a2.123 2.123 0 1 0 0 4.246H46.7v55.2H4.246v-55.2h6.369a2.123 2.123 0 1 0 0-4.246H2.123A2.123 2.123 0 0 0 0 2.123v59.441a2.123 2.123 0 0 0 2.123 2.123h46.7a2.123 2.123 0 0 0 2.123-2.123V2.123A2.123 2.123 0 0 0 48.827 0z"></path>
    <path d="M16.983 12.737h16.983a2.123 2.123 0 0 0 2.123-2.123V2.123A2.123 2.123 0 0 0 33.966 0H16.983a2.123 2.123 0 0 0-2.123 2.123v8.492a2.123 2.123 0 0 0 2.123 2.122zm2.123-8.492h12.737v4.247H19.106zm-2.123 42.459a2.123 2.123 0 0 0 2.123-2.121V36.96l6.56 6.56-3.821 3.8a2.132 2.132 0 1 0 3.015 3.014l3.8-3.821 3.8 3.821a2.132 2.132 0 1 0 3.015-3.015l-3.821-3.8 3.821-3.8a2.132 2.132 0 0 0-3.015-3.014l-3.8 3.821-6.56-6.56h1.253a8.492 8.492 0 1 0-.001-16.983h-6.369a2.123 2.123 0 0 0-2.123 2.123v25.477a2.123 2.123 0 0 0 2.123 2.121zm2.123-25.475h4.246a4.246 4.246 0 1 1 0 8.492h-4.246z"></path>
  </symbol>
  <symbol xmlns="http://www.w3.org/2000/svg" viewBox="0 0 62.522 62.522" id="Prev">
    <path d="M31.261 62.522A31.261 31.261 0 1 0 0 31.261a31.261 31.261 0 0 0 31.261 31.261zm7.513-13.374a1.489 1.489 0 0 1-1.07-.4L19.84 32.377a1.489 1.489 0 0 1 0-2.21l17.864-16.374a1.49 1.49 0 1 1 2 2.21L23.05 31.261l16.654 15.281a1.489 1.489 0 0 1-.93 2.605z"></path>
  </symbol>
  <symbol xmlns="http://www.w3.org/2000/svg" viewBox="0 0 77.956 63.339" id="ProductDetail">
    <path d="M29.234 4.872v24.362H4.872V4.872h24.362M34.106 0H0v34.106h34.106zm43.85 0H43.85v4.872h34.106zm0 14.617H43.85v4.872h34.106zm0 14.617H43.85v4.872h34.106zm0 14.617H0v4.872h77.956zm0 14.617H0v4.872h77.956z"></path>
  </symbol>
  <symbol xmlns="http://www.w3.org/2000/svg" viewBox="0 0 68 40.084" id="Profit">
    <path d="M64.421 0H48.6a3.579 3.579 0 1 0 0 7.158h7.086L38.295 24.623 26.914 13.171a3.544 3.544 0 0 0-5.082 0L1.074 33.929a3.544 3.544 0 0 0 0 5.082 3.6 3.6 0 0 0 2.505 1.074 3.473 3.473 0 0 0 2.505-1.074L24.265 20.83 35.79 32.211a3.544 3.544 0 0 0 5.082 0L60.843 12.24v7.086a3.579 3.579 0 0 0 7.158 0V3.579A3.544 3.544 0 0 0 64.421 0z"></path>
  </symbol>
  <symbol xmlns="http://www.w3.org/2000/svg" viewBox="0 0 64.333 64.333" id="Refresh">
    <path d="M0 0h64.333v64.333H0z" fill="none"></path>
    <path d="M49.69 13.11a24.817 24.817 0 1 0 6.453 23.728H49.69a18.606 18.606 0 1 1-17.529-24.817 18.353 18.353 0 0 1 13.093 5.521l-9.993 9.991h21.72V5.821z"></path>
  </symbol>
</svg>
